<?xml version="1.0" encoding="utf-8"?>
<!-- Generator: Adobe Illustrator 23.0.1, SVG Export Plug-In . SVG Version: 6.00 Build 0)  -->
<svg version="1.1" id="Layer_1" xmlns="http://www.w3.org/2000/svg" xmlns:xlink="http://www.w3.org/1999/xlink" x="0px" y="0px"
	 viewBox="0 0 430.5 361.5" style="enable-background:new 0 0 430.5 361.5;" xml:space="preserve">
<style type="text/css">
	.st0{fill:#F2F2F2;}
	.st1{fill:url(#SVGID_1_);}
	.st2{fill:#3F3D56;}
	.st3{fill:none;stroke:#3F3D56;stroke-width:2;}
	.st4{fill:none;stroke:#3F3D56;stroke-width:2;stroke-miterlimit:10;}
	.st5{fill:url(#SVGID_2_);}
	.st6{fill:url(#SVGID_3_);}
	.st7{fill:url(#SVGID_4_);}
	.st8{fill:none;stroke:#DBCCC9;stroke-width:2;stroke-miterlimit:10;}
	.st9{fill:#2F2E41;}
	.st10{fill:#00A19B;}
	.st11{opacity:0.1;enable-background:new    ;}
	.st12{fill:#6C63FF;}
	.st13{fill:url(#SVGID_5_);}
	.st14{fill:url(#SVGID_6_);}
</style>
<path id="Caminho_665_1_" class="st0" d="M102.4,227.7c-10.9-8.3-13.1-21.2-12.3-33c2.7-37.1,29.2-70.5,59.3-99.4
	C160.4,85,172.1,74.6,187,67.8c30.5-13.8,72.7-9.7,97.8,9.5c8.6,6.5,15.1,14.4,20.9,22.6c10.3,14.4,18.6,30.1,21,46.6
	c1.7,11.7,0.3,23.6-2,35.2c-6.5,32.6-21,64.5-45.8,91.3c-10.9,11.7-24.4,22.8-42,27.7c-17.6,4.8-39.9,1.7-50.3-10.3
	c-4.3-4.9-6.2-10.9-8.1-16.7c-2.7-8.6-5.3-17.2-10.8-25c-5.7-8-16.6-17.4-29.1-15.8C125.2,234.6,113.3,235.9,102.4,227.7z"/>
<g>
	<g>
		
			<linearGradient id="SVGID_1_" gradientUnits="userSpaceOnUse" x1="920.9121" y1="745.7121" x2="752.0683" y2="576.8683" gradientTransform="matrix(1 0 0 -1 0 364)">
			<stop  offset="0.1698" style="stop-color:#FF6F61"/>
			<stop  offset="0.6116" style="stop-color:#FF6D63"/>
			<stop  offset="0.7993" style="stop-color:#FD666A"/>
			<stop  offset="0.9385" style="stop-color:#FB5977"/>
			<stop  offset="1" style="stop-color:#F9517F"/>
		</linearGradient>
		<path class="st1" d="M836.5-416.7c-65.9,0-119.4,53.5-119.4,119.4s53.5,119.4,119.4,119.4s119.4-53.5,119.4-119.4
			S902.5-416.7,836.5-416.7z M782.1-288.4c-12.2-13.5-12.9-33.7,0-46.6c12.9-12.9,33.7-12.9,46.6,0l1.2,1.2L812.6-294l0,0
			c-0.1,0.3-0.2,0.6-0.3,0.9c0,0.1-0.1,0.2-0.1,0.3s0,0.2,0,0.3c-0.1,0.3-0.1,0.6-0.1,1l0,0c0,0.1,0,0.2,0,0.3c0,0.3,0,0.6,0.1,0.9
			c0,0.2,0.1,0.4,0.2,0.6c0.1,0.2,0.1,0.4,0.2,0.6c0.1,0.2,0.2,0.4,0.3,0.5c0.1,0.2,0.2,0.3,0.3,0.5c0.1,0.2,0.2,0.3,0.4,0.5
			c0.1,0.2,0.2,0.3,0.4,0.5c0.1,0.1,0.3,0.3,0.5,0.4s0.3,0.3,0.5,0.4c0.2,0.2,0.5,0.3,0.7,0.4c0.1,0,0.2,0.1,0.3,0.2l0,0
			c0.4,0.2,0.8,0.3,1.2,0.4c0.4,0.1,0.8,0.1,1.2,0.1l0,0H843l-16.1,37C813.8-258.9,791.3-278.1,782.1-288.4z M891-288.4
			c-13.3,14.9-54.3,48.2-54.3,48.2h-0.2c0.4-0.5,0.8-1,1.1-1.7l20.4-47l0,0c0.1-0.3,0.2-0.6,0.3-0.9c0-0.1,0.1-0.2,0.1-0.3
			s0-0.2,0-0.2c0.1-0.3,0.1-0.7,0.1-1l0,0c0-0.1,0-0.2,0-0.3c0-0.3,0-0.6-0.1-0.9c0-0.2-0.1-0.4-0.2-0.5c-0.1-0.2-0.1-0.4-0.2-0.6
			c-0.1-0.2-0.2-0.4-0.3-0.5c-0.1-0.2-0.2-0.3-0.3-0.5c-0.1-0.2-0.2-0.3-0.4-0.5c-0.1-0.2-0.2-0.3-0.4-0.5c-0.1-0.2-0.3-0.3-0.5-0.4
			c-0.1-0.1-0.3-0.3-0.4-0.4c-0.2-0.2-0.5-0.3-0.8-0.4c-0.1,0-0.2-0.1-0.2-0.1l0,0c-0.3-0.1-0.6-0.2-0.9-0.3c-0.1,0-0.2-0.1-0.3-0.1
			s-0.2,0-0.3,0c-0.3-0.1-0.7-0.1-1-0.1l0,0h-24.5l15.8-36.4l1-1c12.9-12.9,33.7-12.9,46.6,0C903.9-322.1,903.2-301.9,891-288.4z"/>
	</g>
</g>
<path id="Caminho_665" class="st0" d="M1815,190.7c2.8,19.8-8.3,35.5-21.4,46.7c-41,35.4-103,42.5-163.8,41.3
	c-22-0.4-44.8-1.9-67.2-10.3c-45.7-17.2-85.1-65-91.1-110.8c-2.1-15.6-0.6-30.5,1.8-44.9c4.3-25.6,11.9-50.3,26.4-69.7
	c10.4-13.8,24-24.7,38.5-34.3c40.4-26.8,88.3-44.8,141.6-46.9c23.4-0.9,48.7,1.6,71.9,14.8s42.9,39.4,41.3,62.6
	c-0.7,9.6-4.8,17.7-8.9,25.6c-6.1,11.6-12.3,23.3-14.6,36.9c-2.4,14.1-0.9,35.1,13.7,46.3C1798.7,160.2,1812.2,170.9,1815,190.7z"/>
<g id="Grupo_155" transform="translate(0)">
	<path id="Caminho_644" class="st0" d="M-382.7,678.4l-83.9-104.8c-3.8,3.5-8.5,5.9-13.6,6.9c-15.8,3.1-31.2-7.7-34.5-24.1
		c-2.3-11.6,2.1-22.9,10.5-29.6l-28.6-35.7l-163,139.3l150,187.5L-382.7,678.4z"/>
	<path id="Caminho_645" class="st2" d="M-448.9,771.7l-89.8-168.9L-448.9,771.7z"/>
	<path id="Caminho_874" class="st3" d="M-273.3,818.6"/>
	<circle id="Elipse_157" class="st4" cx="-426" cy="515.7" r="6.4"/>
	<circle id="Elipse_159" class="st4" cx="-621.4" cy="531.8" r="6.4"/>
	<circle id="Elipse_160" class="st0" cx="-487" cy="551.7" r="23.7"/>
</g>
<g>
	<g>
		
			<linearGradient id="SVGID_2_" gradientUnits="userSpaceOnUse" x1="-803.9" y1="-99.0426" x2="-571.3" y2="-331.6426" gradientTransform="matrix(1 0 0 1 0 858.0426)">
			<stop  offset="0" style="stop-color:#88CEC9"/>
			<stop  offset="1" style="stop-color:#21AEA5"/>
		</linearGradient>
		<polygon class="st5" points="-747.3,815.6 -684.2,661 -720,661 -651,492.9 -604.8,492.9 -604.8,518.1 -634.2,518.1 -682.6,635.8 
			-646.8,635.8 -671.2,695.9 -588,605.5 -636.3,605.5 -587.6,554.3 -569.5,571.9 -577.5,580.3 -530.4,580.3 		"/>
	</g>
</g>
<g>
	<g>
		
			<linearGradient id="SVGID_3_" gradientUnits="userSpaceOnUse" x1="-2756.3352" y1="-1315.4713" x2="-2632.7905" y2="-1529.457" gradientTransform="matrix(-1 0 0 1 -1131.9417 1557.1333)">
			<stop  offset="0.2151" style="stop-color:#FFBB86"/>
			<stop  offset="1" style="stop-color:#FFCA7A"/>
		</linearGradient>
		<path class="st6" d="M1431.9,176.1h8.9v24.3c0,6.3,5.1,11.4,11.4,11.4H1673c6.3,0,11.4-5.1,11.4-11.4V68.9
			c0-6.3-5.1-11.4-11.4-11.4h-220.8c-6.3,0-11.4,5.1-11.4,11.4v23.3h-8.9c-6.3,0-11.4,5.1-11.4,11.4v61.1
			C1420.6,171,1425.6,176.1,1431.9,176.1z M1463.6,80.3h198v108.8h-198v-24.3v-61.1V80.3L1463.6,80.3z"/>
		
			<linearGradient id="SVGID_4_" gradientUnits="userSpaceOnUse" x1="-2788.3655" y1="-1381.7065" x2="-2741.3604" y2="-1463.1218" gradientTransform="matrix(-1 0 0 1 -1131.9417 1557.1333)">
			<stop  offset="0.2151" style="stop-color:#FFBB86"/>
			<stop  offset="1" style="stop-color:#FFCA7A"/>
		</linearGradient>
		<rect x="1615.1" y="90.7" class="st7" width="35.6" height="88"/>
	</g>
</g>
<line id="Linha_19" class="st4" x1="1733.8" y1="282.9" x2="1733.8" y2="101.1"/>
<circle id="Elipse_222" class="st2" cx="1733.8" cy="101.1" r="25.7"/>
<path id="Caminho_849" class="st2" d="M1733.8,213.1c0,0-3.7-79-79-69.8"/>
<g id="Grupo_154" transform="translate(-2066.433 1240)">
	<g id="Grupo_152" transform="translate(1904 -1239.999)">
		<line id="Linha_17" class="st8" x1="999" y1="-108.7" x2="1272" y2="-108.7"/>
		<path id="Caminho_850" class="st9" d="M1153.4-205.4c-27.3,41.7-19.8,94.8-19.8,94.8s51.7-14.6,79-56.3s19.8-94.8,19.8-94.8
			S1180.7-247.1,1153.4-205.4z"/>
		<path id="Caminho_851" class="st10" d="M1133.4-111c0,0-0.7-0.1-1.9-0.4c-1-0.2-2.3-0.5-4-0.9c-14.7-3.4-53.6-15.1-79.1-45.7
			c-31.9-38.4-30.5-91.9-30.5-91.9s48.7,7.9,80.9,42.3c1.4,1.5,2.7,3,4.1,4.6c27.7,33.4,30.3,78.3,30.5,89.4
			C1133.5-111.9,1133.4-111,1133.4-111z"/>
		<path id="Caminho_852" class="st8" d="M1113.8-205.4c27.3,41.7,19.8,94.8,19.8,94.8s-51.7-14.6-79-56.3s-19.8-94.8-19.8-94.8
			S1086.5-247.1,1113.8-205.4z"/>
		<path id="Caminho_853" class="st11" d="M1133.4-113.6c-0.7,0.9-1.4,1.6-1.9,2.2c-1.2,1.3-1.8,2-1.8,2s-0.8-1-2.1-2.9
			c-7.4-10.2-31.1-46.7-29.2-88.8c0.1-2.2,0.3-4.4,0.5-6.5c1.4,1.5,2.7,3,4.1,4.6C1130.7-169.6,1133.2-124.7,1133.4-113.6z"/>
		<path id="Caminho_854" class="st10" d="M1173.9-198c-2.2,49.8-39.2,88.6-39.2,88.6s-33.5-41.9-31.4-91.6s39.2-88.6,39.2-88.6
			S1176-247.8,1173.9-198z"/>
		<line id="Linha_20" class="st8" x1="1134.7" y1="-110.8" x2="1142.8" y2="-287.6"/>
	</g>
</g>
<g>
	<ellipse id="Elipse_233" class="st2" cx="222.4" cy="290.2" rx="137" ry="17.2"/>
	<rect id="Retângulo_276" x="28.3" y="275.7" class="st9" width="383.3" height="0.9"/>
	<path id="Caminho_888" class="st2" d="M360.7,276l-42-62.4c0,0,63.6,22.3,56.4,62.4L360.7,276L360.7,276z"/>
	<path id="Caminho_889" class="st12" d="M362.4,276l42-62.4c0,0-63.6,22.3-56.4,62.4L362.4,276L362.4,276z"/>
	<path id="Caminho_913" class="st9" d="M40.5,275.5h-1c0.4-11.7,1.7-23.5,3.7-35c4.6-24.8,12.2-41.1,22.6-48.4l0.7,0.8
		C42.1,210,40.5,274.9,40.5,275.5z"/>
	<path id="Caminho_914" class="st9" d="M53.7,275.2h-1c0-1.2,0.7-28.8,11.5-36.4l0.7,0.8C54.5,247,53.7,275,53.7,275.2z"/>
	<circle id="Elipse_239" class="st12" cx="72.5" cy="187.7" r="5.3"/>
	<circle id="Elipse_240" class="st12" cx="69.8" cy="233.2" r="5.3"/>
	<path id="Caminho_915" class="st9" d="M51.3,196.2c1,6.3-1.6,12-1.6,12s-4.2-4.7-5.2-11c-1-6.3,1.6-12,1.6-12
		S50.3,189.8,51.3,196.2z"/>
	<path id="Caminho_916" class="st9" d="M68.6,211.5c-6.1,2-12.1,0.6-12.1,0.6s3.8-4.9,9.9-7c6.1-2,12.1-0.6,12.1-0.6
		S74.7,209.5,68.6,211.5z"/>
	<path id="Caminho_917" class="st9" d="M68.8,251.9c-2.8,0.8-5.7,1-8.5,0.4c3.6-4.7,9.7-6.7,15.5-5.3
		C73.9,249.2,71.5,250.8,68.8,251.9z"/>
</g>
<linearGradient id="SVGID_5_" gradientUnits="userSpaceOnUse" x1="294.921" y1="162.5305" x2="83.9008" y2="284.363" gradientTransform="matrix(1 0 0 -1 0 364)">
	<stop  offset="0" style="stop-color:#9271FF"/>
	<stop  offset="0.4634" style="stop-color:#7E6AFF"/>
	<stop  offset="1" style="stop-color:#6C63FF"/>
</linearGradient>
<path class="st13" d="M312.3,69.5c-3.6-2-8.6-3.9-15-5.6c-11.5-3.1-27.6-5.5-46.5-7c-5.1-0.4-9.6,3.4-10,8.5
	c-0.4,5.1,3.4,9.6,8.5,10c24.4,2,38.9,5,46.8,7.5c-4.8,1.5-12.4,3.4-24.2,5c-19.3,2.8-43.9,4.3-69.2,4.3s-49.9-1.5-69.2-4.3
	c-11.7-1.7-19.3-3.4-24.1-5c4.8-1.5,12.4-3.4,24.1-5c19.3-2.8,43.9-4.3,69.2-4.3c5.1,0,9.3-4.2,9.3-9.3c0-5.1-4.2-9.3-9.3-9.3
	c-29.7,0-57.7,2-78.9,5.6c-10.7,1.8-19.2,4-25.3,6.4c-9.6,3.8-14.4,9.1-14.4,15.8c0,6.7,4.8,12,14.4,15.8c5.3,2.1,12.4,4,21.2,5.7
	c-6.9,3.5-12,8.5-12,15.6c0,12.5,15.6,18.2,28.9,21.3c-7,4.3-10.5,9.5-10.5,15.7c0,9.8,8.8,17.2,26,22.1c0.3,0.1,0.7,0.2,0.9,0.3
	c-6.3,5-7.9,10.4-7.9,14.8c0,6.5,3.7,15.6,21.4,21.9c1.1,0.4,2.2,0.7,3.4,1.1c-4.9,5.2-5.9,10.5-5.9,13.9c0,5,2.1,14.4,16.4,21.3
	c2,0.9,4.2,1.9,6.4,2.6c-2.1,3.4-3.4,7.3-3.4,11.4c0,14.7,15.6,26.2,35.4,26.2c13.5,0,25.5-5.4,31.6-14.1c2.9-4.2,1.9-10-2.3-12.9
	c-4.2-2.9-10-1.9-12.9,2.3c-2,2.9-7.9,6.1-16.3,6.1c-10.4,0-16.9-4.9-16.9-7.6c0-2.2,4.8-6.7,14.2-7.5c0.7-0.1,1.3-0.2,2-0.4
	c14.9-1.2,27.8-6.1,34.6-13.6c3.4-3.7,3.3-9.6-0.5-13.1c-3.7-3.4-9.6-3.3-13.1,0.5c-3.5,3.8-13.8,7.9-27.9,7.9c-8.3,0-16-1.4-21.9-4
	c-5.1-2.2-6.7-4.5-6.9-5c0.2-0.6,1.8-2.8,6.9-5c5.9-2.6,13.6-4,21.9-4c0.6,0,1-0.1,1.5-0.1c20.2-0.8,37.8-5.6,46.8-12.9
	c4-3.2,4.7-9,1.5-13c-3.2-4-9-4.7-13-1.5c-5.4,4.3-20.8,8.9-41.8,8.9c-11.3,0-22.2-1.4-30.6-3.9c-6.6-2-10.1-4.1-11.5-5.4
	c1.5-1.3,4.9-3.4,11.5-5.4c8.5-2.5,19.4-3.9,30.6-3.9c0.3,0,0.6,0,0.8,0c27.7-0.5,52-5,64.1-12.3c4.4-2.6,5.9-8.3,3.3-12.7
	s-8.3-5.9-12.7-3.3c-8.1,4.8-29.5,9.7-59,9.7c-15.6,0-29.9-1.4-41.3-4c-7.9-1.9-12.6-3.8-15.1-5.3c2.4-1.5,7.1-3.4,15.1-5.3
	c11.4-2.6,25.7-4,41.3-4c30.5,0,71.6-3.8,87.2-14.7c4.2-2.9,5.2-8.7,2.3-12.9c-2.9-4.2-8.7-5.2-12.9-2.3
	c-7.9,5.5-37.4,11.4-76.6,11.4c-19.5,0-38.4-1.5-53.2-4.1c-9.9-1.8-15.8-3.6-19.4-5.1c3.5-1.5,9.5-3.4,19.4-5.1
	c14.8-2.7,33.7-4.1,53.2-4.1c29.7,0,57.7-2,78.9-5.6c10.7-1.8,19.2-4,25.3-6.4c9.6-3.8,14.4-9.1,14.4-15.8
	C321.5,79.2,319.9,73.9,312.3,69.5z"/>
<linearGradient id="SVGID_6_" gradientUnits="userSpaceOnUse" x1="875.5405" y1="-200.4904" x2="1136.0404" y2="-200.4904" gradientTransform="matrix(1 0 0 1 0 858.0426)">
	<stop  offset="0" style="stop-color:#00F2FE"/>
	<stop  offset="2.080000e-02" style="stop-color:#03EFFE"/>
	<stop  offset="0.2931" style="stop-color:#24D2FE"/>
	<stop  offset="0.5538" style="stop-color:#3CBDFE"/>
	<stop  offset="0.7956" style="stop-color:#4AB0FE"/>
	<stop  offset="1" style="stop-color:#4FACFE"/>
</linearGradient>
<path class="st14" d="M1006,731.7c4.9,4.3,11.2,7.2,18.4,7.2c11.6,0,22.1-7,26.6-17.7c0.2-0.5,0.7-1.1,1.4-1.1h0.4
	c7.7,0,15-3,20.5-8.4c5.7-5.5,8.8-12.8,8.8-20.5c0-5.1-1.6-10.2-4.5-14.9c5.9-6,9.1-13.9,9.1-22.2c0-7.6-2.7-15-7.7-20.7
	c-3.2-3.8-7.3-6.7-11.8-8.5c0.1-0.9,0.2-1.9,0.2-2.9c0-6.1-2.4-11.9-6.7-16.3c-3.8-3.8-8.9-6.3-14.3-7c-2-12.2-12.5-21.6-25.2-21.6
	c-5.6,0-11,1.8-15.3,5c-4.4-3.3-9.7-5-15.3-5c-12.6,0-23.1,9.3-25.1,21.6c-5.2,0.7-10,3-13.8,6.8c-4.4,4.4-6.8,10.3-6.8,16.5
	c0,0.9,0.1,1.8,0.1,2.6c-4.7,1.9-8.9,4.9-12.3,8.7c-5,5.8-7.7,13.1-7.7,20.7c0,8.7,3.5,16.6,9.1,22.3c-2.6,4.4-4,9.4-4,14.7
	c0,15.9,12.9,28.9,28.8,28.9h0.5c0.5,0,1,0.3,1.2,0.8c4.5,11,14.9,18,26.7,18C995.7,738.9,1001.7,735.8,1006,731.7z M979.3,713.2
	c-3.3-8.2-11.2-13.5-20-13.5h-0.5c-4.6,0-8.4-3.8-8.4-8.5c0-1.9,0.6-3.7,1.7-5.1c0.1-0.1,0.1-0.2,0.2-0.3c1.4,0.2,2.8,0.3,4.2,0.3
	c5.6,0,10.2-4.6,10.2-10.2c0-5.6-4.6-10.2-10.2-10.2c-6.2,0-11.2-5.2-11.2-11.5c0-5.5,4.1-10.4,9.6-11.2c1-0.2,1.9-0.5,2.8-0.9
	c0.4,0.1,0.9,0.1,1.3,0.1c2.8,0,5.6-1.2,7.6-3.4c3.7-4.2,3.3-10.6-0.9-14.4c-0.4-0.3-0.6-1.3-0.6-2.4c0-0.8,0.3-1.5,0.8-2
	c0.4-0.4,1.2-1,2.6-1h1.1c8.7,0,15.7-7,15.7-15.7c0-3,2.4-5.6,5.2-5.6c2.9,0,5.2,2.1,5.2,4.9V675c0,5.6,4.6,10.2,10.2,10.2
	c5.6,0,10.2-4.6,10.2-10.2v-72.6c0-2.8,2.2-4.9,5.2-4.9c2.8,0,5.2,2.5,5.2,5.4c0,8.8,7.1,16,15.7,16h1.2c1.1,0,2.2,0.4,2.9,1.2
	c0.6,0.6,0.8,1.2,0.8,1.8c0,1.2-0.7,2.1-1.1,2.4c-4.2,3.7-4.6,10.1-0.9,14.4c2.3,2.6,5.7,3.8,8.9,3.4c0.9,0.4,1.8,0.7,2.8,0.9
	c5.5,0.8,9.6,5.7,9.6,11.2c0,6.3-5.4,11.5-11.7,11.5c-5.6,0-10.2,4.6-10.2,10.2c0,5.6,4.6,10.2,10.2,10.2c1.6,0,3.2-0.1,4.7-0.3
	c0.1,0.1,0.2,0.3,0.3,0.4c1.4,1.8,2.2,3.6,2.2,5.1c0,4.6-4.2,8.5-9,8.5h-0.4c-8.8,0-16.7,5.4-20.1,13.6c-1.3,3.2-4.4,5.3-7.8,5.3
	c-4.5,0-7.6-4.7-8.7-7.4c-0.7-3-2.8-5.7-5.8-7c-1.3-0.6-2.7-0.8-4-0.9c-0.2,0-0.5,0-0.7,0c-0.1,0-0.1,0-0.2,0
	c-0.7,0.1-1.4,0.2-2.2,0.4c-3.3,1-5.7,3.5-6.7,6.6c-3.6,7.9-5.7,8.3-8.9,8.3C983.7,718.6,980.6,716.5,979.3,713.2z M1109.1,616.7
	c-2.4-4.6-0.8-10.3,3.6-13.1l0.4-0.2c4.9-3.1,11.5-1.3,14.1,3.9c0.1,0.2,0.2,0.4,0.3,0.5c2.6,5.2,0.2,11.5-5.2,13.7l-0.4,0.2
	c-4.8,2-10.3-0.2-12.7-4.8C1109.2,616.8,1109.1,616.8,1109.1,616.7z M1087.7,582.9c-3.8-3.6-4.2-9.5-0.9-13.5l0.3-0.3
	c3.6-4.5,10.4-5,14.6-1c0.1,0.1,0.3,0.3,0.4,0.4c4.2,4,4,10.8-0.3,14.6l-0.3,0.3c-3.9,3.5-9.8,3.3-13.5-0.3
	C1087.8,582.9,1087.8,582.9,1087.7,582.9z M1049.6,546.6l0.1-0.4c1.9-5.5,8.1-8.2,13.4-5.8c0.2,0.1,0.4,0.2,0.5,0.2
	c5.3,2.4,7.4,8.8,4.5,13.9l-0.2,0.4c-2.5,4.5-8.1,6.3-12.9,4.2c-0.1,0-0.1-0.1-0.2-0.1C1050.2,556.9,1047.8,551.5,1049.6,546.6z
	 M900.4,698.8c2.4,4.6,0.8,10.3-3.6,13.1l-0.4,0.2c-4.9,3.1-11.5,1.3-14.1-3.9c-0.1-0.2-0.2-0.4-0.3-0.5c-2.6-5.2-0.2-11.5,5.2-13.7
	l0.4-0.2c4.8-2,10.3,0.2,12.7,4.8C900.3,698.7,900.3,698.8,900.4,698.8z M921.7,732.7c3.8,3.6,4.2,9.5,0.9,13.5l-0.3,0.3
	c-3.6,4.5-10.4,5-14.6,1c-0.1-0.1-0.3-0.3-0.4-0.4c-4.2-4-4-10.8,0.3-14.6l0.3-0.3c3.9-3.5,9.8-3.3,13.5,0.3
	C921.6,732.6,921.7,732.7,921.7,732.7z M959.9,769l-0.1,0.4c-1.9,5.5-8.1,8.2-13.4,5.8c-0.2-0.1-0.4-0.2-0.5-0.2
	c-5.3-2.4-7.4-8.8-4.5-13.9l0.2-0.4c2.5-4.5,8.1-6.3,12.9-4.2c0.1,0,0.1,0.1,0.2,0.1C959.3,758.7,961.6,764.1,959.9,769z
	 M885.7,667.7c-5.6,0-10.2-4.6-10.2-10.2c0-34.8,13.5-67.5,38.1-92.1c24.6-24.6,57.3-38.1,92.1-38.1c3.7,0,7.4,0.2,11.1,0.5
	c5.9,0.5,10.1,6,9.1,11.8c-0.9,5.2-5.6,8.9-10.9,8.4c-3.1-0.3-6.2-0.4-9.3-0.4c-60.6,0-109.9,49.3-109.9,109.9
	C895.9,663.1,891.3,667.7,885.7,667.7z M1136,657.5c0,34.8-13.4,67.5-37.9,92.1c-24.5,24.6-57.1,38.2-91.9,38.2
	c-3.7,0-7.4-0.2-11.1-0.5c-5.9-0.5-10.1-6-9.1-11.8c0.9-5.2,5.6-8.9,10.9-8.4c3.1,0.3,6.2,0.4,9.3,0.4
	c60.3,0,109.4-49.3,109.4-109.9c0-5.6,4.6-10.2,10.2-10.2S1136,651.9,1136,657.5z"/>
<path class="st0" d="M289.2,681.5c1.3,0,2.6-0.5,3.7-1.4l0,0c2.5-2.1,2.8-5.9,0.7-8.4s-5.7-2.9-8.2-0.8c-2.5,2.1-2.8,5.9-0.7,8.4
	C285.9,680.8,287.6,681.5,289.2,681.5z"/>
</svg>
