<svg xmlns="http://www.w3.org/2000/svg" viewBox="0 0 432.89 112"><title>logo-strides</title><g id="Camada_2" data-name="Camada 2"><g id="Camada_1-2" data-name="Camada 1"><path d="M171.32,43.2A7.18,7.18,0,0,0,168.61,38q-2.4-1.87-6.82-1.88a13.72,13.72,0,0,0-4.89.76,6.4,6.4,0,0,0-2.93,2.1,5.13,5.13,0,0,0-1,3,4.41,4.41,0,0,0,.57,2.48,5.73,5.73,0,0,0,1.83,1.88,13.24,13.24,0,0,0,2.92,1.42,32.69,32.69,0,0,0,3.84,1.07L167.5,50a38.12,38.12,0,0,1,8.2,2.68,22.47,22.47,0,0,1,6,4,15.49,15.49,0,0,1,3.68,5.35,17.84,17.84,0,0,1,1.29,6.78,17.45,17.45,0,0,1-3,10.17,18.53,18.53,0,0,1-8.5,6.5,35.32,35.32,0,0,1-13.36,2.26,36.34,36.34,0,0,1-13.68-2.35A19.28,19.28,0,0,1,139,78.29q-3.24-4.8-3.33-12.13h14.47a9.43,9.43,0,0,0,1.62,5,9,9,0,0,0,4,3.06,15.3,15.3,0,0,0,5.84,1,14.57,14.57,0,0,0,5.21-.82,7.56,7.56,0,0,0,3.32-2.29,5.44,5.44,0,0,0,1.19-3.36,4.72,4.72,0,0,0-1.1-3,8.66,8.66,0,0,0-3.29-2.2,35.53,35.53,0,0,0-5.63-1.72l-6.54-1.53q-8.12-1.86-12.79-6T137.33,43a16.69,16.69,0,0,1,3.11-10.17,20.76,20.76,0,0,1,8.7-6.81,31.21,31.21,0,0,1,12.68-2.44,30.08,30.08,0,0,1,12.63,2.46,19.57,19.57,0,0,1,8.32,6.88,18.46,18.46,0,0,1,3,10.27Z" style="fill:#1d2b36"/><path d="M219.93,40.08v11H190.34v-11ZM196.54,28.84h14.93v43.4a4.79,4.79,0,0,0,.44,2.21,2.51,2.51,0,0,0,1.3,1.19,5.26,5.26,0,0,0,2,.36,10.71,10.71,0,0,0,1.81-.17c.65-.11,1.13-.21,1.46-.29l2.26,10.78c-.72.2-1.72.46-3,.76a25,25,0,0,1-4.63.58,21.81,21.81,0,0,1-9-1.23,11.47,11.47,0,0,1-5.71-4.63,14.27,14.27,0,0,1-1.91-7.91Z" style="fill:#1d2b36"/><path d="M226.7,87V40.08h14.51v8.55h.49a12.81,12.81,0,0,1,4.18-6.92,10.68,10.68,0,0,1,6.75-2.27,17.46,17.46,0,0,1,2.14.14,13.52,13.52,0,0,1,2,.41V53a13.87,13.87,0,0,0-2.8-.58,25.85,25.85,0,0,0-3.07-.22,9.76,9.76,0,0,0-4.78,1.18,8.58,8.58,0,0,0-3.33,3.27,9.67,9.67,0,0,0-1.2,4.9V87Z" style="fill:#1d2b36"/><path d="M269.58,34.61a7.71,7.71,0,0,1-5.44-2.09,6.75,6.75,0,0,1,0-10.08,8.06,8.06,0,0,1,10.83,0,6.79,6.79,0,0,1,0,10.08A7.62,7.62,0,0,1,269.58,34.61ZM262.06,87V40.08H277V87Z" style="fill:#1d2b36"/><path d="M302.74,87.66A17.23,17.23,0,0,1,293.3,85a18.55,18.55,0,0,1-6.78-8.06A31.19,31.19,0,0,1,284,63.57q0-8.28,2.62-13.62A18.29,18.29,0,0,1,293.5,42a17.49,17.49,0,0,1,9.18-2.57A14.36,14.36,0,0,1,309,40.74,13.3,13.3,0,0,1,313.34,44a15.55,15.55,0,0,1,2.59,4.12h.31V24.44h14.93V87H316.39v-7.6h-.46a14.7,14.7,0,0,1-2.69,4.06,12.94,12.94,0,0,1-4.35,3A15.1,15.1,0,0,1,302.74,87.66ZM307.93,76a7.18,7.18,0,0,0,4.64-1.55,9.65,9.65,0,0,0,3-4.35,18.8,18.8,0,0,0,1-6.59,19.25,19.25,0,0,0-1-6.63,9.32,9.32,0,0,0-3-4.28,7.46,7.46,0,0,0-4.66-1.49,7.36,7.36,0,0,0-4.7,1.52A9.32,9.32,0,0,0,300.31,57a19.58,19.58,0,0,0-1,6.57,19.56,19.56,0,0,0,1,6.59,9.59,9.59,0,0,0,2.92,4.35A7.22,7.22,0,0,0,307.93,76Z" style="fill:#1d2b36"/><path d="M361.7,87.88A26.08,26.08,0,0,1,349,85a19.78,19.78,0,0,1-8.19-8.34A27.35,27.35,0,0,1,338,63.72,26.82,26.82,0,0,1,340.85,51a20.76,20.76,0,0,1,8.09-8.49,24,24,0,0,1,12.31-3A25.86,25.86,0,0,1,370.41,41a19.7,19.7,0,0,1,7.18,4.61,21.1,21.1,0,0,1,4.7,7.53A29,29,0,0,1,384,63.41v3.73H343.2V58.47h26.87a8.45,8.45,0,0,0-1.13-4.25,7.82,7.82,0,0,0-3-2.92,9.61,9.61,0,0,0-8.87.07,8.45,8.45,0,0,0-4.36,7.34v8.83a10.59,10.59,0,0,0,1.13,5A8.05,8.05,0,0,0,357,75.9a9.75,9.75,0,0,0,5,1.19,11.34,11.34,0,0,0,3.6-.54,7.75,7.75,0,0,0,2.78-1.62,6.59,6.59,0,0,0,1.74-2.63l13.72.4a17,17,0,0,1-3.74,8A19,19,0,0,1,372.52,86,28.92,28.92,0,0,1,361.7,87.88Z" style="fill:#1d2b36"/><path d="M431.73,54.4,418,54.77a5.16,5.16,0,0,0-1.16-2.61,6.54,6.54,0,0,0-2.45-1.8,9.75,9.75,0,0,0-7.91.38,3.06,3.06,0,0,0-1.79,2.81,3,3,0,0,0,1.11,2.38,9.39,9.39,0,0,0,4.11,1.62l9,1.71q7,1.35,10.46,4.46A10.68,10.68,0,0,1,432.89,72a13.24,13.24,0,0,1-2.86,8.4,18.34,18.34,0,0,1-7.71,5.55,29.77,29.77,0,0,1-11.18,2q-10,0-15.83-4.14a15.33,15.33,0,0,1-6.61-11.1l14.75-.37A5.75,5.75,0,0,0,406,76.18a9.41,9.41,0,0,0,5.22,1.34,9,9,0,0,0,4.68-1.07,3.28,3.28,0,0,0,1.83-2.84,3.05,3.05,0,0,0-1.41-2.55,11.42,11.42,0,0,0-4.3-1.51L403.81,68q-7.05-1.27-10.5-4.74a11.93,11.93,0,0,1-3.42-8.85,12.78,12.78,0,0,1,2.5-8,15.76,15.76,0,0,1,7.21-5.12,31.06,31.06,0,0,1,11-1.77q9.54,0,15,4A14.37,14.37,0,0,1,431.73,54.4Z" style="fill:#1d2b36"/><path d="M21,0H44.21a6.42,6.42,0,0,1,5.58,3.24L79.67,55.39a1.21,1.21,0,0,1,0,1.22L50.29,107.9a8.17,8.17,0,0,1-7.08,4.1H21L53.54,55.85Z" style="fill:#245fff"/><path d="M63.9,13H81.52a4.9,4.9,0,0,1,4.23,2.45L108.39,55a1,1,0,0,1,0,1L86.12,94.89A6.18,6.18,0,0,1,80.76,98H63.9L88.59,55.39Z" style="fill:#245fff"/><path d="M0,13H17.62a4.89,4.89,0,0,1,4.23,2.45L44.5,55a1.07,1.07,0,0,1,0,1L22.23,94.89A6.19,6.19,0,0,1,16.86,98H0L24.7,55.39Z" style="fill:#245fff"/></g></g></svg>