<?xml version="1.0" encoding="utf-8"?>
<!-- Generator: Adobe Illustrator 23.0.1, SVG Export Plug-In . SVG Version: 6.00 Build 0)  -->
<svg version="1.1" id="Camada_1" xmlns="http://www.w3.org/2000/svg" xmlns:xlink="http://www.w3.org/1999/xlink" x="0px" y="0px"
	 viewBox="0 0 1047 825" style="enable-background:new 0 0 1047 825;" xml:space="preserve">
<style type="text/css">
	.st0{fill:none;}
	.st1{fill:#F2F2F2;}
	.st2{fill:#3F3D56;}
	.st3{fill:#C60052;}
	.st4{fill:none;stroke:#2F2E41;stroke-width:2;stroke-miterlimit:10;}
	.st5{fill:#2F2E41;}
	.st6{fill:#FFFFFF;}
	.st7{opacity:0.2;enable-background:new    ;}
	.st8{fill:none;stroke:#3F3D56;stroke-width:2;stroke-miterlimit:10;}
	.st9{fill:#2DA78C;}
	.st10{fill:#3F3D56;stroke:#3F3D56;stroke-width:2;stroke-miterlimit:10;}
	.st11{fill:url(#Caminho_654_2_);}
	.st12{fill:url(#Caminho_655_2_);}
	.st13{fill:url(#Caminho_656_2_);}
	.st14{fill:url(#Elipse_162_1_);}
	.st15{fill:url(#Caminho_657_2_);}
	.st16{fill:url(#Caminho_660_2_);}
	.st17{fill:url(#Elipse_166_1_);}
</style>
<rect id="Rectangle_5-2" x="395" y="1146" class="st0" width="499" height="462.7"/>
<path id="Caminho_644" class="st1" d="M751.8,464.9L559.1,224.2c-8.7,8-19.5,13.4-31.2,15.7c-36.3,7.1-71.7-17.6-79.1-55.3
	c-5.2-26.6,4.9-52.6,24.1-68.1l-65.7-82.1L33,354.3l344.5,430.5L751.8,464.9z"/>
<path id="Caminho_645" class="st2" d="M344.8,270l-160.5,32.8c-16.8,3.4-27.6,19.8-24.2,36.6c0.4,2.1,1.1,4.2,2,6.2l183,417.6
	c8.3,19,29.5,28.7,49.3,22.6l185-56.9c18.4-5.7,28.7-25.2,23-43.5c-0.7-2.1-1.5-4.2-2.5-6.1l-206.3-388
	C383.4,274.6,363.9,266.1,344.8,270z"/>
<path id="Caminho_646" class="st3" d="M184.1,306.8l26.4-5.2l0,0c3.6,7.6,11.9,11.8,20.2,10.3l95.4-17.1c3.6-0.7,6.1-4.1,5.4-7.8
	c-0.1-0.3-0.1-0.6-0.2-0.9l-2.6-7.8l26.3-5.2c11.2-2.2,22.5,3.1,27.9,13.1l213.7,393.2c6.8,12.6,2.2,28.3-10.4,35.2
	c-1.5,0.8-3.2,1.5-4.8,2L399.3,772c-15.7,4.8-32.5-2.9-39.2-17.8l-189.4-421c-4.3-9.6,0-20.8,9.5-25.1
	C181.3,307.6,182.7,307.1,184.1,306.8z"/>
<line id="Linha_10" class="st4" x1="297.7" y1="289.5" x2="258.7" y2="297.5"/>
<ellipse id="Elipse_156" class="st5" cx="248.7" cy="299" rx="4" ry="3.5"/>
<path id="Caminho_647" class="st6" d="M274.7,336.5l172,369l239-65v-8l-186-347l-221,48l-1,0.8L274.7,336.5z"/>
<path id="Caminho_648" class="st7" d="M274.7,336.5l172,369l239-65v-8l-238,67L277.6,334.3L274.7,336.5z"/>
<line id="Linha_11" class="st8" x1="581.7" y1="492.5" x2="405.7" y2="537.5"/>
<line id="Linha_12" class="st8" x1="591.7" y1="511.5" x2="414.7" y2="557.5"/>
<line id="Linha_13" class="st8" x1="568.7" y1="537.5" x2="457.7" y2="567.5"/>
<path id="Caminho_649" class="st9" d="M467.7,622.5l16.2,35.3l0.8,1.7l2.8-0.7l134.2-34.3v-5l-18-34l-133,36l-1.2,0.4L467.7,622.5z"
	/>
<path id="Caminho_650" class="st7" d="M467.7,622.5l16.2,35.3l0.8,1.7l2.8-0.7l134.2-34.3v-5l-135,36l-17.2-33.6L467.7,622.5z"/>
<line id="Linha_14" class="st8" x1="115.2" y1="787" x2="1003.2" y2="787"/>
<path id="Caminho_651" class="st10" d="M479.6,413.4c-11.5-29.9-43.1-47.1-68.5-39c-23.3,7.4-32.8,33.7-23,59.3s36.4,43.8,61.3,40.6
	C476.4,470.7,491,443.3,479.6,413.4z"/>
<path id="Caminho_652" class="st7" d="M479.6,413.4c-11.5-29.9-43.1-47.1-68.5-39c-23.3,7.4-32.8,33.7-23,59.3s36.4,43.8,61.3,40.6
	C476.4,470.7,491,443.3,479.6,413.4z"/>
<path id="Caminho_653_1_" class="st10" d="M484.6,408.4c-11.5-29.9-43.1-47.1-68.5-39c-23.3,7.4-32.8,33.7-23,59.3
	s36.4,43.8,61.3,40.6C481.4,465.7,496,438.3,484.6,408.4z"/>
<circle id="Elipse_157_1_" class="st8" cx="652.4" cy="91.3" r="14.8"/>
<circle id="Elipse_158" class="st8" cx="847.4" cy="520.3" r="14.8"/>
<circle id="Elipse_159" class="st8" cx="203.7" cy="128.3" r="14.8"/>
<circle id="Elipse_160" class="st1" cx="512.4" cy="174.1" r="54.3"/>
<circle id="Elipse_161" class="st5" cx="726" cy="269.3" r="36.8"/>
<linearGradient id="Caminho_654_2_" gradientUnits="userSpaceOnUse" x1="-104.2902" y1="-10.4118" x2="-104.2902" y2="-9.4118" gradientTransform="matrix(24 0 0 34 3263.6641 1080.4648)">
	<stop  offset="0" style="stop-color:#EEA3A0"/>
	<stop  offset="1" style="stop-color:#FACBBB"/>
</linearGradient>
<path id="Caminho_654_1_" class="st11" d="M765.7,730.5l7,30h-17l-7-34L765.7,730.5z"/>
<linearGradient id="Caminho_655_2_" gradientUnits="userSpaceOnUse" x1="-105.0273" y1="-11.1332" x2="-105.0273" y2="-10.1332" gradientTransform="matrix(17 0 0 30 2460.6641 1064.4648)">
	<stop  offset="0" style="stop-color:#EEA3A0"/>
	<stop  offset="1" style="stop-color:#FACBBB"/>
</linearGradient>
<path id="Caminho_655_1_" class="st12" d="M683.7,730.5v28l-17,2v-30H683.7z"/>
<linearGradient id="Caminho_656_2_" gradientUnits="userSpaceOnUse" x1="-103.8019" y1="-6.9781" x2="-103.8019" y2="-5.9781" gradientTransform="matrix(33 0 0 93 4179.6641 1060.4609)">
	<stop  offset="0" style="stop-color:#EEA3A0"/>
	<stop  offset="1" style="stop-color:#FACBBB"/>
</linearGradient>
<path id="Caminho_656_1_" class="st13" d="M770.7,412.5c0,0-2,43-4,46s-20,46-20,46l-9-28c0,0,14-23,12-36s-0.7-29-0.7-29
	L770.7,412.5z"/>
<linearGradient id="Elipse_162_1_" gradientUnits="userSpaceOnUse" x1="-103.2672" y1="-8.2851" x2="-103.2672" y2="-7.2851" gradientTransform="matrix(56 0 0 56 6496.6641 716.4648)">
	<stop  offset="0" style="stop-color:#FACBBB"/>
	<stop  offset="1" style="stop-color:#EEA3A0"/>
</linearGradient>
<circle id="Elipse_162" class="st14" cx="713.7" cy="280.5" r="28"/>
<linearGradient id="Caminho_657_2_" gradientUnits="userSpaceOnUse" x1="-103.5553" y1="-8.7584" x2="-103.5553" y2="-7.7584" gradientTransform="matrix(40.7109 0 0 48.9531 4938.8862 712.2499)">
	<stop  offset="0" style="stop-color:#EEA3A0"/>
	<stop  offset="1" style="stop-color:#FACBBB"/>
</linearGradient>
<path id="Caminho_657_1_" class="st15" d="M736.7,283.5c0,0-1,40,6,46s-40,1-40,1s10-28,2-34S736.7,283.5,736.7,283.5z"/>
<path id="Caminho_658_1_" class="st5" d="M699.7,328.5c0,0,6-11,14-10s34,3,35,5s4,9,6,11s17,5,18,17s-36,85-36,85s5,17,4,21
	s5,16,4,21s15,35,7,74v63c0,0,27,109,19,117s-35,3-40,0s-26-154-26-154l-10-51l-1,112c0,0,2,94-5,97s-34,4-36-2
	c-1.6-4.7-9.2-129.2-12.5-183.8c-1.1-18.8,0.3-37.7,4.4-56.2c4.2-18.9,10.2-41.1,17.1-50.1c13-17,21-71,21-71l-17-31
	c0,0,10-10,16-10S699.7,328.5,699.7,328.5z"/>
<path id="Caminho_659" class="st5" d="M766.7,344.5l5.3,3.6c0,0,3.7,64.4,0.7,68.4s-23.9,2-25.4-1.5S766.7,344.5,766.7,344.5z"/>
<linearGradient id="Caminho_660_2_" gradientUnits="userSpaceOnUse" x1="-102.9648" y1="-6.3762" x2="-102.9648" y2="-5.3758" gradientTransform="matrix(92.5398 0 0 133.7624 10161.7881 1250.2345)">
	<stop  offset="0" style="stop-color:#EEA3A0"/>
	<stop  offset="1" style="stop-color:#FACBBB"/>
</linearGradient>
<path id="Caminho_660_1_" class="st16" d="M677.5,403c2.9,20.3,5.5,38.4-9.5,54.7c-15,16.6-32,31.2-50.5,43.8
	c-1.8,4.9-28.8,40.6-30.2,26.3s7.9-25.4,21.2-37.5s31.7-38.2,42.2-52.5s6.1-23.3,5.8-35.3S673.4,403.2,677.5,403z"/>
<path id="Caminho_661_1_" class="st5" d="M666.7,742.3c0,0-1,11.2-4,14.2s-11,7-10,18s7.5,11.5,7.5,11.5l-0.5-2.5l3,1l0.5,1.5h28
	c0,0,0.5-10.5-0.5-15.5s-1-29-4-28s-11,2-13,6S665.7,751.1,666.7,742.3z"/>
<path id="Caminho_662_1_" class="st5" d="M768.7,742.3c0,0,1,11.2,4,14.2s11,7,10,18s-7.5,11.5-7.5,11.5l0.5-2.5l-3,1l-0.5,1.5h-28
	c0,0-0.5-10.5,0.5-15.5s1-29,4-28s11,2,13,6S769.7,751.1,768.7,742.3z"/>
<path id="Caminho_663" class="st5" d="M679.7,339.5l-14,3c0,0,0,22-4,31s-11,30-8,31s31,15,33,7S693.7,339.5,679.7,339.5z"/>
<circle id="Elipse_163" class="st5" cx="765.8" cy="220.9" r="36.8"/>
<path id="Caminho_664" class="st5" d="M797.6,251.3c-16.5,11.9-39.5,8.2-51.4-8.3c-2.4-3.4-4.3-7.1-5.4-11.1
	c2.5,20.2,21,34.4,41.1,31.9c20.2-2.5,34.4-21,31.9-41.1c-0.3-2-0.7-4-1.2-5.9C814.2,230.3,808.5,243.5,797.6,251.3z"/>
<circle id="Elipse_164" class="st5" cx="735.8" cy="275.5" r="27"/>
<ellipse id="Elipse_165" class="st5" cx="713.1" cy="265.3" rx="23.9" ry="18.7"/>
<linearGradient id="Elipse_166_1_" gradientUnits="userSpaceOnUse" x1="-107.236" y1="-16.4542" x2="-107.236" y2="-15.4542" gradientTransform="matrix(9.08 0 0 16.064 1680.403 540.7875)">
	<stop  offset="0" style="stop-color:#FACBBB"/>
	<stop  offset="1" style="stop-color:#EEA3A0"/>
</linearGradient>
<ellipse id="Elipse_166" class="st17" cx="706.7" cy="284.5" rx="4.5" ry="8"/>
</svg>
