<?xml version="1.0" encoding="utf-8"?>
<!-- Generator: Adobe Illustrator 23.0.1, SVG Export Plug-In . SVG Version: 6.00 Build 0)  -->
<svg version="1.1" id="Camada_1" xmlns="http://www.w3.org/2000/svg" xmlns:xlink="http://www.w3.org/1999/xlink" x="0px" y="0px"
	 viewBox="0 0 1047 825" style="enable-background:new 0 0 1047 825;" xml:space="preserve">
<style type="text/css">
	.st0{fill:none;}
	.st1{fill:#F2F2F2;}
	.st2{fill:#C60052;}
	.st3{fill:url(#Caminho_666_1_);}
	.st4{fill:#2A9079;}
	.st5{opacity:0.1;enable-background:new    ;}
	.st6{fill:url(#Caminho_669_1_);}
	.st7{fill:url(#Caminho_671_1_);}
	.st8{fill:#2DA78C;}
	.st9{fill:#3F3D56;}
	.st10{opacity:0.1;}
	.st11{opacity:0.2;enable-background:new    ;}
	.st12{fill:url(#Caminho_699_1_);}
	.st13{fill:url(#Elipse_169_1_);}
	.st14{fill:url(#Caminho_706_1_);}
	.st15{fill:url(#Caminho_708_1_);}
	.st16{opacity:0.5;fill:#F7567C;enable-background:new    ;}
	.st17{opacity:0.3;fill:#F7567C;enable-background:new    ;}
	.st18{fill:#535461;}
	.st19{fill:#9D9CB5;}
	.st20{fill:#00A19B;}
	.st21{fill:#E4E4E4;stroke:#535461;stroke-width:2;stroke-miterlimit:10;}
	.st22{fill:#BDD8D7;stroke:#535461;stroke-width:2;stroke-miterlimit:10;}
	.st23{fill:#D4DFEC;}
</style>
<rect id="Rectangle_5-2" x="395" y="1146" class="st0" width="499" height="462.7"/>
<g id="Grupo_160" transform="translate(-2250.514 2873)">
	<g id="Grupo_159">
		<path id="Caminho_980" class="st1" d="M2600-2816.6c31-25.8,79.6-31.1,123.9-29c139,6.5,264.6,69.2,373.1,140.2
			c39.3,25.7,78,53.4,103.5,88.8c51.9,72,36.5,171.8-35.7,231.2c-24.6,20.2-54.3,35.7-85,49.4c-54.4,24.4-113,44-174.8,49.6
			c-44,4-88.5,0.7-132.3-4.8c-122.2-15.5-242.2-49.8-342.8-108.4c-44.1-25.7-85.7-57.7-103.8-99.3c-18.2-41.6-6.4-94.2,38.6-118.9
			c18.6-10.2,40.9-14.8,62.7-19.1c32.1-6.3,64.7-12.6,93.7-25.5c29.9-13.3,65.3-39.2,59.4-68.7
			C2574.2-2763,2569.1-2790.8,2600-2816.6z"/>
		<g id="Grupo_142" transform="translate(2250.52 -2871.004)">
			<ellipse id="Elipse_167" class="st2" cx="527" cy="728.1" rx="459" ry="65.9"/>
			
				<linearGradient id="Caminho_666_1_" gradientUnits="userSpaceOnUse" x1="-102.6637" y1="-4.4719" x2="-102.6637" y2="-5.3745" gradientTransform="matrix(522.1044 0 0 577.4678 54144.0078 3360.5784)">
				<stop  offset="0" style="stop-color:#808080;stop-opacity:0.251"/>
				<stop  offset="0.54" style="stop-color:#808080;stop-opacity:0.122"/>
				<stop  offset="1" style="stop-color:#808080;stop-opacity:0.102"/>
			</linearGradient>
			<path id="Caminho_666" class="st3" d="M773,507.5c0,0-5.9-1.7-13.7-3.8c-3.4-1.7-7.2-2.7-11-2.9c-9.2-2.4-18.7-4.6-23.9-5.3
				c-12.2-1.7-33.6-8-33.6-8c-8.2,0.7-16.8-5-16.8-5s-8.9-15-14-18.3c-0.2-0.1-0.4-0.3-0.6-0.4c-0.7-0.4-1.4-0.9-2-1.4
				c-5.3-16.2-16.9-17.2-17.5-17.2l0,0c-2.2-2.4-4.3-4.6-5.8-6.3c6-30.2,23.8-63.8,64.8-92.3c0,0,24.4-26.7,10.2-57.5
				c-14.2-30.9-18.1-31.4-42.5-25.6l-55,24.6c0,0-15.5,3.4-45.7,5c-2.5-4.7-6.4-8.6-11.8-9.8c-11.3-2.5-21.1,8.5-32,5.5
				c-8.3-2.3-18.3-11.4-26.4-2.6c-1.1,1.2-1.9,2.8-3,4.1c-0.8,0.9-1.7,1.6-2.7,2.3c-18.5-1.1-39-3-61.5-6l-48.7-27.2
				c0,0-30-13.1-31.2,21.4c-1.1,34.5-4,50.7,9.1,60.1c9.4,6.8,40.3,53.4,51.8,93.5c-1.7,2.3-2.8,3.7-2.8,3.7s-32.9,41.7-35.4,42.7
				c-0.2,0.1-0.2,0.3-0.2,0.6c-0.5,1-1.9,2.8-6.6,4c-6.4,1.7-35,9.7-39,9.7s-21.8,1-23.6,7.7c1.1-0.1,2.3,0,3.4,0.1l-0.9,1
				c-4.9,5.9-13.1,16.8-13.6,24.3c-0.7,10.7,2.5,43.7,21.1,43.4s10-49.4,10-49.4l2.2-6l0.1-0.1l1.5,9.9c0.3-0.2,0.6-0.3,1-0.5
				c1.7,4.8,7.8,9.5,25.2,9.8c0,0,26.8,2.3,46.9,39.7c18.2,33.9,78.5,65.4,122.7,65.2v55l-6.1,1.7l-78.9,1.3c-2.7,0-5,2-5.1,4.6
				l-0.5,9.5l22.9,2l-71.2,16c0,0-12.6-1-10.4,15.7h17.5l0.4-3.3l142.4-9.3l8.2,1.9c-1.1,5.6-2.3,10.2-2.6,11.4L538,747
				c0,0.2-0.1,0.4-0.1,0.6c-0.8-0.3-1.3-0.5-1.3-0.5c-1.9,2.1-3,23.5-3.2,25.7s8.9,4.8,8.9,4.8c4.1,1.4,20.2,0,20.2,0l0,0
				c5.3-0.3,19.5-4.9,19.5-4.9l-1.3-23.5c-0.6,0.2-1.2,0.4-1.9,0.5c0-0.3,0.1-0.7,0.1-1c0.1-1.4,0.2-2.9,0.3-4.4l63.7,14.8h1.8v3
				h19.7c0,0,1.8-12.7-5.4-16.7s-44.7-17.7-44.7-17.7l9-0.8l0,0l35.9-3.2v0.9h5.4l-0.1-1.4l10-0.9l11.8,0.3c0,0-0.4-14-9.3-15
				c-1.5-0.2-6.6-0.7-13.9-1.3l-2.3-26.4c5.7-9,20.4,18.4,20.4,18.4s0.1,0.2,0.1,0.6c0.7,2.8,4,15.3,6.2,16.8h0.1
				c1.2,0.6,2.5,1.2,3.9,1.7c5.8,2,11.8,3.3,17.9,4c11.5,1.3,36.5-5.7,41.2-8c0.8-0.4,1.5-0.9,2-1.6c1.6-2.1-0.3-4.4-0.3-4.4l-5-0.5
				c4.4-1.9,5.3-8.8-3-10.1c-0.3-0.1-0.6-0.1-1-0.1c0.4-0.7,0.9-1.3,1.5-1.9c-4.3,0.8-15.7-4.1-15.7-4.1c-1.7-0.7-3.4-1.2-5.1-1.5
				l-0.1-0.2c-0.2-0.3-0.3-0.6-0.5-0.9c-2.5-4.8-3.4-10.8-4.3-15.3c-1.8-9.7-22.7-47.1-22.7-47.1s-7.3-15.6-13.5-32.1
				c7.4-5.9,13.1-12.5,16.4-19.9l0,0l6.1-8.8c4.1-4.9,7.7-10.1,10.9-15.6l6.2-9l0,0c11.6-0.8,30.8-2,40.6-2.3
				c2.8,14.3,6.2,30.8,7.8,35.3c2.9,8.3,17.5-1.3,23.3-22.7S773,507.5,773,507.5z M552.5,683.6v-46.9c3.1-0.5,6.4-1,10.1-1.6
				c-2.2,12-4.8,22.9-4.8,22.9C558,663.8,554.5,676.9,552.5,683.6z M667.1,668.8l1.9,0.6c3,1,5.7,2.6,7.9,4.7
				C673.8,672.1,670.5,670.3,667.1,668.8L667.1,668.8z M655.7,625.6c0,0,4.3,7.7-4.3,20.4c-6.4,9.5-2.6,15.1,6.7,19.4
				c-3.1-1-6.2-1.8-9.3-2.4l0.5,0.2c-7.6-1.5-3.9,4.8-3.9,4.8c7.5,6.8,11,24,12.6,37.6c-19.7-1.8-50.7-4.6-75.7-6.9
				c0.4-2.3,0.7-4.7,0.8-7c0-4,4.7-19.7,4.7-19.7s13.4-29.1,20.7-46.6c14-3.6,27.6-8,40.9-13.4C652.8,619,655.7,625.6,655.7,625.6
				L655.7,625.6z"/>
			<rect id="Retângulo_204" x="522.2" y="628.5" class="st4" width="30.8" height="82.3"/>
			<path id="Caminho_667" class="st4" d="M433.3,701.4l-0.5,9.4l22.6,2L385,728.7c0,0-12.4-1-10.2,15.5h17.3l0.3-3.3l140.7-9.3
				l109.2,25.5h1.8v3h19.4c0,0,1.8-12.6-5.3-16.5c-7.1-4-44.2-17.5-44.2-17.5l59.4-5.3l11.7,0.3c0,0-0.3-13.9-9.2-14.9
				S542.3,694,542.3,694h-20.1l-6,1.7l-77.9,1.2C435.6,696.9,433.4,698.9,433.3,701.4z"/>
			<path id="Caminho_668" class="st5" d="M553,628.5v9.5c-11.1,1.7-18,2.4-18,2.4c-4.2,0.7-8.5,1.1-12.7,1.1v-13H553z"/>
			
				<linearGradient id="Caminho_669_1_" gradientUnits="userSpaceOnUse" x1="-104.7792" y1="-8.1817" x2="-104.7792" y2="-7.2794" gradientTransform="matrix(38.5276 0 0 76.4937 4810.8926 1132.667)">
				<stop  offset="0" style="stop-color:#FACBBB"/>
				<stop  offset="1" style="stop-color:#EEA3A0"/>
			</linearGradient>
			<path id="Caminho_669" class="st6" d="M791.8,550.5c-5.7,21.1-20.2,30.7-23,22.5c-2.6-7.5-10.5-49.2-11.8-56.4
				c-0.1-0.7-0.2-1.1-0.2-1.1l-1.4-8.6l12,1l3.6,0.3C770.9,508.2,797.5,529.3,791.8,550.5z"/>
			<path id="Caminho_670" class="st4" d="M331.3,515.5c0,0-12.4,19.5,23.3,20.2c0,0,26.5,2.3,46.3,39.3s90.2,71.1,134,63.5
				c0,0,146.8-14.8,164.3-68.4l12.1-29.1c0,0,50.2-3.6,55.5-3s1.8-13.5,1.8-13.5l-13.1-8.9l-31.1,5L689.1,551l-110.3,48.6
				l-106.4-14.2c0,0-84.1-50.5-84.8-52.9c-0.7-2.3-33.9-23.5-33.9-23.5L331.3,515.5z"/>
			
				<linearGradient id="Caminho_671_1_" gradientUnits="userSpaceOnUse" x1="-104.4235" y1="-8.0834" x2="-104.4235" y2="-7.1802" gradientTransform="matrix(37.0821 0 0 78.7227 4184.436 1136.8507)">
				<stop  offset="0" style="stop-color:#FACBBB"/>
				<stop  offset="1" style="stop-color:#EEA3A0"/>
			</linearGradient>
			<path id="Caminho_671" class="st7" d="M330.1,504.2v5l-2.8,7.6l-2.2,5.9c0,0,8.5,48.6-9.9,48.9s-21.6-32.4-20.8-43
				c0.5-7.4,8.6-18.2,13.5-24c2.1-2.5,3.5-4.1,3.5-4.1L330.1,504.2z"/>
			<path id="Caminho_674" class="st4" d="M735.1,510.4L704.8,542c-72.2,78.2-208.3,49.2-255.9,43S377,511,377,511
				c1.8,0.2,3.6,0.1,5.4-0.2c8-1.3,23-7.5,31.7-35c12.3-38.8-40.9-123.2-53.8-132.5s-10.1-25.4-9-59.6s30.8-21.2,30.8-21.2
				l48.2,26.9c118.2,15.5,180.9,1.6,180.9,1.6l54.3-24.3c24.1-5.7,28-5.2,42,25.4c14,30.5-10.1,56.9-10.1,56.9
				c-81.2,56.4-70.6,133.6-57.7,162c8.7,19.2,48.8,12.3,74.1,5.7C726.3,513.5,735.1,510.4,735.1,510.4z"/>
			<path id="Caminho_676" class="st8" d="M724.5,508.4l-28.6,30.2c-68.4,74.9-197.3,47.1-242.3,41.1c-45.1-5.9-68.1-70.9-68.1-70.9
				c1.7,0.2,3.4,0.1,5.1-0.2c7.6-1.2,21.8-7.2,30.1-33.5c11.7-37.2-38.7-118-50.9-126.9c-12.2-8.9-9.6-24.3-8.5-57
				s29.2-20.3,29.2-20.3l45.6,25.7c111.9,14.9,171.3,1.5,171.3,1.5l51.4-23.3c22.8-5.4,26.5-5,39.8,24.3
				c13.3,29.2-9.5,54.5-9.5,54.5c-76.9,54-66.8,127.9-54.6,155.2c8.2,18.4,46.2,11.7,70.2,5.5C716.1,511.4,724.5,508.4,724.5,508.4z
				"/>
			<path id="Caminho_677" class="st9" d="M770.9,508.2c0,0-12.7-1-14.1,7.3l-88,6.9l-21.9,1.7l-23.2-76l-4.4-14.5l11,3.3
				c0,0,4.1,4.5,9.1,9.9c7.1,7.5,16.3,16.9,19.2,18.2c0.2,0.1,0.4,0.2,0.6,0.4c5.1,3.3,13.9,18.1,13.9,18.1s8.5,5.6,16.6,5
				c0,0,21.2,6.3,33.2,7.9C734.9,497.9,770.9,508.2,770.9,508.2z"/>
			<path id="Caminho_678" class="st5" d="M724.5,508.4l-28.6,30.2c-68.4,74.9-197.3,47.1-242.3,41.1c-45.1-5.9-68.1-70.9-68.1-70.9
				c1.7,0.2,3.4,0.1,5.1-0.2c6.2,4.8,12,10.2,17.2,16.1c49.9,55.2,125.5,51.6,125.5,51.6s109.6,12.2,149.9-45.3
				c6.7-6.1,13.8-11.6,21.4-16.6C716.1,511.4,724.5,508.4,724.5,508.4z"/>
			<path id="Caminho_679" class="st5" d="M770.9,508.2c0,0-12.7-1-14.1,7.3l-88,6.9l-21.9,1.7l-23.2-76l-4.4-14.5l11,3.3
				c0,0,4.1,4.5,9.1,9.9c7.1,7.5,16.3,16.9,19.2,18.2c0.2,0.1,0.4,0.2,0.6,0.4c5.1,3.3,13.9,18.1,13.9,18.1s8.5,5.6,16.6,5
				c0,0,21.2,6.3,33.2,7.9C734.9,497.9,770.9,508.2,770.9,508.2z"/>
			<path id="Caminho_680" class="st5" d="M772,509.2c0,0-12.7-1-14.1,7.3l-0.9,0.1c-0.1-0.7-0.2-1.1-0.2-1.1l-1.4-8.6l12,1
				L772,509.2z"/>
			<path id="Caminho_681" class="st5" d="M698,573.4c-21.2,21.9-61.7,47.2-134.7,44.9c0,0-131.5,15.5-179.9-78
				c0,0-18.8-32.1-53.5-14.4l-1,0.5l-2.1-13.9c0,0,31.1-39,81,16.2s125.5,51.6,125.5,51.6s109.6,12.2,149.9-45.3
				c0,0,57-53.9,83.8-20.8l1.5,10l0.3,2.2c0,0-27.9-8.6-47.7,13.9L698,573.4z"/>
			<path id="Caminho_682" class="st8" d="M326.7,510.5c0,0,31.1-39,81,16.2c5.7,6.3,12,12.1,18.8,17.3
				c48.1,37,106.7,34.2,106.7,34.2s109.6,12.2,149.9-45.3c0,0,57-53.9,83.8-20.8l1.8,12.2c0,0-30-9.3-49.8,16.5
				c0,0-28.6,79.3-155.6,75.4c0,0-131.5,15.5-179.9-78c0,0-19.1-32.7-54.4-13.9L326.7,510.5z"/>
			<path id="Caminho_683" class="st5" d="M613.3,346l-2.5,0.2c-2.7-5-3.4-27.1-2.4-47.9l-2.1-0.1c-0.5,9.8-1.5,39,2.5,48.2
				c-25,1.7-135.9,8.8-175.4-0.1c13.7-27,3.8-49.7,3.7-49.9l-1.9,0.8c0.1,0.2,9.5,21.8-3.4,47.8c-6.4-9.4-40.5-56.7-70.8-50.5
				l0.5,1.9c28-5.7,60.9,38.7,68.1,49l-1.3-0.3l2.8,2.5l1,1.4l0.2-0.3c5.1,5.1,27.8,30.1,26.6,67.3c-0.3,10.5,7.1,19.9,21.5,27.3
				c16.2,8.3,38.2,12.5,58,12.5c15.9,0,30.3-2.8,39.2-8.5c7.1-4.6,10.3-10.9,9.3-18.3c-5.9-40.3,27.5-80.8,28.1-81.5
				c45.7-51.1,83.3-47.4,83.7-47.4l0.3-2C697,298,659.6,294.3,613.3,346z M584.5,429.3c1,6.7-1.8,12.2-8.4,16.4
				c-19,12.2-66.9,10.1-95-4.2c-9.5-4.9-20.8-13.2-20.4-25.5c1.2-35.3-18.8-59.9-25.9-67.4c42.2,8.3,152.4,1.2,174.9-0.4
				c0.3,0.3,0.6,0.6,1.1,0.8C603.5,358.8,579.3,394,584.5,429.3L584.5,429.3z"/>
			<path id="Caminho_684" class="st5" d="M578.5,713.1l44.6,12.1l-8.9,0.8L578.5,713.1z"/>
			<path id="Caminho_685" class="st5" d="M455.4,712.8l32.2-7.3l-41,6.5L455.4,712.8z"/>
			<path id="Caminho_686" class="st5" d="M330.1,504.2v5l-2.8,7.6c-3.7-9.6-14-11.7-19.5-12.2c2.1-2.5,3.5-4.1,3.5-4.1L330.1,504.2z
				"/>
			<path id="Caminho_687" class="st9" d="M381.7,483.4l-7.8-1.7c0,0-0.4,3-6.8,4.6c-6.4,1.7-34.6,9.6-38.5,9.6s-21.6,1-23.3,7.6
				c0,0,20.9-1.3,24,15.9l60.5-2.6L381.7,483.4z"/>
			<path id="Caminho_688" class="st5" d="M381.7,483.4l-7.8-1.7c0,0-0.4,3-6.8,4.6c-6.4,1.7-34.6,9.6-38.5,9.6s-21.6,1-23.3,7.6
				c0,0,20.9-1.3,24,15.9l60.5-2.6L381.7,483.4z"/>
			<path id="Caminho_689" class="st9" d="M648.1,662.2c0,0,17.8,9.5,24.5,18.6c4.7,6.6,8.9,13.5,12.6,20.6c0,0,13.3,5.4,3.6-14.3
				C679.1,667.5,648.1,662.2,648.1,662.2z"/>
			<path id="Caminho_690" class="st9" d="M648.1,662.2c0,0,17.8,9.5,24.5,18.6c4.7,6.6,8.9,13.5,12.6,20.6c0,0,13.3,5.4,3.6-14.3
				C679.1,667.5,648.1,662.2,648.1,662.2z"/>
			<path id="Caminho_691" class="st5" d="M648.1,662.2c0,0,17.8,9.5,24.5,18.6c4.7,6.6,8.9,13.5,12.6,20.6c0,0,13.3,5.4,3.6-14.3
				C679.1,667.5,648.1,662.2,648.1,662.2z"/>
			<path id="Caminho_692" class="st9" d="M496.8,289c-1.1,1.2-1.9,2.7-3,4c-4.5,5.2-13,5-19.4,7.9c-8.8,4-13.1,13.9-12.8,23.1
				c0.3,9.2,4.1,17.9,7.8,26.4c3.6,8.5,7.2,17.4,6.6,26.6c-0.3,5.4-2,10.7-3.7,15.9c-1.1,3.4-2.5,7-5.7,8.8
				c9.7,1.6,19.4,2.5,29.3,2.6c28.2,0.4,56.3-5.3,84.3-2.7c-6.9-5.8-9.9-14.6-8-23.1c0.8-3.3,2.3-6.4,3.4-9.6
				c3.9-10.7,3.9-22.3,0.1-33c-1.1-3.2-2.6-6.2-3.6-9.5c-2.2-7.5-1.6-15.4-3.2-23c-1.6-7.6-6.3-15.6-14.4-17.4
				c-11.2-2.5-20.9,8.4-31.6,5.4C514.7,289.3,504.9,280.3,496.8,289z"/>
			<g id="Grupo_141" class="st10">
				<path id="Caminho_693" d="M575.9,369.2c2-5.7,3-11.7,2.9-17.6c-0.1,5.3-1.1,10.6-2.9,15.7c-1.2,3.2-2.7,6.3-3.4,9.6
					c-0.5,2-0.6,4-0.5,6c0.1-1.3,0.2-2.7,0.5-4C573.2,375.5,574.7,372.4,575.9,369.2z"/>
				<path id="Caminho_694" d="M476.3,374.3c0.3-8.9-3.1-17.5-6.7-25.7c-3.6-8.5-7.5-17.1-7.8-26.2v1.8c0.3,9.2,4.1,17.9,7.8,26.4
					C472.9,358.2,476.1,366.2,476.3,374.3z"/>
				<path id="Caminho_695" d="M578.2,399.7c-27.3-2.1-54.7,3.2-82.1,2.8c-9.1-0.1-18.2-0.9-27.2-2.3c-0.6,0.7-1.3,1.2-2.1,1.7
					c9.7,1.6,19.4,2.5,29.3,2.6c28.2,0.4,56.3-5.3,84.3-2.7C579.7,401.2,578.9,400.5,578.2,399.7z"/>
			</g>
			<path id="Caminho_696" class="st9" d="M541.2,768.9l23.3,4l-1.6,2.6c0,0-15.9,1.4-19.9,0C538.9,774.1,541.2,768.9,541.2,768.9z"
				/>
			<path id="Caminho_697" class="st9" d="M565.2,584c0,0,96.6-28.5,93.1-46.7s-89.4-22.6-93.1-17.9C561.4,524.1,565.2,584,565.2,584
				z"/>
			<path id="Caminho_698" class="st11" d="M565.2,584c0,0,96.6-28.5,93.1-46.7s-89.4-22.6-93.1-17.9
				C561.4,524.1,565.2,584,565.2,584z"/>
			
				<linearGradient id="Caminho_699_1_" gradientUnits="userSpaceOnUse" x1="-103.2128" y1="-7.9891" x2="-103.2128" y2="-7.0856" gradientTransform="matrix(111.27 0 0 76.0356 11995.9883 965.3583)">
				<stop  offset="0" style="stop-color:#FACBBB"/>
				<stop  offset="1" style="stop-color:#EEA3A0"/>
			</linearGradient>
			<path id="Caminho_699" class="st12" d="M565.2,407.4l-18.3,15.2l-23.3,4l-42.1-5l-23.7-15.2c0,0,4.2-0.9,15.9-3.3l9.5-2
				c19.1-4,11.3-33.4,11.3-33.4s52.3-26.1,45.6,6.9c-3.7,18,4.1,26.1,12,29.8C556.2,406.3,560.7,407.3,565.2,407.4z"/>
			<ellipse id="Elipse_168" class="st5" cx="520.3" cy="349.7" rx="40.7" ry="38"/>
			
				<linearGradient id="Elipse_169_1_" gradientUnits="userSpaceOnUse" x1="-103.8633" y1="-7.4054" x2="-102.7249" y2="-6.8157" gradientTransform="matrix(84.24 0 0 84.24 9234.1777 954.1083)">
				<stop  offset="0" style="stop-color:#FACBBB"/>
				<stop  offset="1" style="stop-color:#EEA3A0"/>
			</linearGradient>
			<ellipse id="Elipse_169" class="st13" cx="520.3" cy="348.7" rx="40.7" ry="38"/>
			<path id="Caminho_700" class="st5" d="M565.2,407.4l-18.3,15.2l-23.3,4l-42.1-5l-23.7-15.2c0,0,4.2-0.9,15.9-3.3l2.5,1.3h75.9
				C556.2,406.2,560.7,407.3,565.2,407.4L565.2,407.4z"/>
			<path id="Caminho_701" class="st9" d="M512.9,405.4h41.6c0,0,14.2-5,18.8-2s17.7,3.3,19.4,2c1.8-1.3,27.9,12.3,37.5,31.4
				l-33.9,25.1l-147.4,54.9c0,0-6.8-10.9-4.2-14.5c2.5-3.6-4.6-10.6-4.6-10.6s-2.5-12.2,0-15.9L409,439.4c0,0,21.6-29.4,26.5-32.4
				c0,0,1.8-4.9,3.5-4.6s33.3,0.9,33.3,0.9l3.9,2L512.9,405.4z"/>
			<path id="Caminho_702" class="st5" d="M512.9,405.4h41.6c0,0,14.2-5,18.8-2s17.7,3.3,19.4,2c1.8-1.3,27.9,12.3,37.5,31.4
				l-3.5,2.6l-30.4,22.5l-147.4,54.9c0,0-6.8-10.9-4.2-14.5c2.5-3.6-4.6-10.6-4.6-10.6s-2.5-12.2,0-15.9L409,439.4
				c0,0,21.6-29.4,26.5-32.4c0,0,1.8-4.9,3.5-4.6s33.3,0.9,33.3,0.9l3.9,2L512.9,405.4z"/>
			<path id="Caminho_703" class="st9" d="M422,435.8l-13.1,3.6c0,0-32.5,41.3-35,42.3s15.9,35,15.9,35s6.4-4.6,9.5-7.6
				c3.2-3,40.6-33.4,40.6-33.4L422,435.8z"/>
			<path id="Caminho_704" class="st5" d="M422,435.8l-13.1,3.6c0,0-32.5,41.3-35,42.3s15.9,35,15.9,35s6.4-4.6,9.5-7.6
				c3.2-3,40.6-33.4,40.6-33.4L422,435.8z"/>
			<path id="Caminho_705" class="st5" d="M668.8,522.4l-21.9,1.7l-23.2-76l15.7-1.3c7.1,7.5,16.3,16.9,19.2,18.2
				c0.2,0.1,0.4,0.2,0.6,0.4c1,3.6,1.6,7.3,1.8,11.1c2.1,28.9,4.9,34.5,4.9,34.5S667.2,515.5,668.8,522.4z"/>
			
				<linearGradient id="Caminho_706_1_" gradientUnits="userSpaceOnUse" x1="-102.8598" y1="-5.0391" x2="-103.5787" y2="-5.8007" gradientTransform="matrix(150.1968 0 0 287.3717 16157.0918 2120.1921)">
				<stop  offset="0" style="stop-color:#FACBBB"/>
				<stop  offset="1" style="stop-color:#EEA3A0"/>
			</linearGradient>
			<path id="Caminho_706" class="st14" d="M742.3,705.8c-0.6-0.1-1.4-0.2-2.4-0.3l-1-0.1c-12.9-1-48.2-2.6-48.2-2.6
				c-0.7-2.9-1.5-5.8-2.5-8.6c-0.1-0.4-0.3-0.8-0.4-1.3c-3.3-9-9.6-21.4-19.6-24.5c-16.3-5-25.8-10.6-17.3-23.1s4.2-20.2,4.2-20.2
				s-11.8-26.8-15.8-30.1c-2.4-2-8.3-12.9-12.8-23.2c-0.4-1-0.9-2-1.3-3c-2.5-6-4.4-11.5-4.5-14.1c-0.3-7-13.7-64.8-16-74.6
				c-0.2-0.9-0.3-1.4-0.3-1.4c0-0.2,0-0.3-0.1-0.5c-0.6-3.5-4-26.9,13.2-30l21.7-1.9l0,0c0.7,0.1,17.6,1.5,19.6,29.8
				c2.1,28.9,4.9,34.5,4.9,34.5s8.8,33.4,9.5,51.2s21.7,62.8,21.7,62.8s20.7,37,22.5,46.6c0.8,4.5,1.8,10.4,4.2,15.2
				c0.2,0.3,0.3,0.6,0.5,0.9c2.8,4.8,7.3,8.3,15.1,7.7c1.2-0.1,2.4-0.1,3.6,0c0.5,0,1,0.1,1.5,0.2
				C752.4,696.9,749.1,706.7,742.3,705.8z"/>
			<path id="Caminho_707" class="st5" d="M632.4,505.5c-0.4,27.8-1.8,51.9-1.8,51.9s-1.8,6.2-4.1,14.4c-3.1-7.2-5.6-14-5.8-17.2
				c-0.4-7.5-16.3-76-16.3-76c0-0.2,0-0.3-0.1-0.5l2.2,0.5C606.5,478.8,632.7,477.7,632.4,505.5z"/>
			
				<linearGradient id="Caminho_708_1_" gradientUnits="userSpaceOnUse" x1="-104.1949" y1="-5.8015" x2="-103.0981" y2="-5.0987" gradientTransform="matrix(96.2679 0 0 328.6 10532.9658 2359.3777)">
				<stop  offset="0" style="stop-color:#EEA3A0"/>
				<stop  offset="1" style="stop-color:#FACBBB"/>
			</linearGradient>
			<path id="Caminho_708" class="st15" d="M630.2,505.5c-0.4,27.8-1.8,51.9-1.8,51.9s-1.4,4.7-3.3,11.5c-4.2,14.7-11.1,39-12.3,44
				c-1.8,7.2-25.1,58.2-25.1,58.2s-4.6,15.5-4.6,19.5s-3.2,19.9-3.2,19.9v14.2c0,0,0,13.3-0.8,22.1c-0.1,0.7-0.2,1.4-0.2,2
				c-0.4,2.8-0.8,4.9-1.4,5.6c-2.5,2.7-13.1,18.5-13.1,18.5s-1.4,0-3.5,0l0,0c-4.8-0.1-13.6-0.7-18.7-2.8c-1.5-0.5-2.8-1.5-3.6-2.7
				c-2.6-4.8-1-16.4-0.3-20.6c0.2-1,0.3-1.6,0.3-1.6c0-0.1,0-0.2,0.1-0.3c0.8-3.2,7.8-31.1,4.2-37.4c-3.9-6.6,8.8-20.8,8.8-20.8
				s6.7-21.5,6.4-29.4c0,0,9.5-39,7.1-49.9c-0.7-3.3-0.1-11.9,1.1-22.3c1.6-13.3,4.1-29.5,6-41.4c1.6-9.7,2.8-16.6,2.8-16.6
				s-0.6-0.2-1.5-0.4c-2.5-0.5-7.3-1.2-10.1,0.7c-3.9,2.6-2.5-28.1-2.5-28.1l31.4-23l12,2.4c0.8,0,1.6,0,2.4,0.1
				C613.4,479.4,630.5,482.9,630.2,505.5z"/>
			<path id="Caminho_709" class="st9" d="M750.7,710.2c-0.5,0.6-1.2,1.2-2,1.5c-4.7,2.3-29.4,9.3-40.7,7.9c-6-0.7-12-2-17.7-4
				c-1.3-0.5-2.6-1-3.9-1.6h-0.1c-2.2-1.4-5.5-13.8-6.2-16.6c-0.1-0.4-0.1-0.6-0.1-0.6s-14.5-27.1-20.2-18.2l3.9,44.3h-5.3
				c0,0-0.7-44-13.8-55.9c0,0-3.8-6.5,4.2-4.6s27.2,13.9,29.4,20.8c1.5,4.2,3.4,8.3,5.8,12.2c1.5,2.6,2.7,4.3,2.7,4.3l52,4.9
				l11.7,1.1C750.4,705.9,752.3,708.1,750.7,710.2z"/>
			<path id="Caminho_710" class="st5" d="M750.7,710.2c-0.5,0.6-1.2,1.2-2,1.5c-4.7,2.3-29.4,9.3-40.7,7.9c-6-0.7-12-2-17.7-4
				c-1.3-0.5-2.6-1-3.9-1.6h-0.1c11.4-1.9,36.5-5.7,52.6-5.4C744,708.7,748.1,709.2,750.7,710.2z"/>
			<path id="Caminho_711" class="st5" d="M738.8,703.8c0,0.5,0,1.1,0.1,1.7c-12.9-1-48.2-2.6-48.2-2.6c-0.8-3.4-1.8-6.7-3-9.9
				c9.3-4,22.6-8.3,34.1-6.3c2.7,5.3,7.3,9.3,15.6,8.6c1.2-0.1,2.4-0.1,3.6,0C739.5,697.9,738.8,700.8,738.8,703.8L738.8,703.8z"/>
			<path id="Caminho_712" class="st5" d="M739.9,704.8v0.8l-1-0.1c-12.9-1-48.2-2.6-48.2-2.6c-0.7-2.9-1.5-5.8-2.5-8.6
				c9.2-4,22.5-8.4,34.1-6.6c2.8,4.8,7.3,8.3,15.1,7.7c1.2-0.1,2.4-0.1,3.6,0c0.5,0,1,0.1,1.5,0.2
				C740.8,698.2,739.8,701.5,739.9,704.8z"/>
			<path id="Caminho_713" class="st9" d="M738.8,704.8c0,1.3,0.1,2.6,0.3,3.8H739l-48.7,7.1c-1.3-0.5-2.6-1-3.9-1.6h-0.1
				c-2.2-1.4-5.5-13.8-6.2-16.6c1.1-0.6,2.4-1.2,3.9-1.9c10.6-4.9,29.4-11.9,43.3-6.2c0,0,11.3,4.8,15.6,4.1
				C743,693.3,738.8,697.4,738.8,704.8z"/>
			<path id="Caminho_714" class="st5" d="M579,748.8c-0.4,2.8-0.8,4.9-1.4,5.6c-2.5,2.7-13.1,18.5-13.1,18.5s-1.4,0-3.5,0
				c-0.3-4.3-2-11.3-10.3-11.5c-6.5-0.1-8.2,4.5-8.4,8.6c-1.5-0.5-2.8-1.5-3.6-2.7c-2.6-4.8-1-16.4-0.3-20.6
				C543,748.2,561.2,753.5,579,748.8z"/>
			<path id="Caminho_715" class="st5" d="M579.2,746.8c-0.1,0.7-0.2,1.4-0.2,2c-0.4,2.8-0.8,4.9-1.4,5.6
				c-2.5,2.7-13.1,18.5-13.1,18.5s-1.4,0-3.5,0c0.1-3.5-0.6-13.3-10.3-13.4c-7.6-0.1-8.7,6.1-8.4,10.6c-1.5-0.5-2.8-1.5-3.6-2.7
				c-2.6-4.8-1-16.4-0.3-20.6c0.2-1,0.3-1.6,0.3-1.6c0-0.1,0-0.2,0.1-0.3C543.9,746.5,561.8,751.4,579.2,746.8z"/>
			<path id="Caminho_716" class="st9" d="M537.3,745.3c0,0,22.4,8.4,43.7,2l1.3,23.3c0,0-20.4,6.7-21.2,4.5c0,0,1.6-14.4-10.3-14.6
				c-11.8-0.2-7.8,15.1-7.8,15.1s-9-2.6-8.8-4.7C534.3,768.6,535.4,747.3,537.3,745.3z"/>
			<path id="Caminho_717" class="st5" d="M641.3,447.4c-20.1-5.6-32.4,25.6-34.5,31.4c-0.2,0.6-0.3,0.9-0.3,0.9
				c-0.6,0.1-1.2,0.3-1.8,0.4c-34.6,8.5-32.6,37.9-31.2,46.5c-2.5-0.5-7.3-1.2-10.1,0.7c-3.9,2.6-2.5-28.1-2.5-28.1l31.5-22.9
				l12,2.4c0-0.2,0-0.3-0.1-0.5c-0.6-3.5-4-26.9,13.2-30l21.7-1.9l0,0L641.3,447.4z"/>
			<path id="Caminho_718" class="st9" d="M456,500.6l-7.1,16.2c0,0-29.3,38-2.5,54.9c26.9,16.9,118.8,12.3,118.8,12.3l6.8-56
				c0,0-10.3-40,32.5-49.3c0,0,12.6-38.5,34.8-32.3L597,426.5l-58,20.2l-49.1,24.8L456,500.6z"/>
			<path id="Caminho_719" class="st5" d="M456,500.6l-7.1,16.2c0,0-29.3,38-2.5,54.9c26.9,16.9,118.8,12.3,118.8,12.3l6.8-56
				c0,0-10.3-40,32.5-49.3c0,0,12.6-38.5,34.8-32.3L597,426.5l-58,20.2l-49.1,24.8L456,500.6z"/>
			<path id="Caminho_720" class="st5" d="M457.7,530.6c0,0,8.8-19.6,19.8-25.2C488.5,499.9,457.7,530.6,457.7,530.6z"/>
			<path id="Caminho_721" class="st5" d="M495.6,495.3c0,0,78.8-47.9,107.5-46.9L495.6,495.3z"/>
			<path id="Caminho_722" class="st5" d="M520.6,327.3c14.6,1.4,25.2,14.8,39.7,17c1.2,0.3,2.5,0.2,3.7-0.2
				c3.7-1.5,2.5-6.7,0.7-10.1c-2.7-5.1-5.5-10.1-8.2-15.2c-2-3.7-4.2-7.6-7.6-10.3c-3-2.1-6.4-3.7-10-4.6c-14-4.2-29.7-5.3-43,0.6
				c-7.5,3.3-27.5,20.3-17,28.5C488.3,340.3,509.5,326.2,520.6,327.3z"/>
			<path id="Caminho_723" class="st9" d="M520.6,326.3c14.6,1.4,25.2,14.8,39.7,17c1.2,0.3,2.5,0.2,3.7-0.2
				c3.7-1.5,2.5-6.7,0.7-10.1c-2.7-5.1-5.5-10.1-8.2-15.2c-2-3.7-4.2-7.6-7.6-10.3c-3-2.1-6.4-3.7-10-4.6c-14-4.2-29.7-5.3-43,0.6
				c-7.5,3.3-27.5,20.3-17,28.5C488.3,339.3,509.5,325.3,520.6,326.3z"/>
			<path id="Caminho_724" class="st5" d="M452.2,496.2c8.9,0.9,18,0,26.5-2.7"/>
			<path id="Caminho_725" class="st5" d="M368.4,490c0,0,6.8,0.9,6.8,5.2C375.2,499.6,368.4,490,368.4,490z"/>
			<path id="Caminho_726" class="st5" d="M371.8,506.8c0,0,1.2-2,3.4,1.8C377.3,512.5,371.8,506.8,371.8,506.8z"/>
			<path id="Caminho_727" class="st5" d="M564,341.1c-1.2,0.4-2.5,0.5-3.7,0.2c-14.5-2.2-25.1-15.6-39.7-17
				c-11.1-1-32.3,13-41.7,5.7c-1.6-1.2-2.7-2.9-2.9-4.8c-0.4,2.6,0.7,5.2,2.9,6.8c9.4,7.3,30.6-6.7,41.7-5.7
				c14.6,1.4,25.2,14.8,39.7,17c1.2,0.3,2.5,0.2,3.7-0.2c2.1-0.9,2.6-2.9,2.3-5.1C566.2,339.3,565.3,340.5,564,341.1z"/>
			<path id="Caminho_728" class="st5" d="M549.5,487c0,0,43.2-10.6,54.9-8.2L549.5,487z"/>
			<path id="Caminho_731" class="st16" d="M335.1,700.2l-4.3,10.5l3.9-10.5"/>
			<path id="Caminho_734" class="st17" d="M336.5,683.7c0.5,2.8,3.3,4.7,6.3,4.2c1.4-0.2,2.7-1,3.6-2.1
				C343.2,684.8,339.9,684.1,336.5,683.7z"/>
			<rect id="Retângulo_206" x="129.1" y="497.3" class="st18" width="5.5" height="115.4"/>
			<path id="Caminho_735" class="st9" d="M169.1,612.4l-0.3,5.2l-0.5,7.3l-0.2,3.1l-0.5,7.3l-0.2,3.1l-0.5,7.3l-5.5,83.5
				c-0.5,7.5-7.1,13.3-15.1,13.3h-28.7c-8,0-14.6-5.8-15.1-13.3L97,645.7l-0.5-7.3l-0.2-3.1l-0.5-7.3l-0.2-3.1l-0.5-7.3l-0.3-5.2
				c-0.3-4,3-7.5,7.3-7.8c0.2,0,0.3,0,0.5,0h58.8c4.3,0,7.8,3.3,7.8,7.3C169.1,612.1,169.1,612.3,169.1,612.4z"/>
			<path id="Caminho_736" class="st19" d="M168.7,617.6l-0.5,7.3H95.5l-0.5-7.3H168.7z"/>
			<path id="Caminho_737" class="st19" d="M168.1,628l-0.5,7.3H96.2l-0.5-7.3H168.1z"/>
			<path id="Caminho_738" class="st19" d="M167.4,638.4l-0.5,7.3h-70l-0.5-7.3H167.4z"/>
			<path id="Caminho_739" class="st20" d="M86.6,540.6c31.9,21.6,45.2,55.4,45.2,55.4s-38.5-1.2-70.4-22.8s-45.2-55.4-45.2-55.4
				S54.7,519,86.6,540.6z"/>
			<path id="Caminho_740" class="st21" d="M16.2,517.7c0,0,40,20.8,52.8,37.9c12.8,17.2,62.9,40.3,62.9,40.3"/>
			<path id="Caminho_741" class="st20" d="M107.3,497.1c17.4,11.7,24.6,30.1,24.6,30.1s-20.9-0.7-38.3-12.4S69,484.7,69,484.7
				S89.9,485.3,107.3,497.1z"/>
			<path id="Caminho_742" class="st21" d="M68.9,484.6c0,0,21.7,11.3,28.7,20.6c7,9.3,34.2,22,34.2,22"/>
			<path id="Caminho_743" class="st20" d="M157.1,526.3c-20,20.5-24.2,47.3-24.2,47.3s28.2-6.5,48.1-27s24.2-47.3,24.2-47.3
				S177.1,505.7,157.1,526.3z"/>
			<path id="Caminho_744" class="st22" d="M205.3,499.3c0,0-26,21-32.6,35.5c-6.6,14.5-39.7,38.8-39.7,38.8"/>
			<path id="Caminho_753" class="st23" d="M812,615.1c0,2.4,0.3,4.3,0.6,4.3s0.6-1.9,0.6-4.3c0-2.4-0.4-1.3-0.7-1.3
				S812,612.7,812,615.1z"/>
			<path id="Caminho_754" class="st23" d="M808.5,618c2.2,1.2,4.2,1.9,4.4,1.6c0.2-0.3-1.5-1.5-3.8-2.6c-2.2-1.1-1.4-0.3-1.5,0
				S806.2,616.8,808.5,618z"/>
		</g>
	</g>
</g>
</svg>
