<?xml version="1.0" encoding="utf-8"?>
<!-- Generator: Adobe Illustrator 23.0.1, SVG Export Plug-In . SVG Version: 6.00 Build 0)  -->
<svg version="1.1" id="Layer_1" xmlns="http://www.w3.org/2000/svg" xmlns:xlink="http://www.w3.org/1999/xlink" x="0px" y="0px"
	 viewBox="0 0 430.5 361.5" style="enable-background:new 0 0 430.5 361.5;" xml:space="preserve">
<style type="text/css">
	.st0{fill:#F2F2F2;}
	.st1{fill:#3F3D56;}
	.st2{fill:none;stroke:#3F3D56;stroke-width:2;}
	.st3{fill:none;stroke:#3F3D56;stroke-width:2;stroke-miterlimit:10;}
	.st4{fill:url(#SVGID_1_);}
	.st5{fill:url(#SVGID_2_);}
	.st6{fill:url(#SVGID_3_);}
	.st7{fill:url(#SVGID_4_);}
	.st8{fill:none;stroke:#DBCCC9;stroke-width:2;stroke-miterlimit:10;}
	.st9{fill:#2F2E41;}
	.st10{fill:#00A19B;}
	.st11{opacity:0.1;enable-background:new    ;}
	.st12{fill:#6C63FF;}
	.st13{fill:url(#SVGID_5_);}
	.st14{fill:url(#SVGID_6_);}
	.st15{fill-rule:evenodd;clip-rule:evenodd;fill:url(#SVGID_7_);}
	.st16{fill-rule:evenodd;clip-rule:evenodd;fill:url(#SVGID_8_);}
	.st17{fill:#F7BE56;}
	.st18{fill:url(#SVGID_9_);}
	.st19{fill:url(#SVGID_10_);}
	.st20{fill:#D15241;}
	.st21{fill:url(#SVGID_11_);}
	.st22{fill:#3EA69B;}
	.st23{fill:url(#SVGID_12_);}
	.st24{fill:url(#SVGID_13_);}
	.st25{fill:#EBF0F3;}
</style>
<path class="st0" d="M1418.2-352.6c0,0,5.7,186,56.2,81.9c50.6-104.2,27.3-157.4,76.6-133.3c65.9,32.2,61.3-75.1,61.3-75.1
	s-93.4,7.7-44.4-44.4C1609.4-567.7,1263-517.4,1418.2-352.6z"/>
<g id="Grupo_155_1_" transform="translate(0)">
	<path id="Caminho_645_1_" class="st1" d="M1339.6-318.3l197.6,1.5L1339.6-318.3z"/>
	<path id="Caminho_874_1_" class="st2" d="M1712.9,301.1"/>
	<circle id="Elipse_157_1_" class="st3" cx="1537.2" cy="-387.3" r="6"/>
</g>
<path id="Caminho_665_1_" class="st0" d="M-632.4-272.5c-11.7-8.9-14.1-22.8-13.2-35.4c2.9-39.8,31.4-75.7,63.7-106.7
	c11.7-11.2,24.3-22.3,40.3-29.6c32.7-14.8,78.1-10.4,105,10.2c9.2,7,16.2,15.5,22.4,24.3c11.1,15.5,20,32.3,22.5,50
	c1.8,12.6,0.3,25.3-2.2,37.8c-7,35-22.6,69.3-49.2,98c-11.7,12.6-26.2,24.5-45.1,29.7s-42.8,1.8-54-11.1c-4.6-5.3-6.7-11.7-8.7-17.9
	c-2.9-9.2-5.7-18.5-11.6-26.8c-6.1-8.6-17.8-18.7-31.2-17C-608-265.1-620.7-263.7-632.4-272.5z"/>
<g>
	<g>
		
			<linearGradient id="SVGID_1_" gradientUnits="userSpaceOnUse" x1="936.2313" y1="329.0313" x2="767.3875" y2="160.1875" gradientTransform="matrix(1 0 0 -1 0 364)">
			<stop  offset="0.1698" style="stop-color:#FF6F61"/>
			<stop  offset="0.6116" style="stop-color:#FF6D63"/>
			<stop  offset="0.7993" style="stop-color:#FD666A"/>
			<stop  offset="0.9385" style="stop-color:#FB5977"/>
			<stop  offset="1" style="stop-color:#F9517F"/>
		</linearGradient>
		<path class="st4" d="M851.8,0c-65.9,0-119.4,53.5-119.4,119.4s53.5,119.4,119.4,119.4s119.4-53.5,119.4-119.4S917.8,0,851.8,0z
			 M797.4,128.3c-12.2-13.5-12.9-33.7,0-46.6s33.7-12.9,46.6,0l1.2,1.2l-17.3,39.8l0,0c-0.1,0.3-0.2,0.6-0.3,0.9
			c0,0.1-0.1,0.2-0.1,0.3c0,0.1,0,0.2,0,0.3c-0.1,0.3-0.1,0.6-0.1,1l0,0c0,0.1,0,0.2,0,0.3c0,0.3,0,0.6,0.1,0.9
			c0,0.2,0.1,0.4,0.2,0.6c0.1,0.2,0.1,0.4,0.2,0.6c0.1,0.2,0.2,0.4,0.3,0.5c0.1,0.2,0.2,0.3,0.3,0.5s0.2,0.3,0.4,0.5
			c0.1,0.2,0.2,0.3,0.4,0.5c0.1,0.1,0.3,0.3,0.5,0.4c0.2,0.1,0.3,0.3,0.5,0.4c0.2,0.2,0.5,0.3,0.7,0.4c0.1,0,0.2,0.1,0.3,0.2l0,0
			c0.4,0.2,0.8,0.3,1.2,0.4c0.4,0.1,0.8,0.1,1.2,0.1l0,0h24.6l-16.1,37C829.1,157.8,806.6,138.6,797.4,128.3z M906.3,128.3
			C893,143.2,852,176.5,852,176.5h-0.2c0.4-0.5,0.8-1,1.1-1.7l20.4-47l0,0c0.1-0.3,0.2-0.6,0.3-0.9c0-0.1,0.1-0.2,0.1-0.3
			c0-0.1,0-0.2,0-0.2c0.1-0.3,0.1-0.7,0.1-1l0,0c0-0.1,0-0.2,0-0.3c0-0.3,0-0.6-0.1-0.9c0-0.2-0.1-0.4-0.2-0.5
			c-0.1-0.2-0.1-0.4-0.2-0.6c-0.1-0.2-0.2-0.4-0.3-0.5c-0.1-0.2-0.2-0.3-0.3-0.5s-0.2-0.3-0.4-0.5c-0.1-0.2-0.2-0.3-0.4-0.5
			c-0.1-0.2-0.3-0.3-0.5-0.4c-0.1-0.1-0.3-0.3-0.4-0.4c-0.2-0.2-0.5-0.3-0.8-0.4c-0.1,0-0.2-0.1-0.2-0.1l0,0
			c-0.3-0.1-0.6-0.2-0.9-0.3c-0.1,0-0.2-0.1-0.3-0.1s-0.2,0-0.3,0c-0.3-0.1-0.7-0.1-1-0.1l0,0H843l15.8-36.4l1-1
			c12.9-12.9,33.7-12.9,46.6,0C919.2,94.6,918.5,114.8,906.3,128.3z"/>
	</g>
</g>
<path id="Caminho_665" class="st0" d="M-346,223.4c2.8,19.8-8.3,35.5-21.4,46.7c-41,35.4-103,42.5-163.8,41.3
	c-22-0.4-44.8-1.9-67.2-10.3c-45.7-17.2-85.1-65-91.1-110.8c-2.1-15.6-0.6-30.5,1.8-44.9c4.3-25.6,11.9-50.3,26.4-69.7
	c10.4-13.8,24-24.7,38.5-34.3c40.4-26.8,88.3-44.8,141.6-46.9c23.4-0.9,48.7,1.6,71.9,14.8c23.2,13.2,42.9,39.4,41.3,62.6
	c-0.7,9.6-4.8,17.7-8.9,25.6c-6.1,11.6-12.3,23.3-14.6,36.9c-2.4,14.1-0.9,35.1,13.7,46.3C-362.3,192.9-348.8,203.6-346,223.4z"/>
<g id="Grupo_155" transform="translate(0)">
	<path id="Caminho_644" class="st0" d="M-382.7,678.4l-83.9-104.8c-3.8,3.5-8.5,5.9-13.6,6.9c-15.8,3.1-31.2-7.7-34.5-24.1
		c-2.3-11.6,2.1-22.9,10.5-29.6l-28.6-35.7l-163,139.3l150,187.5L-382.7,678.4z"/>
	<path id="Caminho_645" class="st1" d="M-448.9,771.7l-89.8-168.9L-448.9,771.7z"/>
	<path id="Caminho_874" class="st2" d="M-273.3,818.6"/>
	<circle id="Elipse_157" class="st3" cx="-426" cy="515.7" r="6.4"/>
	<circle id="Elipse_159" class="st3" cx="-621.4" cy="531.8" r="6.4"/>
	<circle id="Elipse_160" class="st0" cx="-487" cy="551.7" r="23.7"/>
</g>
<g>
	<g>
		
			<linearGradient id="SVGID_2_" gradientUnits="userSpaceOnUse" x1="-803.9" y1="-99.0426" x2="-571.3" y2="-331.6426" gradientTransform="matrix(1 0 0 1 0 858.0426)">
			<stop  offset="0" style="stop-color:#88CEC9"/>
			<stop  offset="1" style="stop-color:#21AEA5"/>
		</linearGradient>
		<polygon class="st5" points="-747.3,815.6 -684.2,661 -720,661 -651,492.9 -604.8,492.9 -604.8,518.1 -634.2,518.1 -682.6,635.8 
			-646.8,635.8 -671.2,695.9 -588,605.5 -636.3,605.5 -587.6,554.3 -569.5,571.9 -577.5,580.3 -530.4,580.3 		"/>
	</g>
</g>
<g>
	<g>
		
			<linearGradient id="SVGID_3_" gradientUnits="userSpaceOnUse" x1="-595.3139" y1="-1282.7904" x2="-471.7693" y2="-1496.7761" gradientTransform="matrix(-1 0 0 1 -1131.9417 1557.1333)">
			<stop  offset="0.2151" style="stop-color:#FFBB86"/>
			<stop  offset="1" style="stop-color:#FFCA7A"/>
		</linearGradient>
		<path class="st6" d="M-729.1,208.8h8.9v24.3c0,6.3,5.1,11.4,11.4,11.4H-488c6.3,0,11.4-5.1,11.4-11.4V101.6
			c0-6.3-5.1-11.4-11.4-11.4h-220.8c-6.3,0-11.4,5.1-11.4,11.4v23.3h-8.9c-6.3,0-11.4,5.1-11.4,11.4v61.1
			C-740.4,203.7-735.4,208.8-729.1,208.8z M-697.4,113h198v108.8h-198v-24.3v-61.1V113L-697.4,113z"/>
		
			<linearGradient id="SVGID_4_" gradientUnits="userSpaceOnUse" x1="-627.3441" y1="-1349.0256" x2="-580.3391" y2="-1430.4409" gradientTransform="matrix(-1 0 0 1 -1131.9417 1557.1333)">
			<stop  offset="0.2151" style="stop-color:#FFBB86"/>
			<stop  offset="1" style="stop-color:#FFCA7A"/>
		</linearGradient>
		<rect x="-545.9" y="123.4" class="st7" width="35.6" height="88"/>
	</g>
</g>
<line id="Linha_19" class="st3" x1="-427.2" y1="315.6" x2="-427.2" y2="133.8"/>
<circle id="Elipse_222" class="st1" cx="-427.2" cy="133.8" r="25.7"/>
<path id="Caminho_849" class="st1" d="M-427.2,245.8c0,0-3.7-79-79-69.8"/>
<g id="Grupo_154" transform="translate(-2066.433 1240)">
	<g id="Grupo_152" transform="translate(1904 -1239.999)">
		<line id="Linha_17" class="st8" x1="1014.3" y1="308" x2="1287.3" y2="308"/>
		<path id="Caminho_850" class="st9" d="M1168.7,211.3c-27.3,41.7-19.8,94.8-19.8,94.8s51.7-14.6,79-56.3s19.8-94.8,19.8-94.8
			S1196,169.6,1168.7,211.3z"/>
		<path id="Caminho_851" class="st10" d="M1148.7,305.7c0,0-0.7-0.1-1.9-0.4c-1-0.2-2.3-0.5-4-0.9c-14.7-3.4-53.6-15.1-79.1-45.7
			c-31.9-38.4-30.5-91.9-30.5-91.9s48.7,7.9,80.9,42.3c1.4,1.5,2.7,3,4.1,4.6c27.7,33.4,30.3,78.3,30.5,89.4
			C1148.8,304.8,1148.7,305.7,1148.7,305.7z"/>
		<path id="Caminho_852" class="st8" d="M1129.1,211.3c27.3,41.7,19.8,94.8,19.8,94.8s-51.7-14.6-79-56.3s-19.8-94.8-19.8-94.8
			S1101.8,169.6,1129.1,211.3z"/>
		<path id="Caminho_853" class="st11" d="M1148.7,303.1c-0.7,0.9-1.4,1.6-1.9,2.2c-1.2,1.3-1.8,2-1.8,2s-0.8-1-2.1-2.9
			c-7.4-10.2-31.1-46.7-29.2-88.8c0.1-2.2,0.3-4.4,0.5-6.5c1.4,1.5,2.7,3,4.1,4.6C1146,247.1,1148.5,292,1148.7,303.1z"/>
		<path id="Caminho_854" class="st10" d="M1189.2,218.7c-2.2,49.8-39.2,88.6-39.2,88.6s-33.5-41.9-31.4-91.6s39.2-88.6,39.2-88.6
			S1191.3,168.9,1189.2,218.7z"/>
		<line id="Linha_20" class="st8" x1="1150" y1="305.9" x2="1158.1" y2="129.1"/>
	</g>
</g>
<g>
	<ellipse id="Elipse_233" class="st1" cx="-503.6" cy="-205.4" rx="147.1" ry="18.5"/>
	<rect id="Retângulo_276" x="-712" y="-221" class="st9" width="411.6" height="1"/>
	<path id="Caminho_888" class="st1" d="M-355.1-220.7l-45.1-67c0,0,68.3,23.9,60.6,67L-355.1-220.7L-355.1-220.7z"/>
	<path id="Caminho_889" class="st12" d="M-353.3-220.7l45.1-67c0,0-68.3,23.9-60.6,67L-353.3-220.7L-353.3-220.7z"/>
	<path id="Caminho_913" class="st9" d="M-698.9-221.2h-1.1c0.4-12.6,1.8-25.2,4-37.6c4.9-26.6,13.1-44.1,24.3-52l0.7,0.9
		C-697.2-291.6-698.9-221.9-698.9-221.2z"/>
	<path id="Caminho_914" class="st9" d="M-684.7-221.5h-1.1c0-1.3,0.7-30.9,12.4-39.1l0.7,0.9C-683.9-251.8-684.7-221.8-684.7-221.5z
		"/>
	<circle id="Elipse_239" class="st12" cx="-664.6" cy="-315.5" r="5.7"/>
	<circle id="Elipse_240" class="st12" cx="-667.4" cy="-266.7" r="5.7"/>
	<path id="Caminho_915" class="st9" d="M-687.3-306.4c1.1,6.8-1.7,12.9-1.7,12.9s-4.5-5-5.6-11.8s1.7-12.9,1.7-12.9
		S-688.4-313.3-687.3-306.4z"/>
	<path id="Caminho_916" class="st9" d="M-668.7-289.9c-6.5,2.2-13,0.6-13,0.6s4.1-5.3,10.6-7.5s13-0.6,13-0.6
		S-662.2-292.1-668.7-289.9z"/>
	<path id="Caminho_917" class="st9" d="M-668.5-246.6c-3,0.9-6.1,1.1-9.1,0.4c3.9-5,10.4-7.2,16.6-5.7
		C-663.1-249.5-665.6-247.7-668.5-246.6z"/>
</g>
<linearGradient id="SVGID_5_" gradientUnits="userSpaceOnUse" x1="-425.7211" y1="664.7183" x2="-652.3101" y2="795.5396" gradientTransform="matrix(1 0 0 -1 0 364)">
	<stop  offset="0" style="stop-color:#9271FF"/>
	<stop  offset="0.4634" style="stop-color:#7E6AFF"/>
	<stop  offset="1" style="stop-color:#6C63FF"/>
</linearGradient>
<path class="st13" d="M-407.1-442.4c-3.9-2.2-9.2-4.2-16.1-6c-12.4-3.3-29.6-5.9-49.9-7.5c-5.5-0.4-10.3,3.6-10.7,9.1
	c-0.4,5.5,3.6,10.3,9.1,10.7c26.2,2.1,41.8,5.4,50.3,8c-5.2,1.6-13.3,3.6-26,5.4c-20.7,3-47.1,4.6-74.3,4.6
	c-27.2,0-53.6-1.6-74.3-4.6c-12.6-1.8-20.7-3.7-25.9-5.4c5.2-1.6,13.3-3.6,25.9-5.4c20.7-3,47.1-4.6,74.3-4.6c5.5,0,10-4.5,10-10
	s-4.5-10-10-10c-31.9,0-62,2.1-84.7,6c-11.5,1.9-20.6,4.3-27.2,6.9c-10.3,4.1-15.5,9.8-15.5,17s5.2,12.9,15.5,17
	c5.7,2.3,13.3,4.3,22.8,6.1c-7.4,3.8-12.9,9.1-12.9,16.7c0,13.4,16.7,19.5,31,22.9c-7.5,4.6-11.3,10.2-11.3,16.9
	c0,10.5,9.4,18.5,27.9,23.7c0.3,0.1,0.7,0.2,1,0.3c-6.8,5.4-8.5,11.2-8.5,15.9c0,7,4,16.7,23,23.5c1.2,0.4,2.4,0.8,3.7,1.2
	c-5.3,5.6-6.3,11.3-6.3,14.9c0,5.4,2.3,15.5,17.6,22.9c2.2,1,4.5,2,6.9,2.8c-2.3,3.7-3.6,7.8-3.6,12.2c0,15.8,16.7,28.1,38,28.1
	c14.5,0,27.4-5.8,33.9-15.1c3.1-4.5,2-10.7-2.5-13.8s-10.7-2-13.8,2.5c-2.1,3.1-8.5,6.5-17.5,6.5c-11.2,0-18.1-5.3-18.1-8.2
	c0-2.4,5.2-7.2,15.3-8.1c0.7-0.1,1.4-0.2,2.1-0.4c16-1.3,29.8-6.6,37.2-14.6c3.7-4,3.5-10.3-0.5-14.1c-4-3.7-10.3-3.5-14.1,0.5
	c-3.8,4.1-14.8,8.5-30,8.5c-8.9,0-17.2-1.5-23.5-4.3c-5.5-2.4-7.2-4.8-7.4-5.4c0.2-0.6,1.9-3,7.4-5.4c6.3-2.8,14.6-4.3,23.5-4.3
	c0.6,0,1.1-0.1,1.6-0.1c21.7-0.9,40.6-6,50.3-13.8c4.3-3.4,5-9.7,1.6-14s-9.7-5-14-1.6c-5.8,4.6-22.3,9.6-44.9,9.6
	c-12.1,0-23.8-1.5-32.9-4.2c-7.1-2.1-10.8-4.4-12.4-5.8c1.6-1.4,5.3-3.7,12.4-5.8c9.1-2.7,20.8-4.2,32.9-4.2c0.3,0,0.6,0,0.9,0
	c29.7-0.5,55.8-5.4,68.8-13.2c4.7-2.8,6.3-8.9,3.5-13.6s-8.9-6.3-13.6-3.5c-8.7,5.2-31.7,10.4-63.4,10.4c-16.8,0-32.1-1.5-44.3-4.3
	c-8.5-2-13.5-4.1-16.2-5.7c2.6-1.6,7.6-3.7,16.2-5.7c12.2-2.8,27.6-4.3,44.3-4.3c32.7,0,76.9-4.1,93.6-15.8
	c4.5-3.1,5.6-9.3,2.5-13.9c-3.1-4.5-9.3-5.6-13.9-2.5c-8.5,5.9-40.2,12.2-82.3,12.2c-20.9,0-41.2-1.6-57.1-4.4
	c-10.6-1.9-17-3.9-20.8-5.5c3.8-1.6,10.2-3.6,20.8-5.5c15.9-2.9,36.2-4.4,57.1-4.4c31.9,0,62-2.1,84.7-6c11.5-1.9,20.6-4.3,27.2-6.9
	c10.3-4.1,15.5-9.8,15.5-17C-397.2-432-398.9-437.7-407.1-442.4z"/>
<linearGradient id="SVGID_6_" gradientUnits="userSpaceOnUse" x1="741.017" y1="-331.5947" x2="1001.517" y2="-331.5947" gradientTransform="matrix(1 0 0 1 0 858.0426)">
	<stop  offset="0" style="stop-color:#00F2FE"/>
	<stop  offset="2.080000e-02" style="stop-color:#03EFFE"/>
	<stop  offset="0.2931" style="stop-color:#24D2FE"/>
	<stop  offset="0.5538" style="stop-color:#3CBDFE"/>
	<stop  offset="0.7956" style="stop-color:#4AB0FE"/>
	<stop  offset="1" style="stop-color:#4FACFE"/>
</linearGradient>
<path class="st14" d="M871.5,600.6c4.9,4.3,11.2,7.2,18.4,7.2c11.6,0,22.1-7,26.6-17.7c0.2-0.5,0.7-1.1,1.4-1.1h0.4
	c7.7,0,15-3,20.5-8.4c5.7-5.5,8.8-12.8,8.8-20.5c0-5.1-1.6-10.2-4.5-14.9c5.9-6,9.1-13.9,9.1-22.2c0-7.6-2.7-15-7.7-20.7
	c-3.2-3.8-7.3-6.7-11.8-8.5c0.1-0.9,0.2-1.9,0.2-2.9c0-6.1-2.4-11.9-6.7-16.3c-3.8-3.8-8.9-6.3-14.3-7c-2-12.2-12.5-21.6-25.2-21.6
	c-5.6,0-11,1.8-15.3,5c-4.4-3.3-9.7-5-15.3-5c-12.6,0-23.1,9.3-25.1,21.6c-5.2,0.7-10,3-13.8,6.8c-4.4,4.4-6.8,10.3-6.8,16.5
	c0,0.9,0.1,1.8,0.1,2.6c-4.7,1.9-8.9,4.9-12.3,8.7c-5,5.8-7.7,13.1-7.7,20.7c0,8.7,3.5,16.6,9.1,22.3c-2.6,4.4-4,9.4-4,14.7
	c0,15.9,12.9,28.9,28.8,28.9h0.5c0.5,0,1,0.3,1.2,0.8c4.5,11,14.9,18,26.7,18C861.2,607.8,867.2,604.7,871.5,600.6z M844.8,582.1
	c-3.3-8.2-11.2-13.5-20-13.5h-0.5c-4.6,0-8.4-3.8-8.4-8.5c0-1.9,0.6-3.7,1.7-5.1c0.1-0.1,0.1-0.2,0.2-0.3c1.4,0.2,2.8,0.3,4.2,0.3
	c5.6,0,10.2-4.6,10.2-10.2c0-5.6-4.6-10.2-10.2-10.2c-6.2,0-11.2-5.2-11.2-11.5c0-5.5,4.1-10.4,9.6-11.2c1-0.2,1.9-0.5,2.8-0.9
	c0.4,0.1,0.9,0.1,1.3,0.1c2.8,0,5.6-1.2,7.6-3.4c3.7-4.2,3.3-10.6-0.9-14.4c-0.4-0.3-0.6-1.3-0.6-2.4c0-0.8,0.3-1.5,0.8-2
	c0.4-0.4,1.2-1,2.6-1h1.1c8.7,0,15.7-7,15.7-15.7c0-3,2.4-5.6,5.2-5.6c2.9,0,5.2,2.1,5.2,4.9v72.4c0,5.6,4.6,10.2,10.2,10.2
	c5.6,0,10.2-4.6,10.2-10.2v-72.6c0-2.8,2.2-4.9,5.2-4.9c2.8,0,5.2,2.5,5.2,5.4c0,8.8,7.1,16,15.7,16h1.2c1.1,0,2.2,0.4,2.9,1.2
	c0.6,0.6,0.8,1.2,0.8,1.8c0,1.2-0.7,2.1-1.1,2.4c-4.2,3.7-4.6,10.1-0.9,14.4c2.3,2.6,5.7,3.8,8.9,3.4c0.9,0.4,1.8,0.7,2.8,0.9
	c5.5,0.8,9.6,5.7,9.6,11.2c0,6.3-5.4,11.5-11.7,11.5c-5.6,0-10.2,4.6-10.2,10.2s4.6,10.2,10.2,10.2c1.6,0,3.2-0.1,4.7-0.3
	c0.1,0.1,0.2,0.3,0.3,0.4c1.4,1.8,2.2,3.6,2.2,5.1c0,4.6-4.2,8.5-9,8.5H918c-8.8,0-16.7,5.4-20.1,13.6c-1.3,3.2-4.4,5.3-7.8,5.3
	c-4.5,0-7.6-4.7-8.7-7.4c-0.7-3-2.8-5.7-5.8-7c-1.3-0.6-2.7-0.8-4-0.9c-0.2,0-0.5,0-0.7,0c-0.1,0-0.1,0-0.2,0
	c-0.7,0.1-1.4,0.2-2.2,0.4c-3.3,1-5.7,3.5-6.7,6.6c-3.6,7.9-5.7,8.3-8.9,8.3C849.2,587.5,846.1,585.4,844.8,582.1z M974.6,485.6
	c-2.4-4.6-0.8-10.3,3.6-13.1l0.4-0.2c4.9-3.1,11.5-1.3,14.1,3.9c0.1,0.2,0.2,0.4,0.3,0.5c2.6,5.2,0.2,11.5-5.2,13.7l-0.4,0.2
	c-4.8,2-10.3-0.2-12.7-4.8C974.7,485.7,974.6,485.7,974.6,485.6z M953.2,451.8c-3.8-3.6-4.2-9.5-0.9-13.5l0.3-0.3
	c3.6-4.5,10.4-5,14.6-1c0.1,0.1,0.3,0.3,0.4,0.4c4.2,4,4,10.8-0.3,14.6l-0.3,0.3c-3.9,3.5-9.8,3.3-13.5-0.3
	C953.3,451.8,953.3,451.8,953.2,451.8z M915.1,415.5l0.1-0.4c1.9-5.5,8.1-8.2,13.4-5.8c0.2,0.1,0.4,0.2,0.5,0.2
	c5.3,2.4,7.4,8.8,4.5,13.9l-0.2,0.4c-2.5,4.5-8.1,6.3-12.9,4.2c-0.1,0-0.1-0.1-0.2-0.1C915.7,425.8,913.3,420.4,915.1,415.5z
	 M765.9,567.7c2.4,4.6,0.8,10.3-3.6,13.1l-0.4,0.2c-4.9,3.1-11.5,1.3-14.1-3.9c-0.1-0.2-0.2-0.4-0.3-0.5c-2.6-5.2-0.2-11.5,5.2-13.7
	l0.4-0.2c4.8-2,10.3,0.2,12.7,4.8C765.8,567.6,765.8,567.7,765.9,567.7z M787.2,601.6c3.8,3.6,4.2,9.5,0.9,13.5l-0.3,0.3
	c-3.6,4.5-10.4,5-14.6,1c-0.1-0.1-0.3-0.3-0.4-0.4c-4.2-4-4-10.8,0.3-14.6l0.3-0.3c3.9-3.5,9.8-3.3,13.5,0.3
	C787.1,601.5,787.2,601.6,787.2,601.6z M825.4,637.9l-0.1,0.4c-1.9,5.5-8.1,8.2-13.4,5.8c-0.2-0.1-0.4-0.2-0.5-0.2
	c-5.3-2.4-7.4-8.8-4.5-13.9l0.2-0.4c2.5-4.5,8.1-6.3,12.9-4.2c0.1,0,0.1,0.1,0.2,0.1C824.8,627.6,827.1,633,825.4,637.9z
	 M751.2,536.6c-5.6,0-10.2-4.6-10.2-10.2c0-34.8,13.5-67.5,38.1-92.1c24.6-24.6,57.3-38.1,92.1-38.1c3.7,0,7.4,0.2,11.1,0.5
	c5.9,0.5,10.1,6,9.1,11.8c-0.9,5.2-5.6,8.9-10.9,8.4c-3.1-0.3-6.2-0.4-9.3-0.4c-60.6,0-109.9,49.3-109.9,109.9
	C761.4,532,756.8,536.6,751.2,536.6z M1001.5,526.4c0,34.8-13.4,67.5-37.9,92.1c-24.5,24.6-57.1,38.2-91.9,38.2
	c-3.7,0-7.4-0.2-11.1-0.5c-5.9-0.5-10.1-6-9.1-11.8c0.9-5.2,5.6-8.9,10.9-8.4c3.1,0.3,6.2,0.4,9.3,0.4
	c60.3,0,109.4-49.3,109.4-109.9c0-5.6,4.6-10.2,10.2-10.2C996.9,516.3,1001.5,520.8,1001.5,526.4z"/>
<linearGradient id="SVGID_7_" gradientUnits="userSpaceOnUse" x1="1323.6161" y1="-402.7553" x2="1500.001" y2="-402.7553">
	<stop  offset="0" style="stop-color:#FF7AC9"/>
	<stop  offset="1" style="stop-color:#E05CA5"/>
</linearGradient>
<path class="st15" d="M1418.2-495.9c38.5,0,69.8,32.1,69.8,71.6s-31.2,71.6-69.8,71.6s-69.8-32.1-69.8-71.6
	S1379.6-495.9,1418.2-495.9L1418.2-495.9z M1406.5-329.5v25.8h-11.6c-6.4,0-11.6,5.3-11.6,11.9s5.2,11.9,11.6,11.9h11.6v11.9
	c0,6.6,5.2,11.9,11.6,11.9c6.4,0,11.6-5.3,11.6-11.9v-11.9h11.6c6.4,0,11.6-5.3,11.6-11.9s-5.2-11.9-11.6-11.9h-11.6v-25.8
	c46.4-5.9,81.4-46.6,81.4-94.8c0-22.1-7.3-42.4-19.5-58.6l25.4-26v12.3c0,6.6,5.2,11.9,11.6,11.9s11.6-5.3,11.6-11.9v-41.1
	c0-6.6-5.2-11.9-11.6-11.9h-40c-6.4,0-11.6,5.3-11.6,11.9s5.2,11.9,11.6,11.9h12l-25.4,26c-15.8-12.6-35.5-20.1-57-20.1
	c-51.4,0-93,42.8-93,95.5C1325.1-376.1,1360.1-335.4,1406.5-329.5L1406.5-329.5z"/>
<path class="st0" d="M289.2,681.5c1.3,0,2.6-0.5,3.7-1.4l0,0c2.5-2.1,2.8-5.9,0.7-8.4s-5.7-2.9-8.2-0.8c-2.5,2.1-2.8,5.9-0.7,8.4
	C285.9,680.8,287.6,681.5,289.2,681.5z"/>
<circle id="Elipse_159_1_" class="st3" cx="1451.5" cy="-545" r="6"/>
<linearGradient id="SVGID_8_" gradientUnits="userSpaceOnUse" x1="1360.203" y1="-426.2553" x2="1454.4142" y2="-426.2553">
	<stop  offset="0" style="stop-color:#88CEC9"/>
	<stop  offset="1" style="stop-color:#21AEA5"/>
</linearGradient>
<circle class="st16" cx="1418.5" cy="-426.3" r="57.4"/>
<g id="Grupo_155_2_" transform="translate(0)">
	<path id="Caminho_644_1_" class="st0" d="M378,209.7l-83.9-104.8c-3.8,3.5-8.5,5.9-13.6,6.9c-15.8,3.1-31.2-7.7-34.5-24.1
		c-2.3-11.6,2.1-22.9,10.5-29.6l-28.6-35.7l-163,139.3l150,187.5L378,209.7z"/>
	<path id="Caminho_874_2_" class="st2" d="M487.4,349.9"/>
	<circle id="Elipse_157_2_" class="st3" cx="334.7" cy="47" r="6.4"/>
	<circle id="Elipse_159_2_" class="st3" cx="139.3" cy="63.1" r="6.4"/>
	<circle id="Elipse_160_1_" class="st0" cx="273.7" cy="83" r="23.7"/>
</g>
<g>
	<g>
		<path class="st1" d="M183.7,150.9h5v174.3h-5V150.9z"/>
		<path class="st17" d="M228.2,22.3l-41.3,124.5l44,14.6l25.5-77L228.2,22.3z"/>
		<linearGradient id="SVGID_9_" gradientUnits="userSpaceOnUse" x1="186.8832" y1="84.5039" x2="256.4096" y2="84.5039">
			<stop  offset="0.2151" style="stop-color:#FFBB86"/>
			<stop  offset="1" style="stop-color:#FFCA7A"/>
		</linearGradient>
		<path class="st18" d="M228.2,22.3l-41.3,124.5l69.5-62.4L228.2,22.3z"/>
		<linearGradient id="SVGID_10_" gradientUnits="userSpaceOnUse" x1="118.016" y1="199.7488" x2="187.5417" y2="199.7488">
			<stop  offset="0.1698" style="stop-color:#FF6F61"/>
			<stop  offset="0.6116" style="stop-color:#FF6D63"/>
			<stop  offset="0.7993" style="stop-color:#FD666A"/>
			<stop  offset="0.9385" style="stop-color:#FB5977"/>
			<stop  offset="1" style="stop-color:#F9517F"/>
		</linearGradient>
		<path class="st19" d="M146.3,269.3l41.3-124.5l-44-14.6l-25.5,77L146.3,269.3z"/>
		<path class="st20" d="M146.3,269.3l41.3-124.5L118,207.2L146.3,269.3z"/>
		<linearGradient id="SVGID_11_" gradientUnits="userSpaceOnUse" x1="172.6163" y1="180.2258" x2="310.7447" y2="180.2258">
			<stop  offset="0" style="stop-color:#88CEC9"/>
			<stop  offset="1" style="stop-color:#21AEA5"/>
		</linearGradient>
		<path class="st21" d="M310.7,186.7l-124.5-41.3l-13.6,44.3l76,25.2L310.7,186.7z"/>
		<path class="st22" d="M310.7,186.7l-124.5-41.3l62.4,69.5L310.7,186.7z"/>
		<linearGradient id="SVGID_12_" gradientUnits="userSpaceOnUse" x1="63.6809" y1="111.3422" x2="201.8106" y2="111.3422">
			<stop  offset="0" style="stop-color:#9271FF"/>
			<stop  offset="0.4634" style="stop-color:#7E6AFF"/>
			<stop  offset="1" style="stop-color:#6C63FF"/>
		</linearGradient>
		<path class="st23" d="M63.7,104.8l124.5,41.3l13.6-44.3l-76-25.2L63.7,104.8z"/>
		<linearGradient id="SVGID_13_" gradientUnits="userSpaceOnUse" x1="109.177" y1="89.8905" x2="162.282" y2="202.5194">
			<stop  offset="0" style="stop-color:#9271FF"/>
			<stop  offset="0.4634" style="stop-color:#7E6AFF"/>
			<stop  offset="0.9818" style="stop-color:#6C63FF"/>
		</linearGradient>
		<path class="st24" d="M63.7,104.8l124.5,41.3l-62.4-69.5L63.7,104.8z"/>
		<path class="st25" d="M190.5,132.8c-6.9-2.3-14.4,1.5-16.6,8.5c-2.3,6.9,1.5,14.4,8.5,16.6c6.9,2.2,14.2-1.5,16.6-8.3
			c2.3-6.9-1.3-14.4-8.2-16.7C190.6,132.9,190.6,132.9,190.5,132.8z"/>
	</g>
</g>
</svg>
