<?xml version="1.0" encoding="utf-8"?>
<!-- Generator: Adobe Illustrator 23.0.1, SVG Export Plug-In . SVG Version: 6.00 Build 0)  -->
<svg version="1.1" id="Camada_1" xmlns="http://www.w3.org/2000/svg" xmlns:xlink="http://www.w3.org/1999/xlink" x="0px" y="0px"
	 viewBox="0 0 787 962.7" style="enable-background:new 0 0 787 962.7;" xml:space="preserve">
<style type="text/css">
	.st0{fill:#EDEFEF;}
	.st1{fill:#FFFFFF;}
	.st2{fill:#1D2B36;}
	.st3{fill:#FBF6EE;}
	.st4{fill:#FFD355;}
	.st5{fill:#E27E67;}
</style>
<g>
	<path class="st0" d="M199.6,640l3.8-3.8c0.6-0.6,0.8-1.4,0.6-2.1l-3.7-13.3c-0.2-0.8-0.8-1.2-1.4-1.4l-13.5-3.7
		c-0.6-0.2-1.4,0-1.8,0.5l-4,4l15.8,4.1L199.6,640C199.5,640,199.6,640,199.6,640z"/>
	<path class="st0" d="M214,625.6l3.8-3.8c0.6-0.6,0.8-1.4,0.6-2.1l-3.7-13.3c-0.2-0.8-0.8-1.2-1.4-1.4l-13.5-3.7
		c-0.6-0.2-1.4,0-1.8,0.5l-4,4l15.8,4.1L214,625.6C213.9,625.6,214,625.6,214,625.6z"/>
	<path class="st0" d="M228.5,611.1l3.8-3.8c0.6-0.6,0.8-1.4,0.6-2.1l-3.7-13.3c-0.2-0.8-0.8-1.2-1.4-1.4l-13.5-3.7
		c-0.6-0.2-1.4,0-1.8,0.5l-4,4l15.8,4.1L228.5,611.1L228.5,611.1z"/>
	<path class="st0" d="M242.9,596.7l3.8-3.8c0.6-0.6,0.8-1.4,0.6-2.1l-3.7-13.3c-0.2-0.8-0.8-1.2-1.4-1.4l-13.5-3.7
		c-0.6-0.2-1.4,0-1.8,0.5l-4,4l15.8,4.1L242.9,596.7L242.9,596.7z"/>
	<path class="st0" d="M257.3,582.3l3.8-3.8c0.6-0.6,0.8-1.4,0.6-2.1l-3.7-13.3c-0.2-0.8-0.8-1.2-1.4-1.4l-13.5-3.7
		c-0.6-0.2-1.4,0-1.8,0.5l-4,4l15.8,4.1L257.3,582.3L257.3,582.3z"/>
	<path class="st0" d="M271.7,567.9l3.8-3.8c0.6-0.6,0.8-1.4,0.6-2.1l-3.7-13.3c-0.2-0.8-0.8-1.2-1.4-1.4l-13.5-3.7
		c-0.6-0.2-1.4,0-1.8,0.5l-4,4l15.8,4.1L271.7,567.9L271.7,567.9z"/>
	<path class="st0" d="M286.2,553.3l3.8-3.8c0.6-0.6,0.8-1.4,0.6-2.1l-3.7-13.3c-0.2-0.8-0.8-1.2-1.4-1.4l-13.5-3.7
		c-0.6-0.2-1.4,0-1.8,0.5l-4,4l15.8,4.1L286.2,553.3C286.2,553.4,286.2,553.4,286.2,553.3z"/>
	<path class="st0" d="M300.6,538.9l3.8-3.8c0.6-0.6,0.8-1.4,0.6-2.1l-3.7-13.3c-0.2-0.8-0.8-1.2-1.4-1.4l-13.5-3.7
		c-0.6-0.2-1.4,0-1.8,0.5l-4,4l15.8,4.1L300.6,538.9C300.6,539,300.6,539,300.6,538.9z"/>
	<path class="st0" d="M315.2,524.5l3.8-3.8c0.6-0.6,0.8-1.4,0.6-2.1l-3.7-13.3c-0.2-0.8-0.8-1.2-1.4-1.4l-13.5-3.7
		c-0.6-0.2-1.4,0-1.8,0.5l-4,4l15.8,4.1L315.2,524.5C315,524.6,315,524.6,315.2,524.5z"/>
	<path class="st0" d="M329.6,510l3.8-3.8c0.6-0.6,0.8-1.4,0.6-2.1l-3.7-13.3c-0.2-0.8-0.8-1.2-1.4-1.4l-13.5-3.7
		c-0.6-0.2-1.4,0-1.8,0.5l-4,4l15.8,4.1L329.6,510C329.4,510,329.4,510.2,329.6,510z"/>
	<path class="st0" d="M344,495.6l3.8-3.8c0.6-0.6,0.8-1.4,0.6-2.1l-3.7-13.3c-0.2-0.8-0.8-1.2-1.4-1.4l-13.5-3.7
		c-0.6-0.2-1.4,0-1.8,0.5l-4,4l15.8,4.1L344,495.6C343.9,495.6,343.9,495.6,344,495.6z"/>
	<path class="st0" d="M358.4,481.2l3.8-3.8c0.6-0.6,0.8-1.4,0.6-2.1l-3.7-13.3c-0.2-0.8-0.8-1.2-1.4-1.4l-13.5-3.7
		c-0.6-0.2-1.4,0-1.8,0.5l-4,4l15.8,4.1L358.4,481.2C358.3,481.2,358.3,481.2,358.4,481.2z"/>
	<path class="st0" d="M372.9,466.8l3.8-3.8c0.6-0.6,0.8-1.4,0.6-2.1l-3.7-13.3c-0.2-0.8-0.8-1.2-1.4-1.4l-13.5-3.7
		c-0.6-0.2-1.4,0-1.8,0.5l-4,4l15.8,4.1L372.9,466.8C372.7,466.8,372.9,466.8,372.9,466.8z"/>
	<path class="st0" d="M387.3,452.3l3.8-3.8c0.6-0.6,0.8-1.4,0.6-2.1L388,433c-0.2-0.8-0.8-1.2-1.4-1.4l-13.5-3.7
		c-0.6-0.2-1.4,0-1.8,0.5l-4,4l15.8,4.1L387.3,452.3C387.1,452.3,387.3,452.3,387.3,452.3z"/>
	<path class="st0" d="M401.7,437.9l3.8-3.8c0.6-0.6,0.8-1.4,0.6-2.1l-3.7-13.3c-0.2-0.8-0.8-1.2-1.4-1.4l-13.5-3.7
		c-0.6-0.2-1.4,0-1.8,0.5l-4,4l15.8,4.1L401.7,437.9C401.5,437.9,401.7,437.9,401.7,437.9z"/>
	<path class="st0" d="M416.1,423.5l3.8-3.8c0.6-0.6,0.8-1.4,0.6-2.1l-3.7-13.3c-0.2-0.8-0.8-1.2-1.4-1.4l-13.5-3.7
		c-0.6-0.2-1.4,0-1.8,0.5l-4,4l15.8,4.1L416.1,423.5C416,423.5,416.1,423.5,416.1,423.5z"/>
	<path class="st0" d="M430.5,409.1l3.8-3.8c0.6-0.6,0.8-1.4,0.6-2.1l-3.7-13.3c-0.2-0.8-0.8-1.2-1.4-1.4l-13.5-3.7
		c-0.6-0.2-1.4,0-1.8,0.5l-4,4l15.8,4.1L430.5,409.1C430.4,409.1,430.5,409.1,430.5,409.1z"/>
	<path class="st0" d="M445,394.6l3.8-3.8c0.6-0.6,0.8-1.4,0.6-2.1l-3.7-13.3c-0.2-0.8-0.8-1.2-1.4-1.4l-13.5-3.7
		c-0.6-0.2-1.4,0-1.8,0.5l-4,4l15.8,4.1L445,394.6C444.8,394.6,445,394.6,445,394.6z"/>
	<path class="st0" d="M459.4,380.2l3.8-3.8c0.6-0.6,0.8-1.4,0.6-2.1l-3.7-13.3c-0.2-0.8-0.8-1.2-1.4-1.4l-13.5-3.7
		c-0.6-0.2-1.4,0-1.8,0.5l-4,4l15.8,4.1L459.4,380.2C459.2,380.2,459.4,380.2,459.4,380.2z"/>
	<path class="st0" d="M473.8,365.8l3.8-3.8c0.6-0.6,0.8-1.4,0.6-2.1l-3.7-13.3c-0.2-0.8-0.8-1.2-1.4-1.4l-13.5-3.7
		c-0.6-0.2-1.4,0-1.8,0.5l-4,4l15.8,4.1L473.8,365.8L473.8,365.8z"/>
	<path class="st0" d="M153.4,593.8l3.8-3.8c0.6-0.6,0.8-1.4,0.6-2.1l-3.7-13.3c-0.2-0.8-0.8-1.2-1.4-1.4l-13.5-3.7
		c-0.6-0.2-1.4,0-1.8,0.5l-4,4l15.8,4.1L153.4,593.8C153.3,593.8,153.4,593.8,153.4,593.8z"/>
	<path class="st0" d="M167.9,579.4l3.8-3.8c0.6-0.6,0.8-1.4,0.6-2.1l-3.7-13.3c-0.2-0.8-0.8-1.2-1.4-1.4l-13.5-3.7
		c-0.6-0.2-1.4,0-1.8,0.5l-4,4l15.8,4.1L167.9,579.4C167.7,579.4,167.9,579.4,167.9,579.4z"/>
	<path class="st0" d="M182.3,565l3.8-3.8c0.6-0.6,0.8-1.4,0.6-2.1l-3.7-13.3c-0.2-0.8-0.8-1.2-1.4-1.4l-13.5-3.7
		c-0.6-0.2-1.4,0-1.8,0.5l-4,4l15.8,4.1L182.3,565L182.3,565z"/>
	<path class="st0" d="M196.7,550.5l3.8-3.8c0.6-0.6,0.8-1.4,0.6-2.1l-3.7-13.3c-0.2-0.8-0.8-1.2-1.4-1.4l-13.5-3.7
		c-0.6-0.2-1.4,0-1.8,0.5l-4,4l15.8,4.1L196.7,550.5L196.7,550.5z"/>
	<path class="st0" d="M211.1,536.1l3.8-3.8c0.6-0.6,0.8-1.4,0.6-2.1l-3.7-13.3c-0.2-0.8-0.8-1.2-1.4-1.4l-13.5-3.7
		c-0.6-0.2-1.4,0-1.8,0.5l-4,4l15.8,4.1L211.1,536.1L211.1,536.1z"/>
	<path class="st0" d="M225.6,521.7l3.8-3.8c0.6-0.6,0.8-1.4,0.6-2.1l-3.7-13.3c-0.2-0.8-0.8-1.2-1.4-1.4l-13.5-3.7
		c-0.6-0.2-1.4,0-1.8,0.5l-4,4l15.8,4.1L225.6,521.7L225.6,521.7z"/>
	<path class="st0" d="M240,507.3l3.8-3.8c0.6-0.6,0.8-1.4,0.6-2.1l-3.7-13.3c-0.2-0.8-0.8-1.2-1.4-1.4l-13.5-3.7
		c-0.6-0.2-1.4,0-1.8,0.5l-4,4l15.8,4.1L240,507.3L240,507.3z"/>
	<path class="st0" d="M254.4,492.7l3.8-3.8c0.6-0.6,0.8-1.4,0.6-2.1l-3.7-13.3c-0.2-0.8-0.8-1.2-1.4-1.4l-13.5-3.7
		c-0.6-0.2-1.4,0-1.8,0.5l-4,4l15.8,4.1L254.4,492.7C254.4,492.8,254.4,492.8,254.4,492.7z"/>
	<path class="st0" d="M269,478.3l3.8-3.8c0.6-0.6,0.8-1.4,0.6-2.1l-3.7-13.3c-0.2-0.8-0.8-1.2-1.4-1.4l-13.5-3.7
		c-0.6-0.2-1.4,0-1.8,0.5l-4,4l15.8,4.1L269,478.3C268.8,478.4,268.8,478.4,269,478.3z"/>
	<path class="st0" d="M283.4,463.8l3.8-3.8c0.6-0.6,0.8-1.4,0.6-2.1l-3.7-13.3c-0.2-0.8-0.8-1.2-1.4-1.4l-13.5-3.7
		c-0.6-0.2-1.4,0-1.8,0.5l-4,4l15.8,4.1L283.4,463.8C283.2,463.8,283.2,464,283.4,463.8z"/>
	<path class="st0" d="M297.8,449.4l3.8-3.8c0.6-0.6,0.8-1.4,0.6-2.1l-3.7-13.3c-0.2-0.8-0.8-1.2-1.4-1.4l-13.5-3.7
		c-0.6-0.2-1.4,0-1.8,0.5l-4,4l15.8,4.1L297.8,449.4C297.7,449.4,297.7,449.6,297.8,449.4z"/>
	<path class="st0" d="M312.2,435l3.8-3.8c0.6-0.6,0.8-1.4,0.6-2.1l-3.7-13.3c-0.2-0.8-0.8-1.2-1.4-1.4l-13.5-3.7
		c-0.6-0.2-1.4,0-1.8,0.5l-4,4l15.8,4.1L312.2,435C312.1,435,312.1,435,312.2,435z"/>
	<path class="st0" d="M326.7,420.6l3.8-3.8c0.6-0.6,0.8-1.4,0.6-2.1l-3.7-13.3c-0.2-0.8-0.8-1.2-1.4-1.4l-13.5-3.7
		c-0.6-0.2-1.4,0-1.8,0.5l-4,4l15.8,4.1L326.7,420.6C326.5,420.6,326.7,420.6,326.7,420.6z"/>
	<path class="st0" d="M341.1,406.2l3.8-3.8c0.6-0.6,0.8-1.4,0.6-2.1l-3.7-13.3c-0.2-0.8-0.8-1.2-1.4-1.4l-13.5-3.7
		c-0.6-0.2-1.4,0-1.8,0.5l-4,4l15.8,4.1L341.1,406.2C340.9,406.2,341.1,406.2,341.1,406.2z"/>
	<path class="st0" d="M355.5,391.7l3.8-3.8c0.6-0.6,0.8-1.4,0.6-2.1l-3.7-13.3c-0.2-0.8-0.8-1.2-1.4-1.4l-13.5-3.7
		c-0.6-0.2-1.4,0-1.8,0.5l-4,4l15.8,4.1L355.5,391.7C355.4,391.7,355.5,391.7,355.5,391.7z"/>
	<path class="st0" d="M369.9,377.3l3.8-3.8c0.6-0.6,0.8-1.4,0.6-2.1l-3.7-13.3c-0.2-0.8-0.8-1.2-1.4-1.4l-13.5-3.7
		c-0.6-0.2-1.4,0-1.8,0.5l-4,4l15.8,4.1L369.9,377.3C369.8,377.3,369.9,377.3,369.9,377.3z"/>
	<path class="st0" d="M384.4,362.9l3.8-3.8c0.6-0.6,0.8-1.4,0.6-2.1l-3.7-13.3c-0.2-0.8-0.8-1.2-1.4-1.4l-13.5-3.7
		c-0.6-0.2-1.4,0-1.8,0.5l-4,4l15.8,4.1L384.4,362.9C384.2,362.9,384.4,362.9,384.4,362.9z"/>
	<path class="st0" d="M398.8,348.5l3.8-3.8c0.6-0.6,0.8-1.4,0.6-2.1l-3.7-13.3c-0.2-0.8-0.8-1.2-1.4-1.4l-13.5-3.7
		c-0.6-0.2-1.4,0-1.8,0.5l-4,4l15.8,4.1L398.8,348.5C398.6,348.5,398.8,348.5,398.8,348.5z"/>
	<path class="st0" d="M413.2,334l3.8-3.8c0.6-0.6,0.8-1.4,0.6-2.1l-3.7-13.3c-0.2-0.8-0.8-1.2-1.4-1.4l-13.5-3.7
		c-0.6-0.2-1.4,0-1.8,0.5l-4,4l15.8,4.1L413.2,334C413.1,334,413.2,334,413.2,334z"/>
	<path class="st0" d="M427.6,319.6l3.8-3.8c0.6-0.6,0.8-1.4,0.6-2.1l-3.7-13.3c-0.2-0.8-0.8-1.2-1.4-1.4l-13.5-3.7
		c-0.6-0.2-1.4,0-1.8,0.5l-4,4l15.8,4.1L427.6,319.6L427.6,319.6z"/>
	<path class="st0" d="M169.4,624l3.8-3.8c0.6-0.6,0.8-1.4,0.6-2.1l-3.7-13.3c-0.2-0.8-0.8-1.2-1.4-1.4l-13.5-3.7
		c-0.6-0.2-1.4,0-1.8,0.5l-4,4l15.8,4.1L169.4,624C169.2,624.2,169.2,624.2,169.4,624z"/>
	<path class="st0" d="M183.8,609.6l3.8-3.8c0.6-0.6,0.8-1.4,0.6-2.1l-3.7-13.3c-0.2-0.8-0.8-1.2-1.4-1.4l-13.5-3.7
		c-0.6-0.2-1.4,0-1.8,0.5l-4,4l15.8,4.1L183.8,609.6C183.7,609.6,183.7,609.8,183.8,609.6z"/>
	<path class="st0" d="M198.2,595.2l3.8-3.8c0.6-0.6,0.8-1.4,0.6-2.1l-3.7-13.3c-0.2-0.8-0.8-1.2-1.4-1.4l-13.5-3.7
		c-0.6-0.2-1.4,0-1.8,0.5l-4,4l15.8,4.1L198.2,595.2C198.1,595.2,198.1,595.3,198.2,595.2z"/>
	<path class="st0" d="M212.7,580.8l3.8-3.8c0.6-0.6,0.8-1.4,0.6-2.1l-3.7-13.3c-0.2-0.8-0.8-1.2-1.4-1.4l-13.5-3.7
		c-0.6-0.2-1.4,0-1.8,0.5l-4,4l15.8,4.1L212.7,580.8C212.5,580.8,212.5,580.8,212.7,580.8z"/>
	<path class="st0" d="M227.1,566.3l3.8-3.8c0.6-0.6,0.8-1.4,0.6-2.1l-3.7-13.3c-0.2-0.8-0.8-1.2-1.4-1.4l-13.5-3.7
		c-0.6-0.2-1.4,0-1.8,0.5l-4,4l15.8,4.1L227.1,566.3C226.9,566.3,227.1,566.3,227.1,566.3z"/>
	<path class="st0" d="M241.5,551.9l3.8-3.8c0.6-0.6,0.8-1.4,0.6-2.1l-3.7-13.3c-0.2-0.8-0.8-1.2-1.4-1.4l-13.5-3.7
		c-0.6-0.2-1.4,0-1.8,0.5l-4,4l15.8,4.1L241.5,551.9C241.4,551.9,241.5,551.9,241.5,551.9z"/>
	<path class="st0" d="M255.9,537.5l3.8-3.8c0.6-0.6,0.8-1.4,0.6-2.1l-3.7-13.3c-0.2-0.8-0.8-1.2-1.4-1.4l-13.5-3.7
		c-0.6-0.2-1.4,0-1.8,0.5l-4,4l15.8,4.1L255.9,537.5C255.8,537.5,255.9,537.5,255.9,537.5z"/>
	<path class="st0" d="M270.4,523.1l3.8-3.8c0.6-0.6,0.8-1.4,0.6-2.1l-3.7-13.3c-0.2-0.8-0.8-1.2-1.4-1.4l-13.5-3.7
		c-0.6-0.2-1.4,0-1.8,0.5l-4,4l15.8,4.1L270.4,523.1C270.2,523.1,270.4,523.1,270.4,523.1z"/>
	<path class="st0" d="M284.8,508.6l3.8-3.8c0.6-0.6,0.8-1.4,0.6-2.1l-3.7-13.3c-0.2-0.8-0.8-1.2-1.4-1.4l-13.5-3.7
		c-0.6-0.2-1.4,0-1.8,0.5l-4,4l15.8,4.1L284.8,508.6C284.6,508.6,284.8,508.6,284.8,508.6z"/>
	<path class="st0" d="M299.2,494.2l3.8-3.8c0.6-0.6,0.8-1.4,0.6-2.1l-3.7-13.3c-0.2-0.8-0.8-1.2-1.4-1.4l-13.5-3.7
		c-0.6-0.2-1.4,0-1.8,0.5l-4,4l15.8,4.1L299.2,494.2C299,494.2,299.2,494.2,299.2,494.2z"/>
	<path class="st0" d="M313.6,479.8l3.8-3.8c0.6-0.6,0.8-1.4,0.6-2.1l-3.7-13.3c-0.2-0.8-0.8-1.2-1.4-1.4l-13.5-3.7
		c-0.6-0.2-1.4,0-1.8,0.5l-4,4l15.8,4.1L313.6,479.8C313.5,479.8,313.6,479.8,313.6,479.8z"/>
	<path class="st0" d="M328,465.4l3.8-3.8c0.6-0.6,0.8-1.4,0.6-2.1l-3.7-13.3c-0.2-0.8-0.8-1.2-1.4-1.4l-13.5-3.7
		c-0.6-0.2-1.4,0-1.8,0.5l-4,4l15.8,4.1L328,465.4L328,465.4z"/>
	<path class="st0" d="M342.5,451l3.8-3.8c0.6-0.6,0.8-1.4,0.6-2.1l-3.7-13.3c-0.2-0.8-0.8-1.2-1.4-1.4l-13.5-3.7
		c-0.6-0.2-1.4,0-1.8,0.5l-4,4l15.8,4.1L342.5,451L342.5,451z"/>
	<path class="st0" d="M356.9,436.5l3.8-3.8c0.6-0.6,0.8-1.4,0.6-2.1l-3.7-13.3c-0.2-0.8-0.8-1.2-1.4-1.4l-13.5-3.7
		c-0.6-0.2-1.4,0-1.8,0.5l-4,4l15.8,4.1L356.9,436.5L356.9,436.5z"/>
	<path class="st0" d="M371.3,422.1l3.8-3.8c0.6-0.6,0.8-1.4,0.6-2.1l-3.7-13.3c-0.2-0.8-0.8-1.2-1.4-1.4l-13.5-3.7
		c-0.6-0.2-1.4,0-1.8,0.5l-4,4l15.8,4.1L371.3,422.1L371.3,422.1z"/>
	<path class="st0" d="M385.7,407.5l3.8-3.8c0.6-0.6,0.8-1.4,0.6-2.1l-3.7-13.3c-0.2-0.8-0.8-1.2-1.4-1.4l-13.5-3.7
		c-0.6-0.2-1.4,0-1.8,0.5l-4,4l15.8,4.1L385.7,407.5C385.7,407.7,385.7,407.7,385.7,407.5z"/>
	<path class="st0" d="M400.2,393.1l3.8-3.8c0.6-0.6,0.8-1.4,0.6-2.1l-3.7-13.3c-0.2-0.8-0.8-1.2-1.4-1.4l-13.5-3.7
		c-0.6-0.2-1.4,0-1.8,0.5l-4,4l15.8,4.1L400.2,393.1C400.2,393.3,400.2,393.3,400.2,393.1z"/>
	<path class="st0" d="M414.7,378.7l3.8-3.8c0.6-0.6,0.8-1.4,0.6-2.1l-3.7-13.3c-0.2-0.8-0.8-1.2-1.4-1.4l-13.5-3.7
		c-0.6-0.2-1.4,0-1.8,0.5l-4,4l15.8,4.1L414.7,378.7C414.6,378.8,414.6,378.8,414.7,378.7z"/>
	<path class="st0" d="M429.2,364.3l3.8-3.8c0.6-0.6,0.8-1.4,0.6-2.1l-3.7-13.3c-0.2-0.8-0.8-1.2-1.4-1.4l-13.5-3.7
		c-0.6-0.2-1.4,0-1.8,0.5l-4,4l15.8,4.1L429.2,364.3C429,364.3,429,364.4,429.2,364.3z"/>
	<path class="st0" d="M110.2,593.8l3.8-3.8c0.6-0.6,0.8-1.4,0.6-2.1l-3.7-13.3c-0.2-0.8-0.8-1.2-1.4-1.4l-13.5-3.7
		c-0.6-0.2-1.4,0-1.8,0.5l-4,4L106,578L110.2,593.8C110,593.8,110.2,593.8,110.2,593.8z"/>
	<path class="st0" d="M124.6,579.4l3.8-3.8c0.6-0.6,0.8-1.4,0.6-2.1l-3.7-13.3c-0.2-0.8-0.8-1.2-1.4-1.4l-13.5-3.7
		c-0.6-0.2-1.4,0-1.8,0.5l-4,4l15.8,4.1L124.6,579.4C124.4,579.4,124.6,579.4,124.6,579.4z"/>
	<path class="st0" d="M139,565l3.8-3.8c0.6-0.6,0.8-1.4,0.6-2.1l-3.7-13.3c-0.2-0.8-0.8-1.2-1.4-1.4l-13.5-3.7
		c-0.6-0.2-1.4,0-1.8,0.5l-4,4l15.8,4.1L139,565C138.9,565,139,565,139,565z"/>
	<path class="st0" d="M153.4,550.5l3.8-3.8c0.6-0.6,0.8-1.4,0.6-2.1l-3.7-13.3c-0.2-0.8-0.8-1.2-1.4-1.4l-13.5-3.7
		c-0.6-0.2-1.4,0-1.8,0.5l-4,4l15.8,4.1L153.4,550.5C153.3,550.5,153.4,550.5,153.4,550.5z"/>
	<path class="st0" d="M167.9,536.1l3.8-3.8c0.6-0.6,0.8-1.4,0.6-2.1l-3.7-13.3c-0.2-0.8-0.8-1.2-1.4-1.4l-13.5-3.7
		c-0.6-0.2-1.4,0-1.8,0.5l-4,4l15.8,4.1L167.9,536.1C167.7,536.1,167.9,536.1,167.9,536.1z"/>
	<path class="st0" d="M182.3,521.7l3.8-3.8c0.6-0.6,0.8-1.4,0.6-2.1l-3.7-13.3c-0.2-0.8-0.8-1.2-1.4-1.4l-13.5-3.7
		c-0.6-0.2-1.4,0-1.8,0.5l-4,4l15.8,4.1L182.3,521.7L182.3,521.7z"/>
	<path class="st0" d="M196.7,507.3l3.8-3.8c0.6-0.6,0.8-1.4,0.6-2.1l-3.7-13.3c-0.2-0.8-0.8-1.2-1.4-1.4l-13.5-3.7
		c-0.6-0.2-1.4,0-1.8,0.5l-4,4l15.8,4.1L196.7,507.3L196.7,507.3z"/>
	<path class="st0" d="M211.1,492.7l3.8-3.8c0.6-0.6,0.8-1.4,0.6-2.1l-3.7-13.3c-0.2-0.8-0.8-1.2-1.4-1.4l-13.5-3.7
		c-0.6-0.2-1.4,0-1.8,0.5l-4,4l15.8,4.1L211.1,492.7C211.1,492.8,211.1,492.8,211.1,492.7z"/>
	<path class="st0" d="M225.6,478.3l3.8-3.8c0.6-0.6,0.8-1.4,0.6-2.1l-3.7-13.3c-0.2-0.8-0.8-1.2-1.4-1.4l-13.5-3.7
		c-0.6-0.2-1.4,0-1.8,0.5l-4,4l15.8,4.1L225.6,478.3C225.6,478.4,225.6,478.4,225.6,478.3z"/>
	<path class="st0" d="M240,463.8l3.8-3.8c0.6-0.6,0.8-1.4,0.6-2.1l-3.7-13.3c-0.2-0.8-0.8-1.2-1.4-1.4l-13.5-3.7
		c-0.6-0.2-1.4,0-1.8,0.5l-4,4l15.8,4.1L240,463.8C240,463.8,240,464,240,463.8z"/>
	<path class="st0" d="M254.4,449.4l3.8-3.8c0.6-0.6,0.8-1.4,0.6-2.1l-3.7-13.3c-0.2-0.8-0.8-1.2-1.4-1.4l-13.5-3.7
		c-0.6-0.2-1.4,0-1.8,0.5l-4,4l15.8,4.1L254.4,449.4C254.4,449.4,254.4,449.6,254.4,449.4z"/>
	<path class="st0" d="M269,435l3.8-3.8c0.6-0.6,0.8-1.4,0.6-2.1l-3.7-13.3c-0.2-0.8-0.8-1.2-1.4-1.4l-13.5-3.7
		c-0.6-0.2-1.4,0-1.8,0.5l-4,4l15.8,4.1L269,435C268.8,435,268.8,435,269,435z"/>
	<path class="st0" d="M283.4,420.6l3.8-3.8c0.6-0.6,0.8-1.4,0.6-2.1l-3.7-13.3c-0.2-0.8-0.8-1.2-1.4-1.4l-13.5-3.7
		c-0.6-0.2-1.4,0-1.8,0.5l-4,4l15.8,4.1L283.4,420.6C283.2,420.6,283.2,420.6,283.4,420.6z"/>
	<path class="st0" d="M297.8,406.2l3.8-3.8c0.6-0.6,0.8-1.4,0.6-2.1l-3.7-13.3c-0.2-0.8-0.8-1.2-1.4-1.4l-13.5-3.7
		c-0.6-0.2-1.4,0-1.8,0.5l-4,4l15.8,4.1L297.8,406.2C297.7,406.2,297.7,406.2,297.8,406.2z"/>
	<path class="st0" d="M312.2,391.7l3.8-3.8c0.6-0.6,0.8-1.4,0.6-2.1l-3.7-13.3c-0.2-0.8-0.8-1.2-1.4-1.4l-13.5-3.7
		c-0.6-0.2-1.4,0-1.8,0.5l-4,4l15.8,4.1L312.2,391.7C312.1,391.7,312.1,391.7,312.2,391.7z"/>
	<path class="st0" d="M326.7,377.3l3.8-3.8c0.6-0.6,0.8-1.4,0.6-2.1l-3.7-13.3c-0.2-0.8-0.8-1.2-1.4-1.4l-13.5-3.7
		c-0.6-0.2-1.4,0-1.8,0.5l-4,4l15.8,4.1L326.7,377.3C326.5,377.3,326.7,377.3,326.7,377.3z"/>
	<path class="st0" d="M341.1,362.9l3.8-3.8c0.6-0.6,0.8-1.4,0.6-2.1l-3.7-13.3c-0.2-0.8-0.8-1.2-1.4-1.4l-13.5-3.7
		c-0.6-0.2-1.4,0-1.8,0.5l-4,4l15.8,4.1L341.1,362.9C340.9,362.9,341.1,362.9,341.1,362.9z"/>
	<path class="st0" d="M355.5,348.5l3.8-3.8c0.6-0.6,0.8-1.4,0.6-2.1l-3.7-13.3c-0.2-0.8-0.8-1.2-1.4-1.4l-13.5-3.7
		c-0.6-0.2-1.4,0-1.8,0.5l-4,4l15.8,4.1L355.5,348.5C355.4,348.5,355.5,348.5,355.5,348.5z"/>
	<path class="st0" d="M369.9,334l3.8-3.8c0.6-0.6,0.8-1.4,0.6-2.1l-3.7-13.3c-0.2-0.8-0.8-1.2-1.4-1.4l-13.5-3.7
		c-0.6-0.2-1.4,0-1.8,0.5l-4,4l15.8,4.1L369.9,334C369.8,334,369.9,334,369.9,334z"/>
	<path class="st0" d="M384.4,319.6l3.8-3.8c0.6-0.6,0.8-1.4,0.6-2.1l-3.7-13.3c-0.2-0.8-0.8-1.2-1.4-1.4l-13.5-3.7
		c-0.6-0.2-1.4,0-1.8,0.5l-4,4l15.8,4.1L384.4,319.6C384.2,319.6,384.4,319.6,384.4,319.6z"/>
	<path class="st0" d="M110.2,550.5l3.8-3.8c0.6-0.6,0.8-1.4,0.6-2.1l-3.7-13.3c-0.2-0.8-0.8-1.2-1.4-1.4l-13.5-3.7
		c-0.6-0.2-1.4,0-1.8,0.5l-4,4l15.8,4.1L110.2,550.5C110,550.5,110.2,550.5,110.2,550.5z"/>
	<path class="st0" d="M124.6,536.1l3.8-3.8c0.6-0.6,0.8-1.4,0.6-2.1l-3.7-13.3c-0.2-0.8-0.8-1.2-1.4-1.4l-13.5-3.7
		c-0.6-0.2-1.4,0-1.8,0.5l-4,4l15.8,4.1L124.6,536.1C124.4,536.1,124.6,536.1,124.6,536.1z"/>
	<path class="st0" d="M139,521.7l3.8-3.8c0.6-0.6,0.8-1.4,0.6-2.1l-3.7-13.3c-0.2-0.8-0.8-1.2-1.4-1.4l-13.5-3.7
		c-0.6-0.2-1.4,0-1.8,0.5l-4,4l15.8,4.1L139,521.7C138.9,521.7,139,521.7,139,521.7z"/>
	<path class="st0" d="M153.4,507.3l3.8-3.8c0.6-0.6,0.8-1.4,0.6-2.1l-3.7-13.3c-0.2-0.8-0.8-1.2-1.4-1.4l-13.5-3.7
		c-0.6-0.2-1.4,0-1.8,0.5l-4,4l15.8,4.1L153.4,507.3C153.3,507.3,153.4,507.3,153.4,507.3z"/>
	<path class="st0" d="M167.9,492.7l3.8-3.8c0.6-0.6,0.8-1.4,0.6-2.1l-3.7-13.3c-0.2-0.8-0.8-1.2-1.4-1.4l-13.5-3.7
		c-0.6-0.2-1.4,0-1.8,0.5l-4,4l15.8,4.1L167.9,492.7C167.7,492.8,167.9,492.8,167.9,492.7z"/>
	<path class="st0" d="M182.3,478.3l3.8-3.8c0.6-0.6,0.8-1.4,0.6-2.1l-3.7-13.3c-0.2-0.8-0.8-1.2-1.4-1.4l-13.5-3.7
		c-0.6-0.2-1.4,0-1.8,0.5l-4,4l15.8,4.1L182.3,478.3C182.3,478.4,182.3,478.4,182.3,478.3z"/>
	<path class="st0" d="M196.7,463.8l3.8-3.8c0.6-0.6,0.8-1.4,0.6-2.1l-3.7-13.3c-0.2-0.8-0.8-1.2-1.4-1.4l-13.5-3.7
		c-0.6-0.2-1.4,0-1.8,0.5l-4,4l15.8,4.1L196.7,463.8C196.7,463.8,196.7,464,196.7,463.8z"/>
	<path class="st0" d="M211.1,449.4l3.8-3.8c0.6-0.6,0.8-1.4,0.6-2.1l-3.7-13.3c-0.2-0.8-0.8-1.2-1.4-1.4L197,425
		c-0.6-0.2-1.4,0-1.8,0.5l-4,4l15.8,4.1L211.1,449.4C211.1,449.4,211.1,449.6,211.1,449.4z"/>
	<path class="st0" d="M225.6,435l3.8-3.8c0.6-0.6,0.8-1.4,0.6-2.1l-3.7-13.3c-0.2-0.8-0.8-1.2-1.4-1.4l-13.5-3.7
		c-0.6-0.2-1.4,0-1.8,0.5l-4,4l15.8,4.1L225.6,435L225.6,435z"/>
	<path class="st0" d="M240,420.6l3.8-3.8c0.6-0.6,0.8-1.4,0.6-2.1l-3.7-13.3c-0.2-0.8-0.8-1.2-1.4-1.4l-13.5-3.7
		c-0.6-0.2-1.4,0-1.8,0.5l-4,4l15.8,4.1L240,420.6L240,420.6z"/>
	<path class="st0" d="M254.4,406.2l3.8-3.8c0.6-0.6,0.8-1.4,0.6-2.1l-3.7-13.3c-0.2-0.8-0.8-1.2-1.4-1.4l-13.5-3.7
		c-0.6-0.2-1.4,0-1.8,0.5l-4,4l15.8,4.1L254.4,406.2L254.4,406.2z"/>
	<path class="st0" d="M269,391.7l3.8-3.8c0.6-0.6,0.8-1.4,0.6-2.1l-3.7-13.3c-0.2-0.8-0.8-1.2-1.4-1.4l-13.7-3.7
		c-0.6-0.2-1.4,0-1.8,0.5l-4,4l15.8,4.1L269,391.7C268.8,391.7,268.8,391.7,269,391.7z"/>
	<path class="st0" d="M283.4,377.3l3.8-3.8c0.6-0.6,0.8-1.4,0.6-2.1l-3.7-13.3c-0.2-0.8-0.8-1.2-1.4-1.4l-13.5-3.7
		c-0.6-0.2-1.4,0-1.8,0.5l-4,4l15.8,4.1L283.4,377.3C283.2,377.3,283.2,377.3,283.4,377.3z"/>
	<path class="st0" d="M297.8,362.9l3.8-3.8c0.6-0.6,0.8-1.4,0.6-2.1l-3.7-13.3c-0.2-0.8-0.8-1.2-1.4-1.4l-13.5-3.7
		c-0.6-0.2-1.4,0-1.8,0.5l-4,4l15.8,4.1L297.8,362.9C297.7,362.9,297.7,362.9,297.8,362.9z"/>
	<path class="st0" d="M312.2,348.5l3.8-3.8c0.6-0.6,0.8-1.4,0.6-2.1l-3.7-13.3c-0.2-0.8-0.8-1.2-1.4-1.4l-13.5-3.7
		c-0.6-0.2-1.4,0-1.8,0.5l-4,4l15.8,4.1L312.2,348.5C312.1,348.5,312.1,348.5,312.2,348.5z"/>
	<path class="st0" d="M326.7,334l3.8-3.8c0.6-0.6,0.8-1.4,0.6-2.1l-3.7-13.3c-0.2-0.8-0.8-1.2-1.4-1.4l-13.5-3.7
		c-0.6-0.2-1.4,0-1.8,0.5l-4,4l15.8,4.1L326.7,334C326.5,334,326.7,334,326.7,334z"/>
	<path class="st0" d="M341.1,319.6l3.8-3.8c0.6-0.6,0.8-1.4,0.6-2.1l-3.7-13.3c-0.2-0.8-0.8-1.2-1.4-1.4l-13.5-3.7
		c-0.6-0.2-1.4,0-1.8,0.5l-4,4l15.8,4.1L341.1,319.6C340.9,319.6,341.1,319.6,341.1,319.6z"/>
	<path class="st0" d="M355.5,305.2l3.8-3.8c0.6-0.6,0.8-1.4,0.6-2.1l-3.7-13.3c-0.2-0.8-0.8-1.2-1.4-1.4l-13.5-3.7
		c-0.6-0.2-1.4,0-1.8,0.5l-4,4l15.8,4.1L355.5,305.2C355.4,305.2,355.5,305.2,355.5,305.2z"/>
	<path class="st0" d="M369.9,290.8l3.8-3.8c0.6-0.6,0.8-1.4,0.6-2.1l-3.7-13.3c-0.2-0.8-0.8-1.2-1.4-1.4l-13.5-3.7
		c-0.6-0.2-1.4,0-1.8,0.5l-4,4l15.8,4.1L369.9,290.8C369.8,290.8,369.9,290.8,369.9,290.8z"/>
	<path class="st0" d="M384.4,276.3l3.8-3.8c0.6-0.6,0.8-1.4,0.6-2.1l-3.7-13.3c-0.2-0.8-0.8-1.2-1.4-1.4l-13.5-3.7
		c-0.6-0.2-1.4,0-1.8,0.5l-4,4l15.8,4.1L384.4,276.3C384.2,276.3,384.4,276.3,384.4,276.3z"/>
	<path class="st0" d="M64,504.4l3.8-3.8c0.6-0.6,0.8-1.4,0.6-2.1L64.8,485c-0.2-0.8-0.8-1.2-1.4-1.4L49.9,480
		c-0.6-0.2-1.4,0-1.8,0.5l-4,4l15.8,4.1L64,504.4C63.8,504.4,64,504.4,64,504.4z"/>
	<path class="st0" d="M78.4,489.9l3.8-3.8c0.6-0.6,0.8-1.4,0.6-2.1l-3.7-13.3c-0.2-0.8-0.8-1.2-1.4-1.4l-13.5-3.7
		c-0.6-0.2-1.4,0-1.8,0.5l-4,4l15.8,4.1L78.4,489.9C78.3,489.9,78.4,489.9,78.4,489.9z"/>
	<path class="st0" d="M92.8,475.5l3.8-3.8c0.6-0.6,0.8-1.4,0.6-2.1l-3.7-13.3c-0.2-0.8-0.8-1.2-1.4-1.4l-13.5-3.7
		c-0.6-0.2-1.4,0-1.8,0.5l-4,4l15.8,4.1L92.8,475.5C92.7,475.5,92.8,475.5,92.8,475.5z"/>
	<path class="st0" d="M107.3,461.1l3.8-3.8c0.6-0.6,0.8-1.4,0.6-2.1l-3.7-13.3c-0.2-0.8-0.8-1.2-1.4-1.4l-13.5-3.7
		c-0.6-0.2-1.4,0-1.8,0.5l-4,4l15.8,4.1L107.3,461.1C107.1,461.1,107.3,461.1,107.3,461.1z"/>
	<path class="st0" d="M121.7,446.5l3.8-3.8c0.6-0.6,0.8-1.4,0.6-2.1l-3.7-13.3c-0.2-0.8-0.8-1.2-1.4-1.4l-13.5-3.7
		c-0.6-0.2-1.4,0-1.8,0.5l-4,4l15.8,4.1L121.7,446.5C121.5,446.7,121.7,446.7,121.7,446.5z"/>
	<path class="st0" d="M136.1,432.1l3.8-3.8c0.6-0.6,0.8-1.4,0.6-2.1l-3.7-13.3c-0.2-0.8-0.8-1.2-1.4-1.4l-13.5-3.7
		c-0.6-0.2-1.4,0-1.8,0.5l-4,4l15.8,4.1L136.1,432.1C136.1,432.2,136.1,432.2,136.1,432.1z"/>
	<path class="st0" d="M150.5,417.7l3.8-3.8c0.6-0.6,0.8-1.4,0.6-2.1l-3.7-13.3c-0.2-0.8-0.8-1.2-1.4-1.4l-13.5-3.7
		c-0.6-0.2-1.4,0-1.8,0.5l-4,4l15.8,4.1L150.5,417.7C150.5,417.7,150.5,417.8,150.5,417.7z"/>
	<path class="st0" d="M164.9,403.2l3.8-3.8c0.6-0.6,0.8-1.4,0.6-2.1l-3.7-13.3c-0.2-0.8-0.8-1.2-1.4-1.4l-13.5-3.7
		c-0.6-0.2-1.4,0-1.8,0.5l-4,4l15.8,4.1L164.9,403.2C164.9,403.2,164.9,403.4,164.9,403.2z"/>
	<path class="st0" d="M179.4,388.8l3.8-3.8c0.6-0.6,0.8-1.4,0.6-2.1l-3.7-13.3c-0.2-0.8-0.8-1.2-1.4-1.4l-13.5-3.7
		c-0.6-0.2-1.4,0-1.8,0.5l-4,4l15.8,4.1L179.4,388.8L179.4,388.8z"/>
	<path class="st0" d="M193.8,374.4l3.8-3.8c0.6-0.6,0.8-1.4,0.6-2.1l-3.7-13.3c-0.2-0.8-0.8-1.2-1.4-1.4l-13.5-3.7
		c-0.6-0.2-1.4,0-1.8,0.5l-4,4l15.8,4.1L193.8,374.4L193.8,374.4z"/>
	<path class="st0" d="M208.2,360l3.8-3.8c0.6-0.6,0.8-1.4,0.6-2.1l-3.7-13.3c-0.2-0.8-0.8-1.2-1.4-1.4l-13.5-3.7
		c-0.6-0.2-1.4,0-1.8,0.5l-4,4l15.8,4.3L208.2,360L208.2,360z"/>
	<path class="st0" d="M222.8,345.5l3.8-3.8c0.6-0.6,0.8-1.4,0.6-2.1l-3.7-13.3c-0.2-0.8-0.8-1.2-1.4-1.4l-13.5-3.7
		c-0.6-0.2-1.4,0-1.8,0.5l-4,4l15.8,4.1L222.8,345.5C222.6,345.5,222.6,345.5,222.8,345.5z"/>
	<path class="st0" d="M237.2,331.1l3.8-3.8c0.6-0.6,0.8-1.4,0.6-2.1l-3.7-13.3c-0.2-0.8-0.8-1.2-1.4-1.4l-13.5-3.7
		c-0.6-0.2-1.4,0-1.8,0.5l-4,4l15.8,4.1L237.2,331.1C237.1,331.1,237.1,331.1,237.2,331.1z"/>
	<path class="st0" d="M251.6,316.7l3.8-3.8c0.6-0.6,0.8-1.4,0.6-2.1l-3.7-13.3c-0.2-0.8-0.8-1.2-1.4-1.4l-13.5-3.7
		c-0.6-0.2-1.4,0-1.8,0.5l-4,4l15.8,4.1L251.6,316.7C251.5,316.7,251.5,316.7,251.6,316.7z"/>
	<path class="st0" d="M266.1,302.3l3.8-3.8c0.6-0.6,0.8-1.4,0.6-2.1l-3.7-13.3c-0.2-0.8-0.8-1.2-1.4-1.4l-13.5-3.7
		c-0.6-0.2-1.4,0-1.8,0.5l-4,4l15.8,4.1L266.1,302.3C265.9,302.3,265.9,302.3,266.1,302.3z"/>
	<path class="st0" d="M280.5,287.9l3.8-3.8c0.6-0.6,0.8-1.4,0.6-2.1l-3.7-13.3c-0.2-0.8-0.8-1.2-1.4-1.4l-13.5-3.7
		c-0.6-0.2-1.4,0-1.8,0.5l-4,4l15.7,4.3L280.5,287.9C280.3,287.9,280.5,287.9,280.5,287.9z"/>
	<path class="st0" d="M294.9,273.4l3.8-3.8c0.6-0.6,0.8-1.4,0.6-2.1l-3.7-13.3c-0.2-0.8-0.8-1.2-1.4-1.4l-13.5-3.7
		c-0.6-0.2-1.4,0-1.8,0.5l-4,4l15.8,4.1L294.9,273.4C294.8,273.4,294.9,273.4,294.9,273.4z"/>
	<path class="st0" d="M309.3,259l3.8-3.8c0.6-0.6,0.8-1.4,0.6-2.1l-3.7-13.3c-0.2-0.8-0.8-1.2-1.4-1.4l-13.5-3.7
		c-0.6-0.2-1.4,0-1.8,0.5l-4,4l15.8,4.1L309.3,259C309.2,259,309.3,259,309.3,259z"/>
	<path class="st0" d="M323.8,244.6l3.8-3.8c0.6-0.6,0.8-1.4,0.6-2.1l-3.7-13.3c-0.2-0.8-0.8-1.2-1.4-1.4l-13.5-3.7
		c-0.6-0.2-1.4,0-1.8,0.5l-4,4l15.8,4.1L323.8,244.6C323.6,244.6,323.8,244.6,323.8,244.6z"/>
	<path class="st0" d="M338.2,230.2l3.8-3.8c0.6-0.6,0.8-1.4,0.6-2.1l-3.7-13.3c-0.2-0.8-0.8-1.2-1.4-1.4l-13.5-3.7
		c-0.6-0.2-1.4,0-1.8,0.5l-4,4l15.8,4.1L338.2,230.2C338,230.2,338.2,230.2,338.2,230.2z"/>
	<path class="st0" d="M19.9,460.3l3.8-3.8c0.6-0.6,0.8-1.4,0.6-2.1L20.7,441c-0.2-0.8-0.8-1.2-1.4-1.4l-13.5-3.7
		c-0.6-0.2-1.4,0-1.8,0.5l-4,4.1l15.8,4.1L19.9,460.3L19.9,460.3z"/>
	<path class="st0" d="M34.4,445.9l3.8-3.8c0.6-0.6,0.8-1.4,0.6-2.1l-3.7-13.3c-0.2-0.8-0.8-1.2-1.4-1.4l-13.5-3.7
		c-0.6-0.2-1.4,0-1.8,0.5l-4,4l15.8,4.1L34.4,445.9L34.4,445.9z"/>
	<path class="st0" d="M48.8,431.5l3.8-3.8c0.6-0.6,0.8-1.4,0.6-2.1l-3.7-13.3c-0.2-0.8-0.8-1.2-1.4-1.4l-13.5-3.7
		c-0.6-0.2-1.4,0-1.8,0.5l-4,4l15.8,4.1L48.8,431.5L48.8,431.5z"/>
	<path class="st0" d="M63.2,417l3.8-3.8c0.6-0.6,0.8-1.4,0.6-2.1L64,397.7c-0.2-0.8-0.8-1.2-1.4-1.4l-13.5-3.7
		c-0.6-0.2-1.4,0-1.8,0.5l-4,4l15.8,4.1L63.2,417L63.2,417z"/>
	<path class="st0" d="M77.8,402.6l3.8-3.8c0.6-0.6,0.8-1.4,0.6-2.1l-3.7-13.3c-0.2-0.8-0.8-1.2-1.4-1.4l-13.5-3.7
		c-0.6-0.2-1.4,0-1.8,0.5l-4,4l15.8,4.1L77.8,402.6C77.6,402.6,77.6,402.6,77.8,402.6z"/>
	<path class="st0" d="M92.2,388.2l3.8-3.8c0.6-0.6,0.8-1.4,0.6-2.1L93,368.9c-0.2-0.8-0.8-1.2-1.4-1.4l-13.5-3.7
		c-0.6-0.2-1.4,0-1.8,0.5l-4,4l15.8,4.1L92.2,388.2C92.1,388.2,92.1,388.2,92.2,388.2z"/>
	<path class="st0" d="M106.6,373.8l3.8-3.8c0.6-0.6,0.8-1.4,0.6-2.1l-3.7-13.3c-0.2-0.8-0.8-1.2-1.4-1.4l-13.5-3.7
		c-0.6-0.2-1.4,0-1.8,0.5l-4,4l15.8,4.1L106.6,373.8C106.5,373.8,106.5,373.8,106.6,373.8z"/>
	<path class="st0" d="M121.1,359.4l3.8-3.8c0.6-0.6,0.8-1.4,0.6-2.1l-3.7-13.3c-0.2-0.8-0.8-1.2-1.4-1.4l-13.5-3.7
		c-0.6-0.2-1.4,0-1.8,0.5l-4,4l15.8,4.1L121.1,359.4C120.9,359.4,120.9,359.4,121.1,359.4z"/>
	<path class="st0" d="M135.5,344.9l3.8-3.8c0.6-0.6,0.8-1.4,0.6-2.1l-3.7-13.3c-0.2-0.8-0.8-1.2-1.4-1.4l-13.5-3.7
		c-0.6-0.2-1.4,0-1.8,0.5l-4,4l15.8,4.1L135.5,344.9C135.3,344.9,135.5,344.9,135.5,344.9z"/>
	<path class="st0" d="M149.9,330.5l3.8-3.8c0.6-0.6,0.8-1.4,0.6-2.1l-3.7-13.3c-0.2-0.8-0.8-1.2-1.4-1.4l-13.5-3.7
		c-0.6-0.2-1.4,0-1.8,0.5l-4,4l15.8,4.1L149.9,330.5C149.8,330.5,149.9,330.5,149.9,330.5z"/>
	<path class="st0" d="M164.3,316.1l3.8-3.8c0.6-0.6,0.8-1.4,0.6-2.1l-3.7-13.3c-0.2-0.8-0.8-1.2-1.4-1.4l-13.5-3.7
		c-0.6-0.2-1.4,0-1.8,0.5l-4,4l15.8,4.1L164.3,316.1C164.2,316.1,164.3,316.1,164.3,316.1z"/>
	<path class="st0" d="M178.8,301.5l3.8-3.8c0.6-0.6,0.8-1.4,0.6-2.1l-3.7-13.3c-0.2-0.8-0.8-1.2-1.4-1.4l-13.5-3.7
		c-0.6-0.2-1.4,0-1.8,0.5l-4,4l15.8,4.1L178.8,301.5C178.6,301.7,178.8,301.7,178.8,301.5z"/>
	<path class="st0" d="M193.2,287.1l3.8-3.8c0.6-0.6,0.8-1.4,0.6-2.1l-3.7-13.3c-0.2-0.8-0.8-1.2-1.4-1.4l-13.5-3.7
		c-0.6-0.2-1.4,0-1.8,0.5l-4,4l15.8,4.1L193.2,287.1C193,287.2,193.2,287.2,193.2,287.1z"/>
	<path class="st0" d="M207.6,272.7l3.8-3.8c0.6-0.6,0.8-1.4,0.6-2.1l-3.7-13.3c-0.2-0.8-0.8-1.2-1.4-1.4l-13.5-3.7
		c-0.6-0.2-1.4,0-1.8,0.5l-4,4l15.8,4.1L207.6,272.7C207.4,272.7,207.6,272.8,207.6,272.7z"/>
	<path class="st0" d="M222,258.2l3.8-3.8c0.6-0.6,0.8-1.4,0.6-2.1l-3.7-13.3c-0.2-0.8-0.8-1.2-1.4-1.4l-13.5-3.7
		c-0.6-0.2-1.4,0-1.8,0.5l-4,4l15.8,4.1L222,258.2C221.9,258.2,222,258.4,222,258.2z"/>
	<path class="st0" d="M236.4,243.8l3.8-3.8c0.6-0.6,0.8-1.4,0.6-2.1l-3.7-13.3c-0.2-0.8-0.8-1.2-1.4-1.4l-13.5-3.7
		c-0.6-0.2-1.4,0-1.8,0.5l-4,4l15.8,4.1L236.4,243.8L236.4,243.8z"/>
	<path class="st0" d="M250.9,229.4l3.8-3.8c0.6-0.6,0.8-1.4,0.6-2.1l-3.7-13.3c-0.2-0.8-0.8-1.2-1.4-1.4l-13.5-3.7
		c-0.6-0.2-1.4,0-1.8,0.5l-4,4l15.8,4.1L250.9,229.4L250.9,229.4z"/>
	<path class="st0" d="M265.3,215l3.8-3.8c0.6-0.6,0.8-1.4,0.6-2.1l-3.7-13.3c-0.2-0.8-0.8-1.2-1.4-1.4l-13.5-3.7
		c-0.6-0.2-1.4,0-1.8,0.5l-4,4l15.8,4.1L265.3,215L265.3,215z"/>
	<path class="st0" d="M279.7,200.5l3.8-3.8c0.6-0.6,0.8-1.4,0.6-2.1l-3.7-13.3c-0.2-0.8-0.8-1.2-1.4-1.4l-13.5-3.7
		c-0.6-0.2-1.4,0-1.8,0.5l-4,4l15.8,4.1L279.7,200.5L279.7,200.5z"/>
	<path class="st0" d="M294.1,186.1l3.8-3.8c0.6-0.6,0.8-1.4,0.6-2.1l-3.7-13.3c-0.2-0.8-0.8-1.2-1.4-1.4l-13.5-3.7
		c-0.6-0.2-1.4,0-1.8,0.5l-4,4.1l15.8,4.1L294.1,186.1L294.1,186.1z"/>
	<path class="st0" d="M65.4,549l3.8-3.8c0.6-0.6,0.8-1.4,0.6-2.1l-3.7-13.3c-0.2-0.8-0.8-1.2-1.4-1.4l-13.5-3.7
		c-0.6-0.2-1.4,0-1.8,0.5l-4,4l15.8,4.1L65.4,549C65.4,549,65.4,549.2,65.4,549z"/>
	<path class="st0" d="M79.8,534.6l3.8-3.8c0.6-0.6,0.8-1.4,0.6-2.1l-3.7-13.3c-0.2-0.8-0.8-1.2-1.4-1.4l-13.5-3.7
		c-0.6-0.2-1.4,0-1.8,0.5l-4,4l15.8,4.1L79.8,534.6L79.8,534.6z"/>
	<path class="st0" d="M94.2,520.2l3.8-3.8c0.6-0.6,0.8-1.4,0.6-2.1L95,500.8c-0.2-0.8-0.8-1.2-1.4-1.4l-13.5-3.7
		c-0.6-0.2-1.4,0-1.8,0.5l-4,4l15.8,4.1L94.2,520.2L94.2,520.2z"/>
	<path class="st0" d="M108.6,505.7l3.8-3.8c0.6-0.6,0.8-1.4,0.6-2.1l-3.7-13.3c-0.2-0.8-0.8-1.2-1.4-1.4l-13.5-3.7
		c-0.6-0.2-1.4,0-1.8,0.5l-4,4l15.8,4.1L108.6,505.7L108.6,505.7z"/>
	<path class="st0" d="M123.2,491.3l3.8-3.8c0.6-0.6,0.8-1.4,0.6-2.1L124,472c-0.2-0.8-0.8-1.2-1.4-1.4l-13.7-3.5
		c-0.6-0.2-1.4,0-1.8,0.5l-4,4l15.8,4.1L123.2,491.3C123.1,491.3,123.1,491.3,123.2,491.3z"/>
	<path class="st0" d="M137.6,476.9l3.8-3.8c0.6-0.6,0.8-1.4,0.6-2.1l-3.7-13.3c-0.2-0.8-0.8-1.2-1.4-1.4l-13.5-3.7
		c-0.6-0.2-1.4,0-1.8,0.5l-4,4l15.8,4.1L137.6,476.9C137.5,476.9,137.5,476.9,137.6,476.9z"/>
	<path class="st0" d="M152.1,462.5l3.8-3.8c0.6-0.6,0.8-1.4,0.6-2.1l-3.7-13.3c-0.2-0.8-0.8-1.2-1.4-1.4l-13.5-3.7
		c-0.6-0.2-1.4,0-1.8,0.5l-4,4l15.8,4.1L152.1,462.5C151.9,462.5,151.9,462.5,152.1,462.5z"/>
	<path class="st0" d="M166.5,448l3.8-3.8c0.6-0.6,0.8-1.4,0.6-2.1l-3.7-13.3c-0.2-0.8-0.8-1.2-1.4-1.4l-13.5-3.7
		c-0.6-0.2-1.4,0-1.8,0.5l-4,4l15.8,4.1L166.5,448C166.3,448,166.3,448,166.5,448z"/>
	<path class="st0" d="M180.9,433.6l3.8-3.8c0.6-0.6,0.8-1.4,0.6-2.1l-3.7-13.3c-0.2-0.8-0.8-1.2-1.4-1.4l-13.5-3.7
		c-0.6-0.2-1.4,0-1.8,0.5l-4,4l15.8,4.1L180.9,433.6C180.7,433.6,180.9,433.6,180.9,433.6z"/>
	<path class="st0" d="M195.3,419.2l3.8-3.8c0.6-0.6,0.8-1.4,0.6-2.1l-3.7-13.3c-0.2-0.8-0.8-1.2-1.4-1.4l-13.5-3.7
		c-0.6-0.2-1.4,0-1.8,0.5l-4,4l15.8,4.1L195.3,419.2C195.2,419.2,195.3,419.2,195.3,419.2z"/>
	<path class="st0" d="M209.7,404.8l3.8-3.8c0.6-0.6,0.8-1.4,0.6-2.1l-3.7-13.3c-0.2-0.8-0.8-1.2-1.4-1.4l-13.5-3.7
		c-0.6-0.2-1.4,0-1.8,0.5l-4,4l15.8,4.1L209.7,404.8C209.6,404.8,209.7,404.8,209.7,404.8z"/>
	<path class="st0" d="M224.2,390.3l3.8-3.8c0.6-0.6,0.8-1.4,0.6-2.1l-3.7-13.3c-0.2-0.8-0.8-1.2-1.4-1.4l-13.5-3.7
		c-0.6-0.2-1.4,0-1.8,0.5l-4,4l15.8,4.1L224.2,390.3C224,390.3,224.2,390.3,224.2,390.3z"/>
	<path class="st0" d="M238.6,375.9l3.8-3.8c0.6-0.6,0.8-1.4,0.6-2.1l-3.7-13.3c-0.2-0.8-0.8-1.2-1.4-1.4l-13.5-3.7
		c-0.6-0.2-1.4,0-1.8,0.5l-4,4l15.8,4.1L238.6,375.9C238.4,375.9,238.6,375.9,238.6,375.9z"/>
	<path class="st0" d="M253,361.5l3.8-3.8c0.6-0.6,0.8-1.4,0.6-2.1l-3.7-13.3c-0.2-0.8-0.8-1.2-1.4-1.4l-13.5-3.7
		c-0.6-0.2-1.4,0-1.8,0.5l-4,4l15.8,4.1L253,361.5C252.9,361.5,253,361.5,253,361.5z"/>
	<path class="st0" d="M267.4,346.9l3.8-3.8c0.6-0.6,0.8-1.4,0.6-2.1l-3.7-13.3c-0.2-0.8-0.8-1.2-1.4-1.4l-13.5-3.7
		c-0.6-0.2-1.4,0-1.8,0.5l-4,4l15.8,4.1L267.4,346.9C267.3,347.1,267.4,347.1,267.4,346.9z"/>
	<path class="st0" d="M281.9,332.5l3.8-3.8c0.6-0.6,0.8-1.4,0.6-2.1l-3.7-13.3c-0.2-0.8-0.8-1.2-1.4-1.4l-13.5-3.7
		c-0.6-0.2-1.4,0-1.8,0.5l-4,4l15.8,4.1L281.9,332.5C281.9,332.7,281.9,332.7,281.9,332.5z"/>
	<path class="st0" d="M296.3,318.1l3.8-3.8c0.6-0.6,0.8-1.4,0.6-2.1l-3.7-13.3c-0.2-0.8-0.8-1.2-1.4-1.4l-13.5-3.7
		c-0.6-0.2-1.4,0-1.8,0.5l-4,4l15.8,4.1L296.3,318.1C296.3,318.1,296.3,318.2,296.3,318.1z"/>
	<path class="st0" d="M310.7,303.7l3.8-3.8c0.6-0.6,0.8-1.4,0.6-2.1l-3.7-13.2c-0.2-0.8-0.8-1.2-1.4-1.4l-13.5-3.7
		c-0.6-0.2-1.4,0-1.8,0.5l-4,4l15.8,4.1L310.7,303.7C310.7,303.7,310.7,303.8,310.7,303.7z"/>
	<path class="st0" d="M325.1,289.2l3.8-3.8c0.6-0.6,0.8-1.4,0.6-2.1l-3.7-13.3c-0.2-0.8-0.8-1.2-1.4-1.4l-13.5-3.7
		c-0.6-0.2-1.4,0-1.8,0.5l-4,4l15.8,4.1L325.1,289.2L325.1,289.2z"/>
	<path class="st0" d="M339.6,274.8l3.8-3.8c0.6-0.6,0.8-1.4,0.6-2.1l-3.7-13.3c-0.2-0.8-0.8-1.2-1.4-1.4l-13.5-3.7
		c-0.6-0.2-1.4,0-1.8,0.5l-4,4l15.8,4.1L339.6,274.8L339.6,274.8z"/>
	<path class="st0" d="M35.1,489.9l3.8-3.8c0.6-0.6,0.8-1.4,0.6-2.1l-3.7-13.3c-0.2-0.8-0.8-1.2-1.4-1.4L21,465.5
		c-0.6-0.2-1.4,0-1.8,0.5l-4,4l15.8,4.1L35.1,489.9C35,489.9,35.1,489.9,35.1,489.9z"/>
	<path class="st0" d="M49.6,475.5l3.8-3.8c0.6-0.6,0.8-1.4,0.6-2.1l-3.7-13.3c-0.2-0.8-0.8-1.2-1.4-1.4l-13.5-3.7
		c-0.6-0.2-1.4,0-1.8,0.5l-4,4l15.8,4.1L49.6,475.5C49.4,475.5,49.6,475.5,49.6,475.5z"/>
	<path class="st0" d="M64,461.1l3.8-3.8c0.6-0.6,0.8-1.4,0.6-2.1l-3.7-13.3c-0.2-0.8-0.8-1.2-1.4-1.4l-13.5-3.7
		c-0.6-0.2-1.4,0-1.8,0.5l-4,4l15.8,4.1L64,461.1C63.8,461.1,64,461.1,64,461.1z"/>
	<path class="st0" d="M78.4,446.5l3.8-3.8c0.6-0.6,0.8-1.4,0.6-2.1l-3.7-13.3c-0.2-0.8-0.8-1.2-1.4-1.4l-13.5-3.7
		c-0.6-0.2-1.4,0-1.8,0.5l-4,4l15.8,4.1L78.4,446.5C78.3,446.7,78.4,446.7,78.4,446.5z"/>
	<path class="st0" d="M92.8,432.1l3.8-3.8c0.6-0.6,0.8-1.4,0.6-2.1l-3.7-13.3c-0.2-0.8-0.8-1.2-1.4-1.4l-13.5-3.7
		c-0.6-0.2-1.4,0-1.8,0.5l-4,4l15.8,4.1L92.8,432.1C92.7,432.2,92.8,432.2,92.8,432.1z"/>
	<path class="st0" d="M107.3,417.7l3.8-3.8c0.6-0.6,0.8-1.4,0.6-2.1l-3.7-13.3c-0.2-0.8-0.8-1.2-1.4-1.4l-13.5-3.7
		c-0.6-0.2-1.4,0-1.8,0.5l-4,4l15.8,4.1L107.3,417.7C107.1,417.7,107.3,417.8,107.3,417.7z"/>
	<path class="st0" d="M121.7,403.2l3.8-3.8c0.6-0.6,0.8-1.4,0.6-2.1l-3.7-13.3c-0.2-0.8-0.8-1.2-1.4-1.4l-13.5-3.7
		c-0.6-0.2-1.4,0-1.8,0.5l-4,4l15.8,4.1L121.7,403.2C121.5,403.2,121.7,403.4,121.7,403.2z"/>
	<path class="st0" d="M136.1,388.8l3.8-3.8c0.6-0.6,0.8-1.4,0.6-2.1l-3.7-13.3c-0.2-0.8-0.8-1.2-1.4-1.4l-13.5-3.7
		c-0.6-0.2-1.4,0-1.8,0.5l-4,4L132,373L136.1,388.8L136.1,388.8z"/>
	<path class="st0" d="M150.5,374.4l3.8-3.8c0.6-0.6,0.8-1.4,0.6-2.1l-3.7-13.3c-0.2-0.8-0.8-1.2-1.4-1.4l-13.5-3.7
		c-0.6-0.2-1.4,0-1.8,0.5l-4,4l15.8,4.1L150.5,374.4L150.5,374.4z"/>
	<path class="st0" d="M164.9,360l3.8-3.8c0.6-0.6,0.8-1.4,0.6-2.1l-3.7-13.3c-0.2-0.8-0.8-1.2-1.4-1.4l-13.5-3.7
		c-0.6-0.2-1.4,0-1.8,0.5l-4,4l15.8,4.1L164.9,360L164.9,360z"/>
	<path class="st0" d="M179.4,345.5l3.8-3.8c0.6-0.6,0.8-1.4,0.6-2.1l-3.7-13.3c-0.2-0.8-0.8-1.2-1.4-1.4l-13.5-3.7
		c-0.6-0.2-1.4,0-1.8,0.5l-4,4l15.8,4.1L179.4,345.5L179.4,345.5z"/>
	<path class="st0" d="M193.8,331.1l3.8-3.8c0.6-0.6,0.8-1.4,0.6-2.1l-3.7-13.3c-0.2-0.8-0.8-1.2-1.4-1.4l-13.5-3.7
		c-0.6-0.2-1.4,0-1.8,0.5l-4,4l15.8,4.1L193.8,331.1L193.8,331.1z"/>
	<path class="st0" d="M208.2,316.7l3.8-3.8c0.6-0.6,0.8-1.4,0.6-2.1l-3.7-13.3c-0.2-0.8-0.8-1.2-1.4-1.4l-13.5-3.7
		c-0.6-0.2-1.4,0-1.8,0.5l-4,4l15.8,4.1L208.2,316.7L208.2,316.7z"/>
	<path class="st0" d="M222.8,302.3l3.8-3.8c0.6-0.6,0.8-1.4,0.6-2.1l-3.7-13.3c-0.2-0.8-0.8-1.2-1.4-1.4l-13.5-3.7
		c-0.6-0.2-1.4,0-1.8,0.5l-4,4l15.8,4.1L222.8,302.3C222.6,302.3,222.6,302.3,222.8,302.3z"/>
	<path class="st0" d="M237.2,287.9l3.8-3.8c0.6-0.6,0.8-1.4,0.6-2.1l-3.7-13.3c-0.2-0.8-0.8-1.2-1.4-1.4l-13.5-3.7
		c-0.6-0.2-1.4,0-1.8,0.5l-4,4l15.8,4.1L237.2,287.9C237.1,287.9,237.1,287.9,237.2,287.9z"/>
	<path class="st0" d="M251.6,273.4l3.8-3.8c0.6-0.6,0.8-1.4,0.6-2.1l-3.7-13.3c-0.2-0.8-0.8-1.2-1.4-1.4l-13.5-3.7
		c-0.6-0.2-1.4,0-1.8,0.5l-4,4l15.8,4.1L251.6,273.4C251.5,273.4,251.5,273.4,251.6,273.4z"/>
	<path class="st0" d="M266.1,259l3.8-3.8c0.6-0.6,0.8-1.4,0.6-2.1l-3.7-13.3c-0.2-0.8-0.8-1.2-1.4-1.4l-13.5-3.7
		c-0.6-0.2-1.4,0-1.8,0.5l-4,4l15.8,4.1L266.1,259C265.9,259,265.9,259,266.1,259z"/>
	<path class="st0" d="M280.5,244.6l3.8-3.8c0.6-0.6,0.8-1.4,0.6-2.1l-3.7-13.3c-0.2-0.8-0.8-1.2-1.4-1.4l-13.5-3.7
		c-0.6-0.2-1.4,0-1.8,0.5l-4,4l15.8,4.1L280.5,244.6C280.3,244.6,280.5,244.6,280.5,244.6z"/>
	<path class="st0" d="M294.9,230.2l3.8-3.8c0.6-0.6,0.8-1.4,0.6-2.1l-3.7-13.3c-0.2-0.8-0.8-1.2-1.4-1.4l-13.5-3.7
		c-0.6-0.2-1.4,0-1.8,0.5l-4,4l15.8,4.1L294.9,230.2C294.8,230.2,294.9,230.2,294.9,230.2z"/>
	<path class="st0" d="M289.1,729.4l3.8-3.8c0.6-0.6,0.8-1.4,0.6-2.1l-3.7-13.3c-0.2-0.8-0.8-1.2-1.4-1.4L275,705
		c-0.6-0.2-1.4,0-1.8,0.5l-4,4l15.8,4.1L289.1,729.4L289.1,729.4z"/>
	<path class="st0" d="M303.5,715l3.8-3.8c0.6-0.6,0.8-1.4,0.6-2.1l-3.7-13.3c-0.2-0.8-0.8-1.2-1.4-1.4l-13.5-3.7
		c-0.6-0.2-1.4,0-1.8,0.5l-4,4l15.8,4.1L303.5,715L303.5,715z"/>
	<path class="st0" d="M317.9,700.6l3.8-3.8c0.6-0.6,0.8-1.4,0.6-2.1l-3.7-13.3c-0.2-0.8-0.8-1.2-1.4-1.4l-13.5-3.7
		c-0.6-0.2-1.4,0-1.8,0.5l-4,4l15.8,4.1L317.9,700.6L317.9,700.6z"/>
	<path class="st0" d="M332.3,686.2l3.8-3.8c0.6-0.6,0.8-1.4,0.6-2.1l-3.7-13.3c-0.2-0.8-0.8-1.2-1.4-1.4l-13.5-3.7
		c-0.6-0.2-1.4,0-1.8,0.5l-4,4l15.8,4.1L332.3,686.2L332.3,686.2z"/>
	<path class="st0" d="M346.8,671.7l3.8-3.8c0.6-0.6,0.8-1.4,0.6-2.1l-3.7-13.3c-0.2-0.8-0.8-1.2-1.4-1.4l-13.5-3.7
		c-0.6-0.2-1.4,0-1.8,0.5l-4,4l15.8,4.1L346.8,671.7L346.8,671.7z"/>
	<path class="st0" d="M361.3,657.3l3.8-3.8c0.6-0.6,0.8-1.4,0.6-2.1l-3.7-13.3c-0.2-0.8-0.8-1.2-1.4-1.4l-13.5-3.7
		c-0.6-0.2-1.4,0-1.8,0.5l-4,4l15.8,4.1L361.3,657.3C361.2,657.3,361.2,657.3,361.3,657.3z"/>
	<path class="st0" d="M375.8,642.9l3.8-3.8c0.6-0.6,0.8-1.4,0.6-2.1l-3.7-13.3c-0.2-0.8-0.8-1.2-1.4-1.4l-13.5-3.7
		c-0.6-0.2-1.4,0-1.8,0.5l-4,4l15.8,4.1L375.8,642.9C375.6,642.9,375.6,642.9,375.8,642.9z"/>
	<path class="st0" d="M390.2,628.5l3.8-3.8c0.6-0.6,0.8-1.4,0.6-2.1l-3.7-13.3c-0.2-0.8-0.8-1.2-1.4-1.4l-13.5-3.7
		c-0.6-0.2-1.4,0-1.8,0.5l-4,4l15.8,4.1L390.2,628.5C390,628.5,390,628.5,390.2,628.5z"/>
	<path class="st0" d="M404.6,614.1l3.8-3.8c0.6-0.6,0.8-1.4,0.6-2.1l-3.7-13.3c-0.2-0.8-0.8-1.2-1.4-1.4l-13.5-3.7
		c-0.6-0.2-1.4,0-1.8,0.5l-4,4l15.8,4.1L404.6,614.1C404.5,614.1,404.5,614.1,404.6,614.1z"/>
	<path class="st0" d="M419,599.5l3.8-3.8c0.6-0.6,0.8-1.4,0.6-2.1l-3.7-13.3c-0.2-0.8-0.8-1.2-1.4-1.4l-13.5-3.7
		c-0.6-0.2-1.4,0-1.8,0.5l-4,4l15.8,4.1L419,599.5C418.9,599.6,419,599.6,419,599.5z"/>
	<path class="st0" d="M433.5,585.1l3.8-3.8c0.6-0.6,0.8-1.4,0.6-2.1l-3.7-13.3c-0.2-0.8-0.8-1.2-1.4-1.4l-13.5-3.7
		c-0.6-0.2-1.4,0-1.8,0.5l-4,4l15.8,4.1L433.5,585.1C433.3,585.2,433.5,585.2,433.5,585.1z"/>
	<path class="st0" d="M447.9,570.6l3.8-3.8c0.6-0.6,0.8-1.4,0.6-2.1l-3.7-13.3c-0.2-0.8-0.8-1.2-1.4-1.4l-13.5-3.7
		c-0.6-0.2-1.4,0-1.8,0.5l-4,4l15.8,4.1L447.9,570.6C447.7,570.6,447.9,570.8,447.9,570.6z"/>
	<path class="st0" d="M462.3,556.2l3.8-3.8c0.6-0.6,0.8-1.4,0.6-2.1l-3.7-13.3c-0.2-0.8-0.8-1.2-1.4-1.4l-13.5-3.7
		c-0.6-0.2-1.4,0-1.8,0.5l-4,4l15.8,4.1L462.3,556.2C462.2,556.2,462.3,556.4,462.3,556.2z"/>
	<path class="st0" d="M476.7,541.8l3.8-3.8c0.6-0.6,0.8-1.4,0.6-2.1l-3.7-13.3c-0.2-0.8-0.8-1.2-1.4-1.4l-13.5-3.7
		c-0.6-0.2-1.4,0-1.8,0.5l-4,4l15.8,4.1L476.7,541.8C476.6,541.8,476.7,541.8,476.7,541.8z"/>
	<path class="st0" d="M491.2,527.4l3.8-3.8c0.6-0.6,0.8-1.4,0.6-2.1l-3.7-13.3c-0.2-0.8-0.8-1.2-1.4-1.4L477,503
		c-0.6-0.2-1.4,0-1.8,0.5l-4,4l15.8,4.1L491.2,527.4C491,527.4,491.2,527.4,491.2,527.4z"/>
	<path class="st0" d="M505.6,512.9l3.8-3.8c0.6-0.6,0.8-1.4,0.6-2.1l-3.7-13.3c-0.2-0.8-0.8-1.2-1.4-1.4l-13.5-3.7
		c-0.6-0.2-1.4,0-1.8,0.5l-4,4l15.8,4.1L505.6,512.9C505.4,512.9,505.6,512.9,505.6,512.9z"/>
	<path class="st0" d="M520,498.5l3.8-3.8c0.6-0.6,0.8-1.4,0.6-2.1l-3.7-13.3c-0.2-0.8-0.8-1.2-1.4-1.4l-13.5-3.7
		c-0.6-0.2-1.4,0-1.8,0.5l-4,4l15.8,4.1L520,498.5L520,498.5z"/>
	<path class="st0" d="M534.4,484.1l3.8-3.8c0.6-0.6,0.8-1.4,0.6-2.1l-3.7-13.3c-0.2-0.8-0.8-1.2-1.4-1.4l-13.5-3.7
		c-0.6-0.2-1.4,0-1.8,0.5l-4,4l15.8,4.1L534.4,484.1L534.4,484.1z"/>
	<path class="st0" d="M548.8,469.7l3.8-3.8c0.6-0.6,0.8-1.4,0.6-2.1l-3.7-13.3c-0.2-0.8-0.8-1.2-1.4-1.4l-13.5-3.7
		c-0.6-0.2-1.4,0-1.8,0.5l-4,4l15.8,4.1L548.8,469.7L548.8,469.7z"/>
	<path class="st0" d="M563.3,455.3l3.8-3.8c0.6-0.6,0.8-1.4,0.6-2.1l-3.7-13.3c-0.2-0.8-0.8-1.2-1.4-1.4l-13.5-3.7
		c-0.6-0.2-1.4,0-1.8,0.5l-4,4l15.8,4.1L563.3,455.3L563.3,455.3z"/>
	<path class="st0" d="M242.9,683.3l3.8-3.8c0.6-0.6,0.8-1.4,0.6-2.1l-3.7-13.3c-0.2-0.8-0.8-1.2-1.4-1.4l-13.5-3.7
		c-0.6-0.2-1.4,0-1.8,0.5l-4,4l15.8,4.1L242.9,683.3L242.9,683.3z"/>
	<path class="st0" d="M257.3,668.8l3.8-3.8c0.6-0.6,0.8-1.4,0.6-2.1l-3.7-13.3c-0.2-0.8-0.8-1.2-1.4-1.4l-13.5-3.7
		c-0.6-0.2-1.4,0-1.8,0.5l-4,4l15.8,4.1L257.3,668.8L257.3,668.8z"/>
	<path class="st0" d="M271.7,654.4l3.8-3.8c0.6-0.6,0.8-1.4,0.6-2.1l-3.7-13.3c-0.2-0.8-0.8-1.2-1.4-1.4l-13.5-3.7
		c-0.6-0.2-1.4,0-1.8,0.5l-4,4l15.8,4.1L271.7,654.4L271.7,654.4z"/>
	<path class="st0" d="M286.2,640l3.8-3.8c0.6-0.6,0.8-1.4,0.6-2.1l-3.7-13.3c-0.2-0.8-0.8-1.2-1.4-1.4l-13.5-3.7
		c-0.6-0.2-1.4,0-1.8,0.5l-4,4l15.8,4.1L286.2,640L286.2,640z"/>
	<path class="st0" d="M300.6,625.6l3.8-3.8c0.6-0.6,0.8-1.4,0.6-2.1l-3.7-13.3c-0.2-0.8-0.8-1.2-1.4-1.4l-13.5-3.7
		c-0.6-0.2-1.4,0-1.8,0.5l-4,4l15.8,4.1L300.6,625.6L300.6,625.6z"/>
	<path class="st0" d="M315.2,611.1l3.8-3.8c0.6-0.6,0.8-1.4,0.6-2.1l-3.7-13.3c-0.2-0.8-0.8-1.2-1.4-1.4l-13.5-3.7
		c-0.6-0.2-1.4,0-1.8,0.5l-4,4l15.8,4.1L315.2,611.1C315,611.1,315,611.1,315.2,611.1z"/>
	<path class="st0" d="M329.6,596.7l3.8-3.8c0.6-0.6,0.8-1.4,0.6-2.1l-3.7-13.3c-0.2-0.8-0.8-1.2-1.4-1.4l-13.5-3.7
		c-0.6-0.2-1.4,0-1.8,0.5l-4,4l15.8,4.1L329.6,596.7C329.4,596.7,329.4,596.7,329.6,596.7z"/>
	<path class="st0" d="M344,582.3l3.8-3.8c0.6-0.6,0.8-1.4,0.6-2.1l-3.7-13.3c-0.2-0.8-0.8-1.2-1.4-1.4l-13.5-3.7
		c-0.6-0.2-1.4,0-1.8,0.5l-4,4l15.8,4.1L344,582.3C343.9,582.3,343.9,582.3,344,582.3z"/>
	<path class="st0" d="M358.4,567.9l3.8-3.8c0.6-0.6,0.8-1.4,0.6-2.1l-3.7-13.3c-0.2-0.8-0.8-1.2-1.4-1.4l-13.5-3.7
		c-0.6-0.2-1.4,0-1.8,0.5l-4,4l15.8,4.1L358.4,567.9C358.3,567.9,358.3,567.9,358.4,567.9z"/>
	<path class="st0" d="M372.9,553.3l3.8-3.8c0.6-0.6,0.8-1.4,0.6-2.1l-3.7-13.3c-0.2-0.8-0.8-1.2-1.4-1.4l-13.5-3.7
		c-0.6-0.2-1.4,0-1.8,0.5l-4,4l15.8,4.1L372.9,553.3C372.7,553.4,372.9,553.4,372.9,553.3z"/>
	<path class="st0" d="M387.3,538.9l3.8-3.8c0.6-0.6,0.8-1.4,0.6-2.1l-3.7-13.3c-0.2-0.8-0.8-1.2-1.4-1.4l-13.5-3.7
		c-0.6-0.2-1.4,0-1.8,0.5l-4,4l15.8,4.1L387.3,538.9C387.1,539,387.3,539,387.3,538.9z"/>
	<path class="st0" d="M401.7,524.5l3.8-3.8c0.6-0.6,0.8-1.4,0.6-2.1l-3.7-13.3c-0.2-0.8-0.8-1.2-1.4-1.4l-13.5-3.7
		c-0.6-0.2-1.4,0-1.8,0.5l-4,4l15.8,4.1L401.7,524.5C401.5,524.6,401.7,524.6,401.7,524.5z"/>
	<path class="st0" d="M416.1,510l3.8-3.8c0.6-0.6,0.8-1.4,0.6-2.1l-3.7-13.3c-0.2-0.8-0.8-1.2-1.4-1.4l-13.5-3.7
		c-0.6-0.2-1.4,0-1.8,0.5l-4,4l15.8,4.1L416.1,510C416,510,416.1,510.2,416.1,510z"/>
	<path class="st0" d="M430.5,495.6l3.8-3.8c0.6-0.6,0.8-1.4,0.6-2.1l-3.7-13.3c-0.2-0.8-0.8-1.2-1.4-1.4l-13.5-3.7
		c-0.6-0.2-1.4,0-1.8,0.5l-4,4l15.8,4.1L430.5,495.6C430.4,495.6,430.5,495.6,430.5,495.6z"/>
	<path class="st0" d="M445,481.2l3.8-3.8c0.6-0.6,0.8-1.4,0.6-2.1l-3.7-13.3c-0.2-0.8-0.8-1.2-1.4-1.4l-13.5-3.7
		c-0.6-0.2-1.4,0-1.8,0.5l-4,4l15.8,4.1L445,481.2C444.8,481.2,445,481.2,445,481.2z"/>
	<path class="st0" d="M459.4,466.8l3.8-3.8c0.6-0.6,0.8-1.4,0.6-2.1l-3.7-13.3c-0.2-0.8-0.8-1.2-1.4-1.4l-13.5-3.7
		c-0.6-0.2-1.4,0-1.8,0.5l-4,4l15.8,4.1L459.4,466.8C459.2,466.8,459.4,466.8,459.4,466.8z"/>
	<path class="st0" d="M473.8,452.3l3.8-3.8c0.6-0.6,0.8-1.4,0.6-2.1l-3.7-13.3c-0.2-0.8-0.8-1.2-1.4-1.4l-13.5-3.7
		c-0.6-0.2-1.4,0-1.8,0.5l-4,4l15.8,4.1L473.8,452.3L473.8,452.3z"/>
	<path class="st0" d="M488.2,437.9l3.8-3.8c0.6-0.6,0.8-1.4,0.6-2.1l-3.7-13.3c-0.2-0.8-0.8-1.2-1.4-1.4l-13.5-3.7
		c-0.6-0.2-1.4,0-1.8,0.5l-4,4l15.8,4.1L488.2,437.9L488.2,437.9z"/>
	<path class="st0" d="M502.7,423.5l3.8-3.8c0.6-0.6,0.8-1.4,0.6-2.1l-3.7-13.3c-0.2-0.8-0.8-1.2-1.4-1.4l-13.5-3.7
		c-0.6-0.2-1.4,0-1.8,0.5l-4,4l15.8,4.1L502.7,423.5L502.7,423.5z"/>
	<path class="st0" d="M517.1,409.1l3.8-3.8c0.6-0.6,0.8-1.4,0.6-2.1l-3.7-13.3c-0.2-0.8-0.8-1.2-1.4-1.4l-13.5-3.7
		c-0.6-0.2-1.4,0-1.8,0.5l-4,4l15.8,4.1L517.1,409.1L517.1,409.1z"/>
	<path class="st0" d="M258.8,713.6l3.8-3.8c0.6-0.6,0.8-1.4,0.6-2.1l-3.7-13.3c-0.2-0.8-0.8-1.2-1.4-1.4l-13.5-3.7
		c-0.6-0.2-1.4,0-1.8,0.5l-4,4l15.8,4.1L258.8,713.6C258.7,713.6,258.7,713.6,258.8,713.6z"/>
	<path class="st0" d="M273.3,699.1l3.8-3.8c0.6-0.6,0.8-1.4,0.6-2.1l-3.7-13.3c-0.2-0.8-0.8-1.2-1.4-1.4l-13.5-3.7
		c-0.6-0.2-1.4,0-1.8,0.5l-4,4l15.8,4.1L273.3,699.1C273.1,699.2,273.3,699.2,273.3,699.1z"/>
	<path class="st0" d="M287.7,684.6l3.8-3.8c0.6-0.6,0.8-1.4,0.6-2.1l-3.7-13.3c-0.2-0.8-0.8-1.2-1.4-1.4l-13.5-3.7
		c-0.6-0.2-1.4,0-1.8,0.5l-4,4l15.8,4.1L287.7,684.6C287.5,684.8,287.7,684.8,287.7,684.6z"/>
	<path class="st0" d="M302.1,670.2l3.8-3.8c0.6-0.6,0.8-1.4,0.6-2.1l-3.7-13.3c-0.2-0.8-0.8-1.2-1.4-1.4l-13.5-3.7
		c-0.6-0.2-1.4,0-1.8,0.5l-4,4l15.8,4.1L302.1,670.2C302,670.4,302.1,670.4,302.1,670.2z"/>
	<path class="st0" d="M316.5,655.8l3.8-3.8c0.6-0.6,0.8-1.4,0.6-2.1l-3.7-13.3c-0.2-0.8-0.8-1.2-1.4-1.4l-13.5-3.7
		c-0.6-0.2-1.4,0-1.8,0.5l-4,4l15.8,4.1L316.5,655.8C316.4,655.8,316.5,655.9,316.5,655.8z"/>
	<path class="st0" d="M331,641.4l3.8-3.8c0.6-0.6,0.8-1.4,0.6-2.1l-3.7-13.3c-0.2-0.8-0.8-1.2-1.4-1.4l-13.5-3.7
		c-0.6-0.2-1.4,0-1.8,0.5l-4,4l15.8,4.1L331,641.4C330.8,641.4,331,641.4,331,641.4z"/>
	<path class="st0" d="M345.4,626.9l3.8-3.8c0.6-0.6,0.8-1.4,0.6-2.1l-3.7-13.3c-0.2-0.8-0.8-1.2-1.4-1.4l-13.5-3.7
		c-0.6-0.2-1.4,0-1.8,0.5l-4,4l15.8,4.1L345.4,626.9C345.2,626.9,345.4,626.9,345.4,626.9z"/>
	<path class="st0" d="M359.8,612.5l3.8-3.8c0.6-0.6,0.8-1.4,0.6-2.1l-3.7-13.3c-0.2-0.8-0.8-1.2-1.4-1.4l-13.5-3.7
		c-0.6-0.2-1.4,0-1.8,0.5l-4,4l15.8,4.1L359.8,612.5C359.7,612.5,359.8,612.5,359.8,612.5z"/>
	<path class="st0" d="M374.2,598.1l3.8-3.8c0.6-0.6,0.8-1.4,0.6-2.1l-3.7-13.3c-0.2-0.8-0.8-1.2-1.4-1.4l-13.5-3.7
		c-0.6-0.2-1.4,0-1.8,0.5l-4,4l15.8,4.1L374.2,598.1L374.2,598.1z"/>
	<path class="st0" d="M388.7,583.7l3.8-3.8c0.6-0.6,0.8-1.4,0.6-2.1l-3.7-13.3c-0.2-0.8-0.8-1.2-1.4-1.4l-13.5-3.7
		c-0.6-0.2-1.4,0-1.8,0.5l-4,4l15.8,4.1L388.7,583.7L388.7,583.7z"/>
	<path class="st0" d="M403.1,569.3l3.8-3.8c0.6-0.6,0.8-1.4,0.6-2.1l-3.7-13.3c-0.2-0.8-0.8-1.2-1.4-1.4l-13.5-3.7
		c-0.6-0.2-1.4,0-1.8,0.5l-4,4l15.8,4.1L403.1,569.3L403.1,569.3z"/>
	<path class="st0" d="M417.5,554.8l3.8-3.8c0.6-0.6,0.8-1.4,0.6-2.1l-3.7-13.3c-0.2-0.8-0.8-1.2-1.4-1.4l-13.5-3.7
		c-0.6-0.2-1.4,0-1.8,0.5l-4,4l15.8,4.1L417.5,554.8L417.5,554.8z"/>
	<path class="st0" d="M431.9,540.4l3.8-3.8c0.6-0.6,0.8-1.4,0.6-2.1l-3.7-13.3c-0.2-0.8-0.8-1.2-1.4-1.4l-13.5-3.7
		c-0.6-0.2-1.4,0-1.8,0.5l-4,4l15.8,4.1L431.9,540.4L431.9,540.4z"/>
	<path class="st0" d="M446.3,526l3.8-3.8c0.6-0.6,0.8-1.4,0.6-2.1l-3.7-13.3c-0.2-0.8-0.8-1.2-1.4-1.4l-13.5-3.7
		c-0.6-0.2-1.4,0-1.8,0.5l-4,4l15.8,4.1L446.3,526L446.3,526z"/>
	<path class="st0" d="M460.9,511.6l3.8-3.8c0.6-0.6,0.8-1.4,0.6-2.1l-3.7-13.3c-0.2-0.8-0.8-1.2-1.4-1.4l-13.5-3.7
		c-0.6-0.2-1.4,0-1.8,0.5l-4,4l15.8,4.1L460.9,511.6C460.8,511.6,460.8,511.6,460.9,511.6z"/>
	<path class="st0" d="M475.3,497.1l3.8-3.8c0.6-0.6,0.8-1.4,0.6-2.1l-3.7-13.3c-0.2-0.8-0.8-1.2-1.4-1.4l-13.5-3.7
		c-0.6-0.2-1.4,0-1.8,0.5l-4,4l15.8,4.1L475.3,497.1C475.2,497.1,475.2,497.1,475.3,497.1z"/>
	<path class="st0" d="M489.8,482.7l3.8-3.8c0.6-0.6,0.8-1.4,0.6-2.1l-3.7-13.3c-0.2-0.8-0.8-1.2-1.4-1.4l-13.5-3.7
		c-0.6-0.2-1.4,0-1.8,0.5l-4,4l15.8,4.1L489.8,482.7C489.6,482.7,489.6,482.7,489.8,482.7z"/>
	<path class="st0" d="M504.2,468.3l3.8-3.8c0.6-0.6,0.8-1.4,0.6-2.1L505,449c-0.2-0.8-0.8-1.2-1.4-1.4l-13.5-3.7
		c-0.6-0.2-1.4,0-1.8,0.5l-4,4l15.8,4.1L504.2,468.3C504,468.3,504,468.3,504.2,468.3z"/>
	<path class="st0" d="M518.6,453.7l3.8-3.8c0.6-0.6,0.8-1.4,0.6-2.1l-3.7-13.3c-0.2-0.8-0.8-1.2-1.4-1.4l-13.5-3.7
		c-0.6-0.2-1.4,0-1.8,0.5l-4,4l15.8,4.1L518.6,453.7C518.5,453.9,518.6,453.9,518.6,453.7z"/>
	<path class="st0" d="M304.7,759.5l3.8-3.8c0.6-0.6,0.8-1.4,0.6-2.1l-3.7-13.3c-0.2-0.8-0.8-1.2-1.4-1.4l-13.5-3.7
		c-0.6-0.2-1.4,0-1.8,0.5l-4,4l15.8,4.1L304.7,759.5C304.6,759.5,304.7,759.5,304.7,759.5z"/>
	<path class="st0" d="M319.1,745.1l3.8-3.8c0.6-0.6,0.8-1.4,0.6-2.1l-3.7-13.3c-0.2-0.8-0.8-1.2-1.4-1.4l-13.5-3.7
		c-0.6-0.2-1.4,0-1.8,0.5l-4,4l15.8,4.1L319.1,745.1C319,745.1,319.1,745.1,319.1,745.1z"/>
	<path class="st0" d="M333.6,730.5l3.8-3.8c0.6-0.6,0.8-1.4,0.6-2.1l-3.7-13.3c-0.2-0.8-0.8-1.2-1.4-1.4l-13.5-3.7
		c-0.6-0.2-1.4,0-1.8,0.5l-4,4l15.8,4.1L333.6,730.5C333.4,730.7,333.6,730.7,333.6,730.5z"/>
	<path class="st0" d="M348,716.1l3.8-3.8c0.6-0.6,0.8-1.4,0.6-2.1l-3.7-13.3c-0.2-0.8-0.8-1.2-1.4-1.4l-13.5-3.7
		c-0.6-0.2-1.4,0-1.8,0.5l-4,4l15.8,4.1L348,716.1C347.8,716.2,348,716.2,348,716.1z"/>
	<path class="st0" d="M362.4,701.7l3.8-3.8c0.6-0.6,0.8-1.4,0.6-2.1l-3.7-13.3c-0.2-0.8-0.8-1.2-1.4-1.4l-13.5-3.7
		c-0.6-0.2-1.4,0-1.8,0.5l-4,4l15.8,4.1L362.4,701.7C362.3,701.7,362.4,701.8,362.4,701.7z"/>
	<path class="st0" d="M376.8,687.2l3.8-3.8c0.6-0.6,0.8-1.4,0.6-2.1l-3.7-13.3c-0.2-0.8-0.8-1.2-1.4-1.4l-13.5-3.7
		c-0.6-0.2-1.4,0-1.8,0.5l-4,4l15.8,4.1L376.8,687.2C376.7,687.2,376.8,687.4,376.8,687.2z"/>
	<path class="st0" d="M391.3,672.8l3.8-3.8c0.6-0.6,0.8-1.4,0.6-2.1l-3.7-13.3c-0.2-0.8-0.8-1.2-1.4-1.4l-13.5-3.7
		c-0.6-0.2-1.4,0-1.8,0.5l-4,4l15.8,4.1L391.3,672.8C391.1,672.8,391.3,672.8,391.3,672.8z"/>
	<path class="st0" d="M405.7,658.4l3.8-3.8c0.6-0.6,0.8-1.4,0.6-2.1l-3.7-13.3c-0.2-0.8-0.8-1.2-1.4-1.4l-13.5-3.7
		c-0.6-0.2-1.4,0-1.8,0.5l-4,4l15.8,4.1L405.7,658.4L405.7,658.4z"/>
	<path class="st0" d="M420.1,644l3.8-3.8c0.6-0.6,0.8-1.4,0.6-2.1l-3.7-13.3c-0.2-0.8-0.8-1.2-1.4-1.4l-13.5-3.7
		c-0.6-0.2-1.4,0-1.8,0.5l-4,4l15.8,4.1L420.1,644L420.1,644z"/>
	<path class="st0" d="M434.5,629.6l3.8-3.8c0.6-0.6,0.8-1.4,0.6-2.1l-3.7-13.3c-0.2-0.8-0.8-1.2-1.4-1.4l-13.5-3.7
		c-0.6-0.2-1.4,0-1.8,0.5l-4,4l15.8,4.1L434.5,629.6L434.5,629.6z"/>
	<path class="st0" d="M449,615.1l3.8-3.8c0.6-0.6,0.8-1.4,0.6-2.1l-3.7-13.3c-0.2-0.8-0.8-1.2-1.4-1.4l-13.5-3.7
		c-0.6-0.2-1.4,0-1.8,0.5l-4,4l15.8,4.1L449,615.1L449,615.1z"/>
	<path class="st0" d="M463.4,600.7l3.8-3.8c0.6-0.6,0.8-1.4,0.6-2.1l-3.7-13.3c-0.2-0.8-0.8-1.2-1.4-1.4l-13.5-3.7
		c-0.6-0.2-1.4,0-1.8,0.5l-4,4l15.8,4.1L463.4,600.7L463.4,600.7z"/>
	<path class="st0" d="M477.8,586.3l3.8-3.8c0.6-0.6,0.8-1.4,0.6-2.1l-3.7-13.3c-0.2-0.8-0.8-1.2-1.4-1.4l-13.5-3.7
		c-0.6-0.2-1.4,0-1.8,0.5l-4,4l15.8,4.1L477.8,586.3L477.8,586.3z"/>
	<path class="st0" d="M492.4,571.9l3.8-3.8c0.6-0.6,0.8-1.4,0.6-2.1l-3.7-13.3c-0.2-0.8-0.8-1.2-1.4-1.4l-13.5-3.7
		c-0.6-0.2-1.4,0-1.8,0.5l-4,4l15.8,4.1L492.4,571.9C492.2,571.9,492.2,571.9,492.4,571.9z"/>
	<path class="st0" d="M506.8,557.4l3.8-3.8c0.6-0.6,0.8-1.4,0.6-2.1l-3.7-13.3c-0.2-0.8-0.8-1.2-1.4-1.4l-13.7-3.7
		c-0.6-0.2-1.4,0-1.8,0.5l-4,4l15.8,4.1L506.8,557.4C506.6,557.4,506.6,557.4,506.8,557.4z"/>
	<path class="st0" d="M521.2,543l3.8-3.8c0.6-0.6,0.8-1.4,0.6-2.1l-3.7-13.3c-0.2-0.8-0.8-1.2-1.4-1.4l-13.5-3.7
		c-0.6-0.2-1.4,0-1.8,0.5l-4,4l15.8,4.1L521.2,543C521.1,543,521.1,543,521.2,543z"/>
	<path class="st0" d="M535.6,528.6l3.8-3.8c0.6-0.6,0.8-1.4,0.6-2.1l-3.7-13.3c-0.2-0.8-0.8-1.2-1.4-1.4l-13.5-3.7
		c-0.6-0.2-1.4,0-1.8,0.5l-4,4l15.8,4.1L535.6,528.6C535.5,528.6,535.5,528.6,535.6,528.6z"/>
	<path class="st0" d="M550.1,514.2l3.8-3.8c0.6-0.6,0.8-1.4,0.6-2.1l-3.7-13.3c-0.2-0.8-0.8-1.2-1.4-1.4l-13.5-3.7
		c-0.6-0.2-1.4,0-1.8,0.5l-4,4l15.8,4.1L550.1,514.2C549.9,514.2,550.1,514.2,550.1,514.2z"/>
	<path class="st0" d="M564.5,499.7l3.8-3.8c0.6-0.6,0.8-1.4,0.6-2.1l-3.7-13.3c-0.2-0.8-0.8-1.2-1.4-1.4l-13.5-3.7
		c-0.6-0.2-1.4,0-1.8,0.5l-4,4l15.8,4.1L564.5,499.7C564.3,499.7,564.5,499.7,564.5,499.7z"/>
	<path class="st0" d="M214,668.8l3.8-3.8c0.6-0.6,0.8-1.4,0.6-2.1l-3.7-13.2c-0.2-0.8-0.8-1.2-1.4-1.4l-13.5-3.7
		c-0.6-0.2-1.4,0-1.8,0.5l-4,4l15.8,4.1L214,668.8C213.9,668.8,214,668.8,214,668.8z"/>
	<path class="st0" d="M228.5,654.4l3.8-3.8c0.6-0.6,0.8-1.4,0.6-2.1l-3.7-13.3c-0.2-0.8-0.8-1.2-1.4-1.4l-13.5-3.7
		c-0.6-0.2-1.4,0-1.8,0.5l-4,4l15.8,4.1L228.5,654.4L228.5,654.4z"/>
	<path class="st0" d="M242.9,640l3.8-3.8c0.6-0.6,0.8-1.4,0.6-2.1l-3.7-13.3c-0.2-0.8-0.8-1.2-1.4-1.4l-13.5-3.7
		c-0.6-0.2-1.4,0-1.8,0.5l-4,4l15.8,4.1L242.9,640L242.9,640z"/>
	<path class="st0" d="M257.3,625.6l3.8-3.8c0.6-0.6,0.8-1.4,0.6-2.1l-3.7-13.3c-0.2-0.8-0.8-1.2-1.4-1.4l-13.5-3.7
		c-0.6-0.2-1.4,0-1.8,0.5l-4,4l15.8,4.1L257.3,625.6L257.3,625.6z"/>
	<path class="st0" d="M271.7,611.1l3.8-3.8c0.6-0.6,0.8-1.4,0.6-2.1l-3.7-13.3c-0.2-0.8-0.8-1.2-1.4-1.4l-13.5-3.7
		c-0.6-0.2-1.4,0-1.8,0.5l-4,4l15.8,4.1L271.7,611.1L271.7,611.1z"/>
	<path class="st0" d="M286.2,596.7l3.8-3.8c0.6-0.6,0.8-1.4,0.6-2.1l-3.7-13.3c-0.2-0.8-0.8-1.2-1.4-1.4l-13.5-3.7
		c-0.6-0.2-1.4,0-1.8,0.5l-4,4l15.8,4.1L286.2,596.7L286.2,596.7z"/>
	<path class="st0" d="M300.6,582.3l3.8-3.8c0.6-0.6,0.8-1.4,0.6-2.1l-3.7-13.3c-0.2-0.8-0.8-1.2-1.4-1.4l-13.5-3.7
		c-0.6-0.2-1.4,0-1.8,0.5l-4,4l15.8,4.1L300.6,582.3L300.6,582.3z"/>
	<path class="st0" d="M315.2,567.9l3.8-3.8c0.6-0.6,0.8-1.4,0.6-2.1l-3.7-13.3c-0.2-0.8-0.8-1.2-1.4-1.4l-13.5-3.7
		c-0.6-0.2-1.4,0-1.8,0.5l-4,4l15.8,4.1L315.2,567.9C315,567.9,315,567.9,315.2,567.9z"/>
	<path class="st0" d="M329.6,553.3l3.8-3.8c0.6-0.6,0.8-1.4,0.6-2.1l-3.7-13.3c-0.2-0.8-0.8-1.2-1.4-1.4l-13.5-3.7
		c-0.6-0.2-1.4,0-1.8,0.5l-4,4l15.8,4.1L329.6,553.3C329.4,553.4,329.4,553.4,329.6,553.3z"/>
	<path class="st0" d="M344,538.9l3.8-3.8c0.6-0.6,0.8-1.4,0.6-2.1l-3.7-13.3c-0.2-0.8-0.8-1.2-1.4-1.4l-13.5-3.5
		c-0.6-0.2-1.4,0-1.8,0.5l-4,4l15.8,4.1L344,538.9C343.9,539,343.9,539,344,538.9z"/>
	<path class="st0" d="M358.4,524.5l3.8-3.8c0.6-0.6,0.8-1.4,0.6-2.1l-3.7-13.3c-0.2-0.8-0.8-1.2-1.4-1.4l-13.5-3.7
		c-0.6-0.2-1.4,0-1.8,0.5l-4,4l15.8,4.1L358.4,524.5C358.3,524.6,358.3,524.6,358.4,524.5z"/>
	<path class="st0" d="M372.9,510l3.8-3.8c0.6-0.6,0.8-1.4,0.6-2.1l-3.7-13.3c-0.2-0.8-0.8-1.2-1.4-1.4l-13.5-3.7
		c-0.6-0.2-1.4,0-1.8,0.5l-4,4l15.8,4.1L372.9,510C372.7,510,372.9,510.2,372.9,510z"/>
	<path class="st0" d="M387.3,495.6l3.8-3.8c0.6-0.6,0.8-1.4,0.6-2.1l-3.7-13.3c-0.2-0.8-0.8-1.2-1.4-1.4l-13.5-3.7
		c-0.6-0.2-1.4,0-1.8,0.5l-4,4l15.8,4.1L387.3,495.6C387.1,495.6,387.3,495.6,387.3,495.6z"/>
	<path class="st0" d="M401.7,481.2l3.8-3.8c0.6-0.6,0.8-1.4,0.6-2.1l-3.7-13.3c-0.2-0.8-0.8-1.2-1.4-1.4l-13.5-3.7
		c-0.6-0.2-1.4,0-1.8,0.5l-4,4l15.7,4.3L401.7,481.2C401.5,481.2,401.7,481.2,401.7,481.2z"/>
	<path class="st0" d="M416.1,466.8l3.8-3.8c0.6-0.6,0.8-1.4,0.6-2.1l-3.7-13.3c-0.2-0.8-0.8-1.2-1.4-1.4l-13.5-3.5
		c-0.6-0.2-1.4,0-1.8,0.5l-4,4l15.8,4.1L416.1,466.8C416,466.8,416.1,466.8,416.1,466.8z"/>
	<path class="st0" d="M430.5,452.3l3.8-3.8c0.6-0.6,0.8-1.4,0.6-2.1l-3.7-13.3c-0.2-0.8-0.8-1.2-1.4-1.4l-13.5-3.7
		c-0.6-0.2-1.4,0-1.8,0.5l-4,4l15.8,4.1L430.5,452.3C430.4,452.3,430.5,452.3,430.5,452.3z"/>
	<path class="st0" d="M445,437.9l3.8-3.8c0.6-0.6,0.8-1.4,0.6-2.1l-3.7-13.3c-0.2-0.8-0.8-1.2-1.4-1.4l-13.5-3.7
		c-0.6-0.2-1.4,0-1.8,0.5l-4,4l15.8,4.1L445,437.9C444.8,437.9,445,437.9,445,437.9z"/>
	<path class="st0" d="M459.4,423.5l3.8-3.8c0.6-0.6,0.8-1.4,0.6-2.1l-3.7-13.3c-0.2-0.8-0.8-1.2-1.4-1.4l-13.5-3.7
		c-0.6-0.2-1.4,0-1.8,0.5l-4,4l15.8,4.1L459.4,423.5C459.2,423.5,459.4,423.5,459.4,423.5z"/>
	<path class="st0" d="M473.8,409.1l3.8-3.8c0.6-0.6,0.8-1.4,0.6-2.1l-3.7-13.3c-0.2-0.8-0.8-1.2-1.4-1.4l-13.5-3.7
		c-0.6-0.2-1.4,0-1.8,0.5l-4,4l15.8,4.1L473.8,409.1L473.8,409.1z"/>
</g>
<g>
	<g>
		<path class="st1" d="M444.1,290.7c13.5,42.2,46.3,80.2,66.3,100.5c6.4,6.5,11.5,11.2,14.3,13.7l48.7-5.2
			c10-19.9,59.7-125.2,27.9-187.7C566,142.7,442,170.7,438.1,249.4C437.4,263.3,439.8,277.3,444.1,290.7z M558,283.2
			c1.2-9,3.1-15.6,6.1-17.9C574.3,257.5,581.7,275.8,558,283.2z M506.5,283.7C446.7,274,483.6,254.2,506.5,283.7L506.5,283.7z"/>
		<path d="M523.8,405.8c-2.5-2.3-7.8-7.1-14.3-13.7c-19-19.3-52.9-58-66.6-101c-4.6-14.5-6.6-28.6-6-41.8v0c0.9-19,8.9-36.3,23-50.1
			c12.8-12.4,30.2-21.5,49.1-25.5c18.4-3.9,37.4-2.9,53.4,2.9c17.8,6.5,31.5,18.5,39.8,34.8c32,62.9-17.6,168.3-27.9,188.8l-0.3,0.6
			l-49.9,5.3L523.8,405.8z M601.8,321.5c5.5-20.6,8.4-39.7,8.7-56.6c0.4-20.5-3.1-38.1-10.3-52.3c-8-15.8-21.3-27.4-38.5-33.6
			c-15.6-5.7-34.1-6.7-52.1-2.8c-18.5,3.9-35.5,12.8-47.9,24.9c-13.7,13.3-21.4,30.1-22.3,48.5c-0.6,12.9,1.3,26.7,5.9,40.9
			c13.6,42.5,47.2,80.9,66,100c6.2,6.3,11.2,10.9,13.8,13.2l47.5-5.1C577.3,389,592.2,357.7,601.8,321.5z M506.3,284.9
			c-20.4-3.3-32.9-8.4-33.5-13.6c-0.2-1.6,0.8-2.9,2.6-3.7c3.2-1.3,8.5-0.8,13.9,1.3c4.7,1.9,11.7,5.8,18,14l1.9,2.4L506.3,284.9z
			 M476.4,269.9c-0.6,0.2-1.2,0.6-1.1,1.2c0.3,2.5,8.1,7.3,28.2,10.9c-5.4-6.1-11-9.2-14.9-10.7c-3.4-1.3-6.4-1.9-8.8-1.9
			C478.4,269.4,477.2,269.6,476.4,269.9z M556.8,283.1c1.4-10.2,3.5-16.4,6.5-18.7l0,0c3-2.3,6.1-2.8,8.5-1.4
			c2.2,1.2,3.4,3.8,3.1,6.8c-0.2,2.3-2.1,10.1-16.6,14.7l-1.8,0.6L556.8,283.1z M564.8,266.3c-1.6,1.2-3.8,4.9-5.3,15.1
			c6.2-2.3,12.5-6.5,13-12c0.2-2-0.5-3.7-1.9-4.4c-0.5-0.3-1.1-0.4-1.7-0.4C567.7,264.6,566.3,265.2,564.8,266.3z"/>
	</g>
	<g>
		<path class="st1" d="M558,283.2c23.7-7.5,16.3-25.8,6.1-17.9C561.1,267.6,559.2,274.2,558,283.2z"/>
		<path class="st2" d="M556.8,283.1c1.4-10.2,3.5-16.4,6.5-18.7c3-2.3,6.1-2.8,8.5-1.4c2.2,1.2,3.4,3.8,3.1,6.8
			c-0.2,2.3-2.1,10.1-16.6,14.7l-1.8,0.6L556.8,283.1z M564.8,266.3c-1.6,1.2-3.8,4.9-5.3,15.1c6.2-2.3,12.5-6.5,13-12
			c0.2-2-0.5-3.7-1.9-4.4c-0.5-0.3-1.1-0.4-1.7-0.4C567.7,264.6,566.3,265.2,564.8,266.3z"/>
	</g>
	<g>
		<path d="M526.1,407.9c0,0-0.9-0.7-2.3-2l-2-1.8l53.6-5.7l-1,2c-1.1,2.1-1.7,3.3-1.7,3.3l-0.3,0.6l-45.9,4L526.1,407.9z
			 M571.2,401.2l-34.7,3.7l34.4-3C571,401.7,571.1,401.5,571.2,401.2z"/>
	</g>
	<g>
		<path class="st1" d="M506.5,283.7C483.6,254.2,446.7,274,506.5,283.7L506.5,283.7z"/>
		<path class="st2" d="M506.3,284.9c-20.4-3.3-32.9-8.4-33.5-13.6c-0.2-1.6,0.8-2.9,2.6-3.7c3.2-1.3,8.5-0.8,13.9,1.3
			c4.7,1.9,11.7,5.8,18,14l1.9,2.4L506.3,284.9z M476.4,269.9c-0.6,0.2-1.2,0.6-1.1,1.2c0.1,1,2,3,6.8,5.1c5,2.2,12.4,4.2,21.4,5.8
			c-5.4-6.1-11-9.2-14.9-10.7c-3.4-1.3-6.4-1.9-8.8-1.9C478.4,269.4,477.2,269.6,476.4,269.9z"/>
	</g>
	<g>
		<polygon class="st1" points="523.1,405.1 524.3,416.6 524.4,417.7 577.2,412.1 577,410.9 575.8,399.5 573.3,399.7 524.6,404.9 		
			"/>
		<path class="st2" d="M521.7,404l55.2-5.9l1.6,15l-55.2,5.9L521.7,404z M574.7,400.8l-50,5.3l-0.4,0l1.1,10.2l50.3-5.4L574.7,400.8
			z"/>
	</g>
	<g>
		<path class="st2" d="M549.9,448.7l7.6-0.8c11.1-1.2,19.2-11.2,18-22.3v0l-47.9,5.1v0C528.8,441.9,538.7,449.9,549.9,448.7z"/>
	</g>
	<g>
		<path class="st2" d="M531,392.1l2.4-0.3c0-0.3-1-7.1-13.1-77.5c-2-11.4-5.7-21.1-11.1-28.9c19.7,2.9,35.6,2.8,47.3-0.4
			c-4.2,35.8,2,106.4,2.1,107.1l2.4-0.2c-0.1-0.7-6.5-73.6-1.9-108.5l0.3-1.9l-1.8,0.6c-11.6,3.6-27.8,3.9-48.4,0.8
			c-0.9-0.1-1.7-0.3-2.5-0.4l-3.1-0.5l1.9,2.5c6.1,7.8,10.3,18,12.4,30.2C530,384.9,531,391.9,531,392.1z"/>
	</g>
	<g>
		<g>
			
				<rect x="521" y="413.7" transform="matrix(0.9944 -0.1061 0.1061 0.9944 -41.6882 60.9508)" class="st3" width="61.5" height="16.9"/>
		</g>
		<g>
			<path class="st2" d="M519,415.9l63.5-6.8l2.1,19.2l-63.5,6.8L519,415.9z M580.3,411.8l-58.7,6.3l1.5,14.4l58.7-6.3L580.3,411.8z"
				/>
		</g>
	</g>
</g>
<g>
	<polygon class="st1" points="328,839.7 305,883.5 277.3,878 294,821.5 	"/>
	<path d="M275.7,879l17.6-59.3l36.3,19.5l-23.9,45.7L275.7,879z M294.8,823.2l-16,53.9l25.5,5.1l22-42L294.8,823.2z"/>
</g>
<g>
	<polygon class="st1" points="485.4,857.5 483.1,906.9 455.6,913.6 447,855.2 	"/>
	<path d="M445.6,853.9l41.1,2.4l-2.4,51.6l-29.6,7.2L445.6,853.9z M484.1,858.6l-35.7-2.1l8.2,55.6l25.3-6.2L484.1,858.6z"/>
</g>
<g>
	<path class="st1" d="M457.1,188.1c0,0,6.5,11.8,8.4,21.4c2,9.5,11.8,8.8,10.7,11.9c-1,3.1-9.7,6.4-9.7,6.4s-3,10.9-6.3,16
		c-4,6.1-18.3,10.2-18.3,10.2l3.8,48.7l-87.4-1.9c0,0,37.7-17.6,39.2-26.2c2.6-14.7,6.3-32.4,5.7-43.1c-1-17-7.2-38.6,9.7-41.7
		C429.7,186.6,457.1,188.1,457.1,188.1z"/>
	<path class="st2" d="M353.1,301.9l4.7-2.2c14.9-7,37.5-19.5,38.5-25.3c0.4-2.5,0.9-5,1.4-7.6c2.4-13,4.8-26.5,4.3-35.3
		c-0.2-3.1-0.5-6.4-0.9-9.7c-0.8-7.3-1.6-14.8-0.5-20.9c1.4-7.1,5.3-11.2,12-12.4c16.8-3.1,44.2-1.6,44.5-1.6l0.7,0l0.3,0.6
		c0.3,0.5,6.6,12.1,8.6,21.7c1.1,5.2,4.7,7,7.4,8.3c1.9,0.9,4,2,3.3,4.2c-1.1,3.1-7.5,6-9.8,6.9c-0.7,2.4-3.3,11.2-6.3,15.7
		c-3.6,5.5-14.7,9.3-18,10.4l3.8,49L353.1,301.9z M473,219.8c-2.9-1.5-7.4-3.7-8.7-10c-1.7-8-6.7-17.9-8-20.4
		c-4.3-0.2-28.1-1.2-43.2,1.6c-12.6,2.3-11.2,16.1-9.6,30.6c0.4,3.3,0.7,6.6,0.9,9.8c0.5,9.1-1.9,22.7-4.3,35.9
		c-0.5,2.6-0.9,5.1-1.4,7.6c-0.7,4-7.5,9.6-20.8,17.2c-5.5,3.1-10.9,5.9-14.6,7.7l81,1.7l-3.8-48.3l1-0.3c0,0,3.5-1,7.5-2.8
		c5.1-2.2,8.6-4.6,10.1-6.9c3.2-4.8,6.1-15.5,6.1-15.6l0.2-0.6l0.6-0.2c3.4-1.3,8.4-3.9,9-5.7c0,0,0,0,0,0
		C474.9,220.7,473.8,220.2,473,219.8z"/>
</g>
<g>
	<g>
		<g>
			<path class="st3" d="M502.4,423.7c0,0,9.7,150.6,4.5,219.9s-16.4,233.7-16.4,233.7s-36.5,0.9-54.4-5.2c0,0,0-141.1,0-181.8
				c0-40.7-13.4-103-13.4-103s-40.2,161-96.8,276.1c0,0-35.1-5.2-50.3-20.8c0,0,25-138.5,39.9-173.1
				c14.9-34.6,28.6-219.9,28.6-219.9L502.4,423.7z"/>
		</g>
	</g>
	<g>
		<path class="st2" d="M435.7,873.2l-0.8-0.3v-0.9c0-1.4,0-141.6,0-181.8c0-33.3-9.2-81.8-12.3-97.6c-3.3,12.5-12.4,46.9-25.9,89.8
			C381,732.4,356.2,804.4,326.9,864l-0.4,0.8l-0.9-0.1c-1.4-0.2-35.7-5.4-51-21.1l-0.4-0.4l0.1-0.6c0.3-1.4,25.2-139,40-173.4
			c14.6-34,28.3-217.6,28.5-219.5l0.1-1l160.7-26.3l0.1,1.3c0.1,1.5,9.6,151.5,4.5,220c-5.2,68.4-16.3,232-16.4,233.7l-0.1,1.1
			l-1.1,0c-0.3,0-2.2,0-5.2,0C474.6,878.5,449.8,878,435.7,873.2z M505.6,643.5c4.9-64.9-3.4-203.2-4.4-218.3l-156.1,25.6
			c-0.5,6.9-3.8,49.9-8.6,96c-7,67.3-13.7,108.8-20,123.3c-14.2,32.9-37.9,162.1-39.7,172.2c13.6,13.4,42.9,18.9,48.3,19.8
			c29-59.2,53.6-130.6,69.2-180.2c16.9-54,27.1-94.4,27.2-94.8l1.3-5.1l1.1,5.1c0.1,0.6,13.4,62.9,13.4,103.3
			c0,38.5,0,168.8,0,180.9c16,5.1,45.9,5,52,4.9C490.3,861.5,500.7,708.9,505.6,643.5z"/>
	</g>
</g>
<g>
	<path class="st2" d="M440.6,503.6c0,0-10.1,35.7-17.9,83.7c0,0,10.8,45.1,13.2,93.8c0,0,1.1-43.9,2.9-72.1
		c1.5-22.4-3.8-28.1-2.4-48.6C437.9,540,440.6,503.6,440.6,503.6z"/>
</g>
<g>
	<path class="st2" d="M461,445.6c0,0-42,24-65.7,22.4c-48.6-3.2-54.8,14.7-54.8,14.7l3.5-36.7C344,446.1,458.3,426.7,461,445.6z"/>
</g>
<g>
	<g>
		<path class="st2" d="M452.1,908.4c0,0,22.2-1.9,31-11.9c0,0,40.2,29.5,49.8,34.5c0,0,11.5,7.6,6.3,19.7h0
			c-16.5,0.9-86.9,0.2-86.9,0.2S452.7,917.3,452.1,908.4z"/>
	</g>
	<g>
		<path class="st2" d="M481.9,896.7c0-0.3-1-8-0.7-16.3c0.4-11.6,3.1-18.5,7.9-20.6c3.8-1.7,5.8-0.6,6.8,0.5
			c3.9,4.5-0.7,18.9-11.8,36.9l-1.8,2.9L481.9,896.7z M490.1,861.9c-6.9,3-7,20.8-6.1,30.8c9.7-16.5,12.5-28.2,10.1-30.9
			c-0.4-0.4-0.9-0.6-1.4-0.6C491.8,861.3,490.9,861.6,490.1,861.9z"/>
	</g>
	<g>
		<path class="st2" d="M482.7,897.6l-1.8-0.7l1.4-1.3c0.5-0.5,11.9-11.2,20.3-9.3c3.1,0.7,5.3,2.9,6.8,6.5c1.3,3.2,1.1,5.7-0.6,7.4
			c-1.4,1.4-3.8,1.9-6.6,1.9C494.6,902.1,484.2,898.2,482.7,897.6z M485.4,896.1c7.6,2.6,18.8,5.2,21.6,2.4c0.9-0.9,0.9-2.5,0-4.8
			c-1.1-2.9-2.8-4.5-5-5c-0.5-0.1-1.1-0.2-1.6-0.2C495.1,888.5,488.4,893.6,485.4,896.1z"/>
	</g>
</g>
<g>
	<g>
		<path class="st2" d="M278.1,868.8c0,0,19.6,10.6,32.4,7.1c0,0,17.4,46.7,22.7,56.2c0,0,5.4,12.7-5.5,20h0
			c-14.3-8.3-72.8-47.5-72.8-47.5S273.8,876.6,278.1,868.8z"/>
	</g>
	<g>
		<path class="st2" d="M309.4,875.3c0.1-0.3,3.5-7.2,8.4-14c6.7-9.4,12.7-13.8,17.9-12.9c4.1,0.7,5.2,2.7,5.4,4.2
			c0.8,5.9-11,15.4-30.1,24.4l-3.1,1.5L309.4,875.3z M313.3,873.2c17.2-8.5,25.9-16.7,25.4-20.3c-0.2-1.3-1.9-1.9-3.4-2.1
			c-0.3-0.1-0.6-0.1-0.9-0.1C327.1,850.7,317.9,864.7,313.3,873.2z"/>
	</g>
	<g>
		<path class="st2" d="M309.5,876.6l-1.1-1.6l1.9-0.3c0.7-0.1,16.1-2.9,22.1,3.4c2.2,2.3,2.9,5.3,2.1,9.1c-0.7,3.4-2.2,5.4-4.5,5.8
			c-0.3,0.1-0.7,0.1-1,0.1C321.7,893.1,310.8,878.3,309.5,876.6z M312.7,876.8c4.9,6.4,12.8,14.7,16.8,13.9c1.2-0.3,2.1-1.6,2.6-4
			c0.6-3,0.2-5.3-1.4-6.9c-2.6-2.7-7.6-3.3-11.9-3.3C316.4,876.4,314.2,876.6,312.7,876.8z"/>
	</g>
</g>
<g>
	<g>
		<g>
			<path class="st4" d="M253.9,411.9c1.3,0.7,2.7,1.5,4,2.2c28.1,14.5,67.1,21.5,67.1,21.5c0.4-0.4,0.8-0.8,1.2-1.3
				c4.9-5.7,8.2-14.8,9.5-18.6c0.4-1.1,0.5-1.7,0.5-1.7s-41.7-23.8-40.6-27.9c1.1-4.1,53.3-22,53.3-22l-5.4,53
				c4.1,0.6,9.1,1,13.5,0.9c9.2-0.4,13-1.3,17.4,2.4c4.5,3.7,15.8,15.3,15.8,15.3s5.1,4.6-6.6,7.3c-11.7,2.7-24.9-4.5-24.9-4.5
				c-6.8,0.2-12.6,0.2-17.4-0.2l-1.4,13.4c89,15.3,170.4-22.3,170.4-22.3v-38c-20.1-20.4-52.9-58.3-66.3-100.5
				c-33.6,8.3-61.4-6.5-61.4-6.5c-7.6-3.2-151.4,60.9-152.9,97.4C229.3,393.8,239.7,403.9,253.9,411.9z"/>
		</g>
	</g>
	<g>
		<path class="st2" d="M339.8,452.8l-1.1-0.2l1.6-15.7l1.2,0.1c4.4,0.3,9.7,0.4,17.3,0.2l0.3,0l0.3,0.2c0.1,0.1,12.9,6.9,24,4.4
			c5.6-1.3,6.6-2.8,6.7-3.5c0.2-0.9-0.7-1.7-0.7-1.7l-0.1-0.1c-0.1-0.1-11.4-11.5-15.7-15.2c-3.4-2.8-6.3-2.7-12.7-2.3
			c-1.2,0.1-2.5,0.1-3.9,0.2c-3.7,0.1-8.4-0.1-13.7-0.9l-1.2-0.2l5.3-52.2c-23.6,8.1-48.2,17.7-50.6,20.5c0.4,0.8,3,4,20.1,14.7
			c9.9,6.2,19.7,11.8,19.8,11.9l0.8,0.5l-0.3,0.9c0,0-0.2,0.7-0.6,1.8c-1.2,3.7-4.6,13.1-9.7,19c-0.4,0.5-0.8,0.9-1.2,1.3l-0.5,0.5
			l-0.6-0.1c-0.4-0.1-39.5-7.3-67.5-21.7c-1.4-0.7-2.8-1.5-4.1-2.2l0,0c-16.9-9.5-25.2-20.1-24.8-31.4c0.5-12.7,16.7-29.2,48.2-49.1
			c19-12,43.5-25,67.2-35.7c10-4.5,18.9-8.2,26-10.7c11-3.9,12.6-3.3,13.3-3l0.1,0c0.3,0.1,27.8,14.5,60.6,6.4l1.1-0.3l0.3,1.1
			c13.6,42.5,47.2,80.9,66,100l0.4,0.4v39.3l-0.7,0.3c-0.2,0.1-20.8,9.5-52,17c-19.4,4.6-45.8,9.1-75,9.1
			C369.7,456.5,354.9,455.4,339.8,452.8z M509.2,391.8c-18.9-19.2-52.1-57.3-65.9-99.6c-17.2,4-32.7,2-42.8-0.4
			c-10.7-2.5-17.5-6-18.3-6.4c-2.1-0.6-17.7,4.4-44.6,17c-27.9,13.1-54.6,28.1-73.2,41.3c-21.4,15.2-33,28.3-33.4,38
			c-0.4,10.3,7.5,20.1,23.5,29.2l0,0c1.3,0.7,2.6,1.4,4,2.2c25.7,13.2,61,20.3,66.2,21.3c0.2-0.2,0.4-0.5,0.7-0.7
			c4.8-5.6,8.1-14.6,9.2-18.2c0.1-0.3,0.2-0.6,0.3-0.8c-2.7-1.6-11.4-6.6-19.9-12c-6-3.8-10.7-7-14.1-9.5c-5.8-4.3-6.7-6-6.3-7.4
			c0.3-1.1,0.9-3.2,27.8-13.3c13-4.9,26.1-9.4,26.2-9.5l1.8-0.6l-5.5,53.7c4.7,0.6,8.8,0.8,12.1,0.7c1.4-0.1,2.7-0.1,3.9-0.2
			c6.6-0.4,10.2-0.6,14.4,2.9c4.4,3.7,15.2,14.6,15.9,15.3c0.7,0.7,1.8,2.3,1.4,4.1c-0.6,2.3-3.4,4-8.6,5.2
			c-11.2,2.6-23.3-3.3-25.4-4.4c-6.8,0.2-11.9,0.1-16.1-0.1l-1.1,11.1c45.3,7.6,88.5,1.1,116.9-5.6c27.8-6.6,47.1-14.8,50.9-16.5
			V391.8z M296.8,386.5L296.8,386.5L296.8,386.5z"/>
	</g>
</g>
<g>
	<path class="st1" d="M353.5,418c0,0,13-6.4,15.7-8.3s0.9,9.3-6.4,11S353.5,418,353.5,418z"/>
	<path class="st2" d="M352.4,418.4l-0.5-1.1l1.1-0.5c0.1-0.1,13-6.4,15.5-8.2c1-0.7,1.8-0.4,2.1-0.2c0.9,0.5,1.2,1.8,0.9,3.6
		c-0.5,3.3-3.2,8.6-8.3,9.9c-1.3,0.3-2.4,0.4-3.4,0.4C354.2,422.4,352.5,418.6,352.4,418.4z M355.4,418.4c1,0.9,3.1,2.1,7.2,1.1
		c3-0.7,4.7-3.2,5.4-4.7c0.8-1.5,1.1-2.8,1.2-3.7C366.1,413.1,358.4,416.9,355.4,418.4z"/>
</g>
<g>
	<path class="st2" d="M429.6,254.1c3.4,0.1,8.8,0,12.1-1l2.3,29c0,0-6-14-8.6-17.2c-2.1-2.7-5-6.2-6.8-8.5
		C427.8,255.4,428.5,254.1,429.6,254.1z"/>
</g>
<g>
	
		<ellipse transform="matrix(0.9982 -6.055861e-02 6.055861e-02 0.9982 -11.9952 28.2123)" class="st2" cx="459.4" cy="212" rx="1.8" ry="2.4"/>
</g>
<g>
	<path class="st2" d="M452.8,209.2c0.6,0,1.1-0.4,1.2-1c0-0.2,0.9-3.8,5.9-4.6c0.7-0.1,1.1-0.7,1-1.4c-0.1-0.7-0.7-1.1-1.4-1
		c-6.7,1-7.9,6.3-7.9,6.5c-0.1,0.7,0.3,1.3,1,1.4C452.7,209.2,452.8,209.2,452.8,209.2z"/>
</g>
<g>
	<path class="st1" d="M459.9,236.7l-15.9-5.5c0,0,0.8,7.6,6.7,8.6S459.9,236.7,459.9,236.7z"/>
	<path class="st2" d="M450.5,241c-2.8-0.5-5.1-2.4-6.5-5.4c-1-2.2-1.2-4.2-1.2-4.3l-0.2-1.9l19.3,6.7l-1,1.3c-0.1,0.2-3,3.8-8.2,3.8
		C451.9,241.2,451.2,241.2,450.5,241z M445.6,233.1c0.6,2,2.1,5,5.3,5.6c3.1,0.5,5.3-0.5,6.6-1.5L445.6,233.1z"/>
</g>
<g>
	<path class="st2" d="M426.9,211.6c4.4-7.4,11.6-12.5,19.9-14.4c9-2,21.2-6.8,18.9-17.6c0,0-0.4-6.1-6.2-3.7
		c-5.9,2.4-15.9-6.5-18.3-13.8c-2.4-7.3-25.9-12.5-30.5,7.6s-5.4,18.6-14.5,25c-9.1,6.3-11.7,20.3-5,26.4c6.7,6.1,4.7,17.5,8.4,17.9
		c3.7,0.4,13.2-4.8,12.7-14c0,0-8.2-10.2-1.5-15.5c6.7-5.2,9.1,3.4,9.1,3.4s2.7,6.3,6.9-0.9C426.7,211.9,426.8,211.7,426.9,211.6z"
		/>
</g>
<g>
	<g>
		<path class="st5" d="M341.4,438.2c4.9,0.4,10.6,0.4,17.4,0.2c0,0,13.1,7.2,24.9,4.5c11.7-2.7,6.6-7.3,6.6-7.3
			s-11.4-11.5-15.8-15.3c-4.5-3.7-8.2-2.8-17.4-2.4c-4.4,0.2-9.4-0.3-13.5-0.9L341.4,438.2z"/>
	</g>
	<g>
		<path d="M358.5,439.6c-7.5,0.2-12.8,0.1-17.2-0.2l-1.2-0.1l2.4-23.6l1.2,0.2c5.2,0.7,9.7,1,13.3,0.9c1.4-0.1,2.7-0.1,3.9-0.2
			c6.6-0.4,10.2-0.6,14.4,2.9c4.4,3.7,15.2,14.6,15.9,15.3c0.7,0.7,1.8,2.3,1.4,4.1c-0.6,2.3-3.4,4-8.6,5.2c-2,0.5-4,0.6-5.9,0.6
			C368.8,444.7,360.2,440.5,358.5,439.6z M361,419c-1.2,0.1-2.5,0.1-3.9,0.2c-3.4,0.1-7.6-0.1-12.5-0.7l-1.9,18.7
			c4.1,0.3,9.2,0.3,16.1,0.1l0.3,0l0.3,0.2c0.1,0.1,12.8,6.9,24,4.4c5.6-1.3,6.6-2.8,6.7-3.5c0.2-0.9-0.7-1.7-0.7-1.7l-0.1-0.1
			c-0.1-0.1-11.4-11.5-15.7-15.2c-2.4-2-4.6-2.5-7.9-2.5C364.4,418.8,362.9,418.9,361,419z"/>
	</g>
</g>
<g>
	<path class="st2" d="M349.3,362.5l21.1-9.4c0,0-3.5,10.6-11.7,24.3c-8.3,13.7-14.3,33.6-14.3,33.6L349.3,362.5z"/>
</g>
<g>
	<path class="st1" d="M326.3,434.4c3.7,2.2,8.6,3.4,15.1,3.9c4.9,0.4,10.6,0.4,17.4,0.2c0,0,13.1,7.2,24.9,4.5
		c11.7-2.7,6.6-7.3,6.6-7.3s-11.4-11.5-15.8-15.3c-4.5-3.7-8.2-2.8-17.4-2.4c-4.4,0.2-9.4-0.3-13.5-0.9c-4.5-0.6-7.8-1.3-7.8-1.3
		C334.5,419.5,331.2,428.6,326.3,434.4z"/>
	<path class="st2" d="M358.5,439.6c-7.5,0.2-12.8,0.1-17.2-0.2c-7-0.5-11.9-1.8-15.6-4l-1.2-0.7l0.9-1.1c4.8-5.6,8.1-14.6,9.2-18.2
		l0.3-1l1.1,0.2c0,0,3.3,0.7,7.7,1.3c5.2,0.7,9.7,1,13.3,0.9c1.4-0.1,2.7-0.1,3.9-0.2c6.6-0.4,10.2-0.6,14.4,2.9
		c4.4,3.7,15.2,14.6,15.9,15.3c0.7,0.7,1.8,2.3,1.4,4.1c-0.6,2.3-3.4,4-8.6,5.2c-2,0.5-4,0.6-5.9,0.6
		C368.8,444.7,360.2,440.5,358.5,439.6z M361,419c-1.2,0.1-2.5,0.1-3.9,0.2c-3.7,0.1-8.4-0.1-13.7-0.9c-3-0.4-5.5-0.9-6.8-1.1
		c-1.3,3.9-4.2,11.4-8.4,16.8c3.2,1.6,7.5,2.6,13.3,3c4.4,0.3,9.7,0.4,17.3,0.2l0.3,0l0.3,0.2c0.1,0.1,12.9,6.9,24,4.4
		c5.6-1.3,6.6-2.8,6.7-3.5c0.2-0.9-0.7-1.7-0.7-1.7l-0.1-0.1c-0.1-0.1-11.4-11.5-15.7-15.2c-2.4-2-4.6-2.5-7.9-2.5
		C364.4,418.8,362.9,418.9,361,419z"/>
</g>
<g>
	<path class="st2" d="M389.1,441.6l1.2-2.1c-6.9-4-19.3-16.5-19.4-16.7l-1.7,1.7C369.7,425.1,382,437.5,389.1,441.6z"/>
</g>
<g>
	<path class="st2" d="M383,443.9l1.3-2.1c-8.5-5.3-15.9-13-16-13.1l-1.8,1.7C366.9,430.8,374.2,438.4,383,443.9z"/>
</g>
<g>
	<path class="st2" d="M373.4,444.3l1.4-2c-7.7-5.2-11.1-8.1-11.1-8.2l-1.6,1.8C362.1,436,365.5,438.9,373.4,444.3z"/>
</g>
<g>
	<path class="st2" d="M295.6,384.4c0,0-5.8,3.1-4.7,6.6c1.1,3.5,21.5,8.6,21.5,8.6S293.3,388.1,295.6,384.4z"/>
</g>
<g>
	<rect x="452.5" y="942.9" class="st1" width="85.5" height="2.4"/>
</g>
<g>
	
		<rect x="293.5" y="879.3" transform="matrix(0.5475 -0.8368 0.8368 0.5475 -638.1707 663.8962)" class="st1" width="2.4" height="85.5"/>
</g>
<g>
	<path class="st2" d="M290.7,842.8c0.5,0,1-0.3,1.2-0.9c0.4-1.4,40.5-141.2,53.7-179.8c13.2-38.8,26-200.3,26.1-202
		c0.1-0.7-0.4-1.3-1.1-1.3c-0.7-0.1-1.3,0.4-1.3,1.1c-0.1,1.6-12.9,162.9-26,201.4c-13.2,38.7-53.3,178.5-53.7,179.9
		c-0.2,0.6,0.2,1.3,0.8,1.5C290.5,842.8,290.6,842.8,290.7,842.8z"/>
</g>
<g>
	
		<rect x="615.3" y="146" transform="matrix(0.7071 -0.7071 0.7071 0.7071 93.943 521.1909)" class="st2" width="121.7" height="2.4"/>
</g>
<g>
	
		<rect x="650.3" y="224.2" transform="matrix(0.9964 -8.451376e-02 8.451376e-02 0.9964 -16.4789 61.5503)" class="st2" width="136.8" height="2.4"/>
</g>
<g>
	
		<rect x="701.1" y="243.5" transform="matrix(0.3721 -0.9282 0.9282 0.3721 158.0339 843.3329)" class="st2" width="2.4" height="122.8"/>
</g>
<polyline class="st2" points="570.6,0 542.9,147 545.3,147.4 572.9,0.5 "/>
<g>
	
		<rect x="421.7" y="55.6" transform="matrix(0.6989 -0.7152 0.7152 0.6989 44.5432 337.3313)" class="st2" width="2.4" height="120.3"/>
</g>
<g>
	<path class="st1" d="M617,275.4c0,0-13.5-3.6-14.2,1.8S625.8,282.1,617,275.4z"/>
	<path class="st2" d="M605.3,281.2c-3.6-1.2-3.9-3.2-3.8-4.2c0.2-1.2,0.8-2.2,1.8-2.8c3.9-2.6,12.9-0.3,13.9,0l0.2,0.1l0.2,0.1
		c2.8,2.1,2.7,3.8,2.1,4.9c-1.1,2-4.7,2.8-8.3,2.8C609.2,282.1,606.9,281.8,605.3,281.2z M604.7,276.2c-0.5,0.3-0.7,0.7-0.8,1.2
		c-0.1,0.6,1,1.2,2.1,1.6c4.4,1.4,10.9,0.5,11.6-0.8c0.1-0.2-0.2-0.8-1.3-1.7C609.3,274.6,605.6,275.6,604.7,276.2z"/>
</g>
<g>
	<path class="st1" d="M615.5,282.8c0,0-13.5-3.6-14.2,1.8C600.4,290,624.2,289.5,615.5,282.8z"/>
	<path class="st2" d="M603.8,288.7c-3.6-1.2-3.9-3.2-3.8-4.2c0.2-1.2,0.8-2.2,1.8-2.8c3.9-2.6,12.9-0.3,13.9,0l0.2,0.1l0.2,0.1
		c2.8,2.1,2.7,3.8,2.1,4.9c-1.1,2-4.7,2.8-8.3,2.8C607.7,289.5,605.4,289.2,603.8,288.7z M603.2,283.6c-0.5,0.3-0.7,0.7-0.8,1.2
		c-0.1,0.6,1,1.2,2.1,1.6c4.4,1.4,10.9,0.5,11.6-0.8c0.1-0.2-0.2-0.8-1.3-1.7C607.8,282,604,283.1,603.2,283.6z"/>
</g>
<g>
	<path class="st1" d="M615.5,290.2c0,0-13.5-3.6-14.2,1.8S624.2,296.9,615.5,290.2z"/>
	<path class="st2" d="M603.8,296.1c-3.6-1.2-3.9-3.2-3.8-4.2c0.2-1.2,0.8-2.2,1.8-2.8c3.9-2.6,12.9-0.3,13.9,0l0.2,0.1l0.2,0.1
		c2.8,2.1,2.7,3.8,2.1,4.9c-1.1,2-4.7,2.8-8.3,2.8C607.7,296.9,605.4,296.6,603.8,296.1z M603.2,291c-0.5,0.3-0.7,0.7-0.8,1.2
		c-0.1,0.6,1,1.2,2.1,1.6c4.4,1.4,10.9,0.5,11.6-0.8c0.1-0.2-0.2-0.8-1.3-1.7C607.8,289.5,604,290.5,603.2,291z"/>
</g>
<g>
	<path class="st1" d="M614.2,297.3c0,0-10.7-3-11.3,1.5C602.3,303.4,621.2,302.9,614.2,297.3z"/>
	<path class="st2" d="M604.9,302.4c-3.1-1-3.4-2.8-3.3-3.8c0.1-1.1,0.7-2,1.6-2.6c3.2-2.1,10.4-0.2,11.2,0l0.2,0.1l0.2,0.2
		c2.3,1.9,2.2,3.4,1.7,4.4c-0.9,1.7-3.9,2.4-6.9,2.4C608,303.1,606.3,302.9,604.9,302.4z M604.7,298.1c-0.3,0.2-0.5,0.5-0.6,0.9
		c-0.1,0.4,0.9,1,2.6,1.4c3.7,0.8,7.6-0.1,7.8-0.8c0-0.1-0.1-0.5-0.9-1.1C610.9,297.7,606.3,297,604.7,298.1z"/>
</g>
<g>
	<path class="st1" d="M255.6,411.5c-4.5-3.3-12.6-11-15.9-29.5c-5-28.3,142.7-96.6,142.7-96.6c-7.6-3.2-150.3,59.7-151.8,96.2
		C230.1,393.8,241.4,403.5,255.6,411.5z"/>
</g>
<g>
	<path class="st2" d="M457.5,321.7c0,0,18.8,52.8,35.9,66.3c17,13.4,17,23.6,17,23.6v-20.3C510.4,391.3,470.7,351.7,457.5,321.7z"/>
</g>
<g>
	<g>
		<line class="st1" x1="698.3" y1="961.5" x2="404.1" y2="961.5"/>
		<path class="st2" d="M404.1,962.7h294.2c0.7,0,1.2-0.5,1.2-1.2c0-0.7-0.5-1.2-1.2-1.2H404.1c-0.7,0-1.2,0.5-1.2,1.2
			C402.8,962.1,403.4,962.7,404.1,962.7z"/>
	</g>
	<g>
		<line class="st1" x1="389.2" y1="961.5" x2="275.5" y2="961.5"/>
		<path class="st2" d="M275.5,962.7h113.6c0.7,0,1.2-0.5,1.2-1.2c0-0.7-0.5-1.2-1.2-1.2H275.5c-0.7,0-1.2,0.5-1.2,1.2
			C274.3,962.1,274.9,962.7,275.5,962.7z"/>
	</g>
	<g>
		<line class="st1" x1="261.8" y1="961.5" x2="193.3" y2="961.5"/>
		<path class="st2" d="M193.3,962.7h68.5c0.7,0,1.2-0.5,1.2-1.2c0-0.7-0.5-1.2-1.2-1.2h-68.5c-0.7,0-1.2,0.5-1.2,1.2
			C192.1,962.1,192.6,962.7,193.3,962.7z"/>
	</g>
</g>
</svg>
